<svg xmlns="http://www.w3.org/2000/svg" width="137.2" height="144.04" viewBox="0 0 137.2 144.04">
  <defs>
    <style>
      .a {
        fill: #fff;
      }

      .b {
        fill: none;
        stroke: #fff;
        stroke-miterlimit: 10;
        stroke-width: 0.28px;
      }
    </style>
  </defs>
  <title>Asset 31</title>
  <g>
    <g>
      <path class="a" d="M80.52,73.82a2.31,2.31,0,0,0-.61-.71,9.22,9.22,0,0,1-2.38-3.72c.07-4.64-.15-8.66-2.14-12.74a9.71,9.71,0,0,1-.76-4.55A43.37,43.37,0,0,0,74.38,43a.89.89,0,0,1,.22-.78c3.39-3.86,1.55-8.55.34-12.74-.5-1.72-1-3.44-1.51-5.15a12.85,12.85,0,0,0-1.52-3.85c-1-1.36-2.59-2.23-3.26-3.76a3.9,3.9,0,0,1-.25-.8,4.79,4.79,0,0,0,1.18-1c.29-.34.54-.72.86-1a12.53,12.53,0,0,1,1.16-.87A3.29,3.29,0,0,0,73,11.21,1.61,1.61,0,0,0,72,9.3a6.44,6.44,0,0,0-.41-5.78c-1-1.72-3.13-4.17-8.22-3.36a6.79,6.79,0,0,0-4.63,9,2,2,0,0,0-.5,2.61,5.88,5.88,0,0,0,2.15,2l2.82,1.81.2.12a4.13,4.13,0,0,1-.91,2.81c-1,1.2-2.6,1.75-3.69,2.87C57,23.21,57,26.12,56.62,28.69c-.46,3.2-1.69,6.27-1.32,9.58A7.53,7.53,0,0,0,57.8,43c2.7,2.4,1.48,7,2,10.63.23,1.67.63,3.32.8,5a36.2,36.2,0,0,1,0,5.31l-.4,7.62a13.32,13.32,0,0,1-2.9,2.64,1,1,0,0,0-.47.65c0,.27.23.58.48.47a12.69,12.69,0,0,0,6.86-.44c.37-.14.77-.34.86-.72a1.2,1.2,0,0,0,0-.53L64.64,72h0A19.58,19.58,0,0,1,65.41,67c.48-2,1.4-4.15,1.17-6.23-.19-1.73-.77-3.41-.94-5.15-.28-2.92.58-5.87.52-8.79a.8.8,0,0,1,1.54-.29v0l1.77,5.63a28.36,28.36,0,0,1,.87,4c.16,1.34.44,3.14.5,4.29.24,4.56,2.75,7.75,3.06,12.27a2.64,2.64,0,0,1-.13.46,1.64,1.64,0,0,0-.17.86c.11.55.79.74,1.35.8a20.76,20.76,0,0,0,4.92,0,1.14,1.14,0,0,0,.52-.17A.72.72,0,0,0,80.52,73.82Z"/>
      <ellipse class="a" cx="69.07" cy="76.13" rx="66.6" ry="1.59"/>
    </g>
    <g>
      <path class="a" d="M58.7,100.11v2.8h-.29v-2.54H56.64v2.54h-.3v-2.8Z"/>
      <path class="a" d="M59.89,102.79a1,1,0,0,1-.38-.38,1.12,1.12,0,0,1-.14-.55,1.1,1.1,0,0,1,.14-.55.93.93,0,0,1,.38-.38,1.15,1.15,0,0,1,.55-.14,1.1,1.1,0,0,1,.55.14.93.93,0,0,1,.38.38,1,1,0,0,1,.14.55,1,1,0,0,1-.14.55,1,1,0,0,1-.38.38,1.1,1.1,0,0,1-.55.14A1.15,1.15,0,0,1,59.89,102.79Zm1-.21a.75.75,0,0,0,.27-.29,1,1,0,0,0,0-.86.69.69,0,0,0-.27-.29.8.8,0,0,0-.41-.1.77.77,0,0,0-.4.1.71.71,0,0,0-.28.29,1,1,0,0,0,0,.86.78.78,0,0,0,.28.29.88.88,0,0,0,.4.1A.92.92,0,0,0,60.85,102.58Z"/>
      <path class="a" d="M63.83,100.81v2.1h-.29v-1.85h-1l0,.52a3.79,3.79,0,0,1-.16,1,.44.44,0,0,1-.42.35l-.21,0,0-.25.1,0a.26.26,0,0,0,.25-.15,1.06,1.06,0,0,0,.11-.38c0-.15,0-.35,0-.59l0-.75Z"/>
      <path class="a" d="M66.12,101.73a.59.59,0,0,1,.21.49.62.62,0,0,1-.22.52,1,1,0,0,1-.64.17h-.84v-2.1h.29v.73h.6A.9.9,0,0,1,66.12,101.73Zm-.23.85a.43.43,0,0,0,.15-.36.39.39,0,0,0-.15-.34.66.66,0,0,0-.44-.12h-.53v.94h.53A.7.7,0,0,0,65.89,102.58Zm.79-1.77H67v2.1h-.29Z"/>
      <path class="a" d="M67.77,100.81h.29v1.67l1.4-1.67h.26v2.1h-.29v-1.67L68,102.91h-.26Zm.53-.44a.47.47,0,0,1-.16-.39h.2a.31.31,0,0,0,.11.25.43.43,0,0,0,.28.1.41.41,0,0,0,.28-.1.32.32,0,0,0,.12-.25h.2a.5.5,0,0,1-.16.39.68.68,0,0,1-.44.13A.65.65,0,0,1,68.3,100.37Z"/>
      <path class="a" d="M74.48,100.81v2.1H71.57v-2.1h.29v1.85h1v-1.85h.29v1.85h1v-1.85Z"/>
      <path class="a" d="M76.65,101a.81.81,0,0,1,.22.61v1.3H76.6v-.33a.67.67,0,0,1-.29.26,1,1,0,0,1-.44.09.89.89,0,0,1-.56-.17.56.56,0,0,1,0-.87.93.93,0,0,1,.61-.17h.67v-.13a.53.53,0,0,0-.15-.41A.64.64,0,0,0,76,101a1.27,1.27,0,0,0-.39.06,1,1,0,0,0-.31.19l-.13-.22a1.07,1.07,0,0,1,.38-.21,1.49,1.49,0,0,1,.47-.07A.9.9,0,0,1,76.65,101Zm-.32,1.6a.67.67,0,0,0,.25-.32v-.35h-.66c-.36,0-.54.13-.54.38a.36.36,0,0,0,.14.29.67.67,0,0,0,.39.11A.82.82,0,0,0,76.33,102.6Z"/>
      <path class="a" d="M79.24,100.92a1,1,0,0,1,.38.38,1.19,1.19,0,0,1,0,1.12,1,1,0,0,1-.38.38,1,1,0,0,1-.53.13.93.93,0,0,1-.47-.11.82.82,0,0,1-.33-.31v1.18h-.29v-2.88h.27v.41a1,1,0,0,1,.34-.32,1.12,1.12,0,0,1,1,0Zm-.15,1.66a.78.78,0,0,0,.28-.29,1,1,0,0,0,0-.86.78.78,0,0,0-.28-.29.79.79,0,0,0-.4-.1.8.8,0,0,0-.41.1.75.75,0,0,0-.27.29.9.9,0,0,0,0,.86.75.75,0,0,0,.27.29.87.87,0,0,0,.81,0Z"/>
    </g>
    <g>
      <ellipse class="b" cx="69.13" cy="76.13" rx="66.6" ry="67.77"/>
      <path class="b" d="M11.35,42.39C3,31.26-.7,22.85,2.16,19.47c6.24-7.38,41.29,12,78.28,43.29s61.91,62.63,55.66,70c-2.84,3.36-11.67,1.17-23.93-5.17"/>
      <path class="b" d="M24.6,128c-12.09,6.05-20.75,8.06-23.53,4.71-6.17-7.44,19-38.55,56.33-69.49s72.51-50,78.69-42.54c2.8,3.38-.88,11.66-9.23,22.59"/>
      <path class="b" d="M29.34,131.42c-11.53,7.06-20,9.81-23,6.71-6.78-6.88,15.68-40,50.19-74s68-56,74.76-49.11c3.09,3.13.13,11.69-7.26,23.3"/>
    </g>
  </g>
</svg>
