<svg xmlns="http://www.w3.org/2000/svg" width="136.14" height="144.04" viewBox="0 0 136.14 144.04">
  <defs>
    <style>
      .a, .c {
        fill: none;
        stroke: #fff;
        stroke-miterlimit: 10;
      }

      .a {
        stroke-width: 0.4px;
      }

      .b {
        fill: #fff;
      }

      .c {
        stroke-width: 0.28px;
      }
    </style>
  </defs>
  <title>Asset 32</title>
  <g>
    <ellipse class="a" cx="68.07" cy="76.42" rx="17.57" ry="87.72" transform="translate(-34.24 78.66) rotate(-49.7)"/>
    <g>
      <g>
        <path class="b" d="M134.65,76.38h.06c0,37.43-29.82,67.77-66.6,67.77S1.54,113.84,1.51,76.44C3,77.29,32.23,78,68.05,78,104.83,78,134.65,77.25,134.65,76.38Z" transform="translate(0 -0.25)"/>
        <path class="b" d="M1.51,76.44a.07.07,0,0,1-.06-.06c0-.78,23.47-1.43,54.44-1.56a.54.54,0,0,0-.11.27c0,.27.23.58.48.47a12.69,12.69,0,0,0,6.86-.44,2.16,2.16,0,0,0,.6-.32h9.19a2.31,2.31,0,0,0,1,.32,20.25,20.25,0,0,0,4.92,0,1,1,0,0,0,.52-.17l.11-.11c31.33.13,55.17.78,55.17,1.57S104.83,78,68.05,78C32.23,78,3,77.29,1.51,76.44Z" transform="translate(0 -0.25)"/>
        <path class="b" d="M79.5,74.06a.8.8,0,0,1,0,.75H72.91a.77.77,0,0,1-.33-.49,1.61,1.61,0,0,1,.17-.85,2.52,2.52,0,0,0,.13-.47c-.31-4.51-2.82-7.7-3.06-12.26-.06-1.15-.34-2.95-.5-4.29a28.8,28.8,0,0,0-.87-4l-1.77-5.62v0a.8.8,0,0,0-1.54.29c.06,2.92-.8,5.87-.52,8.79.17,1.74.75,3.42.94,5.15.23,2.08-.7,4.19-1.17,6.22A20.93,20.93,0,0,0,63.62,72v.24L64,73.87a1.36,1.36,0,0,1,0,.53.76.76,0,0,1-.26.4l-7.83,0a1.3,1.3,0,0,1,.36-.38,13.12,13.12,0,0,0,2.9-2.65q.2-3.8.4-7.61a36.33,36.33,0,0,0,0-5.32c-.17-1.67-.57-3.32-.8-5-.5-3.65.72-8.23-2-10.64a7.5,7.5,0,0,1-2.5-4.72c-.37-3.3.86-6.38,1.32-9.57.38-2.58.35-5.48,2.16-7.35,1.09-1.13,2.69-1.67,3.69-2.87a4.13,4.13,0,0,0,.91-2.81,1.37,1.37,0,0,1-.2-.13L59.34,14a5.88,5.88,0,0,1-2.15-2,2,2,0,0,1,.5-2.61A6.86,6.86,0,0,1,58,3.87,6.87,6.87,0,0,1,62.32.41c5.09-.81,7.18,1.64,8.22,3.36A6.42,6.42,0,0,1,71,9.54a1.62,1.62,0,0,1,1,1.91,3.28,3.28,0,0,1-1.41,1.89,12.53,12.53,0,0,0-1.16.87c-.32.32-.57.7-.87,1a4.33,4.33,0,0,1-1.17.95,3.1,3.1,0,0,0,.25.8c.67,1.54,2.29,2.41,3.26,3.77a12.89,12.89,0,0,1,1.52,3.84q.75,2.58,1.51,5.16c1.21,4.19,3,8.88-.34,12.73a.9.9,0,0,0-.22.78,43.49,43.49,0,0,1,.25,9.07,9.75,9.75,0,0,0,.76,4.55c2,4.08,2.21,8.1,2.14,12.73a9.25,9.25,0,0,0,2.38,3.73A2.39,2.39,0,0,1,79.5,74.06Z" transform="translate(0 -0.25)"/>
        <path class="b" d="M79.48,74.81l-.11.11a1,1,0,0,1-.52.17,20.25,20.25,0,0,1-4.92,0,2.31,2.31,0,0,1-1-.32Z" transform="translate(0 -0.25)"/>
        <path class="b" d="M63.72,74.8a2.16,2.16,0,0,1-.6.32,12.69,12.69,0,0,1-6.86.44c-.25.11-.52-.2-.48-.47a.54.54,0,0,1,.11-.27Z" transform="translate(0 -0.25)"/>
      </g>
      <path class="c" d="M1.51,76.38v.06c0,37.4,29.84,67.71,66.6,67.71s66.6-30.34,66.6-67.77" transform="translate(0 -0.25)"/>
    </g>
    <g>
      <path d="M44.68,100.36v2.8H41.24v-2.8h.3v2.54h1.28v-2.54h.29v2.54h1.27v-2.54Z" transform="translate(0 -0.25)"/>
      <path d="M46.91,101.25a.81.81,0,0,1,.22.61v1.3h-.27v-.33a.67.67,0,0,1-.29.26,1,1,0,0,1-.44.09.89.89,0,0,1-.56-.17.56.56,0,0,1,0-.87.94.94,0,0,1,.62-.17h.66v-.13a.53.53,0,0,0-.15-.41.64.64,0,0,0-.44-.14,1.27,1.27,0,0,0-.39.06,1.08,1.08,0,0,0-.31.19l-.13-.22a1.17,1.17,0,0,1,.38-.21,1.51,1.51,0,0,1,.48-.07A.89.89,0,0,1,46.91,101.25Zm-.32,1.6a.67.67,0,0,0,.25-.32v-.35h-.66c-.36,0-.54.13-.54.38a.36.36,0,0,0,.14.29.68.68,0,0,0,.4.11A.78.78,0,0,0,46.59,102.85Z" transform="translate(0 -0.25)"/>
      <path d="M49.5,101.17a1,1,0,0,1,.38.38,1.19,1.19,0,0,1,0,1.12,1,1,0,0,1-.37.38,1.08,1.08,0,0,1-.54.13.87.87,0,0,1-.46-.11.84.84,0,0,1-.34-.31v1.18h-.29v-2.88h.28v.41a.85.85,0,0,1,.33-.32A1.06,1.06,0,0,1,49,101,1,1,0,0,1,49.5,101.17Zm-.15,1.66a.78.78,0,0,0,.28-.29,1,1,0,0,0,0-.86.78.78,0,0,0-.28-.29.79.79,0,0,0-.4-.1.74.74,0,0,0-.4.1.71.71,0,0,0-.28.29.9.9,0,0,0,0,.86.71.71,0,0,0,.28.29.85.85,0,0,0,.4.1A.91.91,0,0,0,49.35,102.83Z" transform="translate(0 -0.25)"/>
      <path d="M52,103a.89.89,0,0,1-.39-.38,1.12,1.12,0,0,1-.14-.55,1.1,1.1,0,0,1,.14-.55.89.89,0,0,1,.39-.38,1.13,1.13,0,0,1,.56-.14,1.06,1.06,0,0,1,.48.11.78.78,0,0,1,.34.31l-.21.14a.67.67,0,0,0-.27-.23.66.66,0,0,0-.34-.08.78.78,0,0,0-.41.1.68.68,0,0,0-.29.29,1,1,0,0,0,0,.86.74.74,0,0,0,.29.29.89.89,0,0,0,.41.1.77.77,0,0,0,.34-.08.67.67,0,0,0,.27-.23l.21.14a.78.78,0,0,1-.34.31,1,1,0,0,1-.48.11A1.13,1.13,0,0,1,52,103Z" transform="translate(0 -0.25)"/>
      <path d="M56.86,101.06v2.1h-.28v-1.85H55.26v1.85H55v-2.1Z" transform="translate(0 -0.25)"/>
      <path d="M59.39,101.06v2.1h-.28v-1.85h-1l0,.52a3.86,3.86,0,0,1-.15,1,.44.44,0,0,1-.43.35l-.2,0,0-.25.1,0a.27.27,0,0,0,.25-.15,1.31,1.31,0,0,0,.11-.38c0-.15,0-.35,0-.59l0-.75Z" transform="translate(0 -0.25)"/>
      <path d="M60.52,103a1,1,0,0,1-.38-.38,1,1,0,0,1-.14-.55,1,1,0,0,1,.14-.55.93.93,0,0,1,.38-.38,1.13,1.13,0,0,1,1.09,0,1,1,0,0,1,.39.38,1.1,1.1,0,0,1,.14.55,1.12,1.12,0,0,1-.14.55,1,1,0,0,1-.39.38,1.13,1.13,0,0,1-1.09,0Zm.95-.21a.78.78,0,0,0,.28-.29,1,1,0,0,0,0-.86.71.71,0,0,0-.28-.29.77.77,0,0,0-.4-.1.74.74,0,0,0-.4.1.65.65,0,0,0-.28.29.9.9,0,0,0,0,.86.71.71,0,0,0,.28.29.85.85,0,0,0,.4.1A.88.88,0,0,0,61.47,102.83Z" transform="translate(0 -0.25)"/>
      <path d="M63.06,103a.93.93,0,0,1-.38-.38,1.12,1.12,0,0,1-.14-.55,1.1,1.1,0,0,1,.14-.55.93.93,0,0,1,.38-.38,1.19,1.19,0,0,1,.56-.14,1.1,1.1,0,0,1,.49.11.84.84,0,0,1,.34.31l-.22.14a.58.58,0,0,0-.26-.23.69.69,0,0,0-.35-.08.8.8,0,0,0-.41.1.71.71,0,0,0-.28.29,1,1,0,0,0,0,.86.78.78,0,0,0,.28.29.92.92,0,0,0,.41.1.82.82,0,0,0,.35-.08.58.58,0,0,0,.26-.23l.22.14a.84.84,0,0,1-.34.31,1,1,0,0,1-.49.11A1.19,1.19,0,0,1,63.06,103Z" transform="translate(0 -0.25)"/>
      <path d="M65.76,102.22h-.48v.94H65v-2.1h.29V102h.48l.74-.92h.31l-.83,1,.89,1.08h-.34Z" transform="translate(0 -0.25)"/>
      <path d="M67.56,103a1,1,0,0,1-.38-.38,1.12,1.12,0,0,1-.14-.55,1.1,1.1,0,0,1,.14-.55.93.93,0,0,1,.38-.38,1.15,1.15,0,0,1,.55-.14,1.12,1.12,0,0,1,.55.14.93.93,0,0,1,.38.38,1.1,1.1,0,0,1,.14.55,1.12,1.12,0,0,1-.14.55,1,1,0,0,1-.38.38,1.12,1.12,0,0,1-.55.14A1.15,1.15,0,0,1,67.56,103Zm1-.21a.78.78,0,0,0,.28-.29,1,1,0,0,0,0-.86.71.71,0,0,0-.28-.29.85.85,0,0,0-.8,0,.71.71,0,0,0-.28.29,1,1,0,0,0,0,.86.78.78,0,0,0,.28.29.85.85,0,0,0,.8,0Z" transform="translate(0 -0.25)"/>
      <path d="M69.79,101.06h.28v1.67l1.4-1.67h.26v2.1h-.29v-1.67L70,103.16h-.25Zm.52-.44a.47.47,0,0,1-.16-.39h.2a.31.31,0,0,0,.11.25.43.43,0,0,0,.28.1.41.41,0,0,0,.28-.1.29.29,0,0,0,.12-.25h.2a.5.5,0,0,1-.16.39.68.68,0,0,1-.44.13A.65.65,0,0,1,70.31,100.62Z" transform="translate(0 -0.25)"/>
      <path d="M73.91,103a1,1,0,0,1-.39-.38,1.12,1.12,0,0,1-.14-.55,1.1,1.1,0,0,1,.14-.55,1,1,0,0,1,.39-.38,1.13,1.13,0,0,1,.56-.14,1.06,1.06,0,0,1,.48.11.73.73,0,0,1,.34.31l-.21.14a.67.67,0,0,0-.27-.23.66.66,0,0,0-.34-.08.78.78,0,0,0-.41.1.74.74,0,0,0-.29.29,1,1,0,0,0,0,.86.81.81,0,0,0,.29.29.89.89,0,0,0,.41.1.77.77,0,0,0,.34-.08.67.67,0,0,0,.27-.23l.21.14a.78.78,0,0,1-.34.31,1,1,0,0,1-.48.11A1.13,1.13,0,0,1,73.91,103Z" transform="translate(0 -0.25)"/>
      <path d="M77.28,101.31h-.8v1.85H76.2v-1.85h-.8v-.25h1.88Z" transform="translate(0 -0.25)"/>
      <path d="M77.91,103a1,1,0,0,1-.38-.38,1.12,1.12,0,0,1-.14-.55,1.1,1.1,0,0,1,.14-.55.93.93,0,0,1,.38-.38,1.15,1.15,0,0,1,.55-.14,1.1,1.1,0,0,1,.55.14.93.93,0,0,1,.38.38,1.1,1.1,0,0,1,.14.55,1.12,1.12,0,0,1-.14.55A1,1,0,0,1,79,103a1.1,1.1,0,0,1-.55.14A1.15,1.15,0,0,1,77.91,103Zm1-.21a.71.71,0,0,0,.28-.29,1,1,0,0,0,0-.86.65.65,0,0,0-.28-.29.74.74,0,0,0-.4-.1.77.77,0,0,0-.4.1.71.71,0,0,0-.28.29,1,1,0,0,0,0,.86.78.78,0,0,0,.28.29.88.88,0,0,0,.4.1A.85.85,0,0,0,78.86,102.83Z" transform="translate(0 -0.25)"/>
      <path d="M81.76,101.17a1,1,0,0,1,.37.38,1.19,1.19,0,0,1,0,1.12,1,1,0,0,1-.37.38,1.08,1.08,0,0,1-.54.13.9.9,0,0,1-.46-.11.84.84,0,0,1-.34-.31v1.18h-.28v-2.88h.27v.41a1,1,0,0,1,.34-.32,1,1,0,0,1,.47-.11A1.08,1.08,0,0,1,81.76,101.17Zm-.16,1.66a.71.71,0,0,0,.28-.29.9.9,0,0,0,0-.86.71.71,0,0,0-.28-.29.85.85,0,0,0-.8,0,.78.78,0,0,0-.28.29,1,1,0,0,0,0,.86.78.78,0,0,0,.28.29.85.85,0,0,0,.8,0Z" transform="translate(0 -0.25)"/>
      <path d="M83.2,103a1,1,0,0,1-.38-.38,1.12,1.12,0,0,1-.14-.55,1.1,1.1,0,0,1,.14-.55.93.93,0,0,1,.38-.38,1.15,1.15,0,0,1,.55-.14,1.12,1.12,0,0,1,.55.14.93.93,0,0,1,.38.38,1.1,1.1,0,0,1,.14.55,1.12,1.12,0,0,1-.14.55,1,1,0,0,1-.38.38,1.12,1.12,0,0,1-.55.14A1.15,1.15,0,0,1,83.2,103Zm1-.21a.78.78,0,0,0,.28-.29,1,1,0,0,0,0-.86.71.71,0,0,0-.28-.29.85.85,0,0,0-.8,0,.71.71,0,0,0-.28.29,1,1,0,0,0,0,.86.78.78,0,0,0,.28.29.85.85,0,0,0,.8,0Z" transform="translate(0 -0.25)"/>
      <path d="M85.43,101.06h.28V102H87v-.93h.29v2.1H87v-.93H85.71v.93h-.28Z" transform="translate(0 -0.25)"/>
      <path d="M88.45,103a1,1,0,0,1-.39-.38,1.12,1.12,0,0,1-.14-.55,1.1,1.1,0,0,1,.14-.55,1,1,0,0,1,.39-.38,1.13,1.13,0,0,1,1.09,0,.93.93,0,0,1,.38.38,1,1,0,0,1,.14.55,1,1,0,0,1-.14.55,1,1,0,0,1-.38.38,1.13,1.13,0,0,1-1.09,0Zm1-.21a.69.69,0,0,0,.27-.29,1,1,0,0,0,0-.86.63.63,0,0,0-.27-.29.8.8,0,0,0-.41-.1.79.79,0,0,0-.4.1.71.71,0,0,0-.28.29,1,1,0,0,0,0,.86.78.78,0,0,0,.28.29.87.87,0,0,0,.81,0Z" transform="translate(0 -0.25)"/>
      <path d="M90.67,101.06H91v1.67l1.41-1.67h.25v2.1h-.28v-1.67l-1.4,1.67h-.26Zm.52-.44a.5.5,0,0,1-.16-.39h.2a.32.32,0,0,0,.12.25.41.41,0,0,0,.28.1.43.43,0,0,0,.28-.1.31.31,0,0,0,.11-.25h.21a.51.51,0,0,1-.17.39.65.65,0,0,1-.43.13A.66.66,0,0,1,91.19,100.62Z" transform="translate(0 -0.25)"/>
    </g>
  </g>
</svg>
