<svg xmlns="http://www.w3.org/2000/svg" width="133.19" height="103.42" viewBox="0 0 133.19 103.42">
  <defs>
    <style>
      .a {
        fill: #fff;
      }
    </style>
  </defs>
  <title>Asset 33</title>
  <g>
    <g>
      <path class="a" d="M78.05,73.82a2.45,2.45,0,0,0-.61-.71,9.22,9.22,0,0,1-2.38-3.72c.07-4.64-.16-8.66-2.14-12.74a9.71,9.71,0,0,1-.77-4.55A42.69,42.69,0,0,0,71.9,43a.9.9,0,0,1,.23-.78c3.38-3.86,1.55-8.55.33-12.74L71,24.37a13.12,13.12,0,0,0-1.52-3.85c-1-1.36-2.6-2.23-3.27-3.76a4.63,4.63,0,0,1-.25-.8,4.45,4.45,0,0,0,1.18-1c.3-.34.55-.72.87-1a13.87,13.87,0,0,1,1.15-.87,3.35,3.35,0,0,0,1.42-1.88A1.61,1.61,0,0,0,69.49,9.3a6.41,6.41,0,0,0-.4-5.78C68.05,1.8,66-.65,60.86.16a6.81,6.81,0,0,0-4.63,9,2,2,0,0,0-.49,2.61,5.73,5.73,0,0,0,2.15,2l2.81,1.81.21.12A4.13,4.13,0,0,1,60,18.47c-1,1.2-2.6,1.75-3.69,2.87-1.81,1.87-1.79,4.78-2.16,7.35-.46,3.2-1.7,6.27-1.32,9.58A7.53,7.53,0,0,0,55.33,43c2.7,2.4,1.47,7,2,10.63.23,1.67.64,3.32.81,5a34.87,34.87,0,0,1,0,5.31l-.39,7.62a13.15,13.15,0,0,1-2.91,2.64,1.13,1.13,0,0,0-.47.65c0,.27.24.58.49.47a12.7,12.7,0,0,0,6.86-.44c.36-.14.77-.34.86-.72a1.37,1.37,0,0,0,0-.53c-.11-.55-.23-1.11-.34-1.66h0A19.2,19.2,0,0,1,62.94,67c.47-2,1.4-4.15,1.17-6.23-.2-1.73-.77-3.41-.94-5.15-.29-2.92.58-5.87.52-8.79a.79.79,0,0,1,1.53-.29v0c.59,1.88,1.18,3.75,1.76,5.63a25.8,25.8,0,0,1,.87,4c.17,1.34.45,3.14.51,4.29.24,4.56,2.75,7.75,3.06,12.27a2.64,2.64,0,0,1-.13.46,1.64,1.64,0,0,0-.17.86c.11.55.79.74,1.35.8a20.68,20.68,0,0,0,4.91,0,1.18,1.18,0,0,0,.53-.17A.74.74,0,0,0,78.05,73.82Z"/>
      <ellipse class="a" cx="66.6" cy="76.13" rx="66.6" ry="1.59"/>
    </g>
    <g>
      <path class="a" d="M53.83,100.11v2.8h-.29v-2.54H51.77v2.54h-.29v-2.8Z"/>
      <path class="a" d="M56.43,100.81v2.1h-.29v-1.85h-1l0,.52a3.86,3.86,0,0,1-.15,1,.45.45,0,0,1-.43.35l-.21,0,0-.25.1,0a.26.26,0,0,0,.25-.15.89.89,0,0,0,.11-.38c0-.15,0-.35.05-.59l0-.75Z"/>
      <path class="a" d="M58.59,101a.77.77,0,0,1,.22.61v1.3h-.27v-.33a.64.64,0,0,1-.28.26,1,1,0,0,1-.44.09.85.85,0,0,1-.56-.17.54.54,0,0,1-.21-.44.53.53,0,0,1,.19-.43,1,1,0,0,1,.62-.17h.67v-.13a.53.53,0,0,0-.15-.41.67.67,0,0,0-.45-.14,1.21,1.21,0,0,0-.38.06,1.13,1.13,0,0,0-.32.19l-.13-.22a1.22,1.22,0,0,1,.39-.21,1.45,1.45,0,0,1,.47-.07A.89.89,0,0,1,58.59,101Zm-.32,1.6a.69.69,0,0,0,.26-.32v-.35h-.66c-.36,0-.54.13-.54.38a.33.33,0,0,0,.14.29.62.62,0,0,0,.39.11A.76.76,0,0,0,58.27,102.6Z"/>
      <path class="a" d="M59.57,100.81h.28v.93h1.33v-.93h.28v2.1h-.28V102H59.85v.93h-.28Z"/>
      <path class="a" d="M64.11,102H62.35a.74.74,0,0,0,.25.53.85.85,0,0,0,.58.2,1,1,0,0,0,.36-.07.94.94,0,0,0,.28-.21l.16.19a.9.9,0,0,1-.35.25,1.14,1.14,0,0,1-.46.09,1.21,1.21,0,0,1-.58-.14,1.09,1.09,0,0,1-.39-.38,1.12,1.12,0,0,1-.14-.55,1.1,1.1,0,0,1,.14-.55.9.9,0,0,1,.37-.38,1,1,0,0,1,.52-.14,1,1,0,0,1,.53.14,1,1,0,0,1,.36.37,1.16,1.16,0,0,1,.13.56Zm-1.53-.72a.76.76,0,0,0-.23.5h1.49a.81.81,0,0,0-.23-.5.76.76,0,0,0-1,0Z"/>
      <path class="a" d="M66.13,101.06h-.8v1.85h-.28v-1.85h-.8v-.25h1.88Z"/>
      <path class="a" d="M67.9,101a.81.81,0,0,1,.22.61v1.3h-.28v-.33a.59.59,0,0,1-.28.26,1,1,0,0,1-.44.09.89.89,0,0,1-.56-.17.56.56,0,0,1,0-.87.93.93,0,0,1,.61-.17h.67v-.13a.53.53,0,0,0-.15-.41.64.64,0,0,0-.44-.14,1.23,1.23,0,0,0-.39.06,1,1,0,0,0-.31.19l-.13-.22a1.07,1.07,0,0,1,.38-.21,1.49,1.49,0,0,1,.47-.07A.9.9,0,0,1,67.9,101Zm-.32,1.6a.67.67,0,0,0,.25-.32v-.35h-.66c-.36,0-.54.13-.54.38a.36.36,0,0,0,.14.29.67.67,0,0,0,.39.11A.82.82,0,0,0,67.58,102.6Z"/>
      <path class="a" d="M68.71,101.7h1.05V102H68.71Z"/>
      <path class="a" d="M72.41,102.66v.76h-.27v-.51H70.26v.51H70v-.76h.12c.14,0,.24-.11.29-.31a4.81,4.81,0,0,0,.1-.84l0-.7h1.55v1.85Zm-1.73-.4a.56.56,0,0,1-.2.4H71.8v-1.6h-1l0,.47A4.38,4.38,0,0,1,70.68,102.26Z"/>
      <path class="a" d="M73,100.81h.28v1.67l1.41-1.67h.25v2.1h-.28v-1.67l-1.4,1.67H73Z"/>
      <path class="a" d="M76,102.79a.93.93,0,0,1-.38-.38,1,1,0,0,1-.14-.55,1,1,0,0,1,.14-.55.93.93,0,0,1,.38-.38,1.16,1.16,0,0,1,.56-.14,1.1,1.1,0,0,1,.49.11.84.84,0,0,1,.34.31l-.22.14a.64.64,0,0,0-.26-.23.69.69,0,0,0-.35-.08.8.8,0,0,0-.41.1.71.71,0,0,0-.28.29,1,1,0,0,0,0,.86.78.78,0,0,0,.28.29.92.92,0,0,0,.41.1.82.82,0,0,0,.35-.08.64.64,0,0,0,.26-.23l.22.14a.84.84,0,0,1-.34.31,1,1,0,0,1-.49.11A1.16,1.16,0,0,1,76,102.79Z"/>
      <path class="a" d="M78.73,102h-.48v.94H78v-2.1h.29v.92h.48l.74-.92h.31l-.83,1,.89,1.08H79.5Z"/>
    </g>
  </g>
</svg>
