<svg xmlns="http://www.w3.org/2000/svg" width="133.19" height="139.97" viewBox="0 0 133.19 139.97">
  <defs>
    <style>
      .a {
        fill: #fff;
      }
    </style>
  </defs>
  <title>Asset 34</title>
  <g>
    <g>
      <path class="a" d="M78.05,110.25a2.45,2.45,0,0,0-.61-.71,9.22,9.22,0,0,1-2.38-3.72c.07-4.64-.16-8.66-2.14-12.74a9.71,9.71,0,0,1-.77-4.55,42.69,42.69,0,0,0-.25-9.06.9.9,0,0,1,.23-.78c3.38-3.86,1.55-8.55.33-12.74L71,60.8A13.12,13.12,0,0,0,69.44,57c-1-1.36-2.6-2.23-3.27-3.76a4.63,4.63,0,0,1-.25-.8,4.45,4.45,0,0,0,1.18-1c.3-.34.55-.72.87-1a11.86,11.86,0,0,1,1.15-.86,3.41,3.41,0,0,0,1.42-1.89,1.61,1.61,0,0,0-1.05-1.91,6.41,6.41,0,0,0-.4-5.78c-1-1.72-3.14-4.17-8.23-3.36a6.81,6.81,0,0,0-4.63,9,2,2,0,0,0-.49,2.61,5.73,5.73,0,0,0,2.15,2L60.7,52l.21.12A4.13,4.13,0,0,1,60,54.9c-1,1.2-2.6,1.75-3.69,2.87-1.81,1.87-1.79,4.78-2.16,7.35-.46,3.2-1.7,6.27-1.32,9.58a7.53,7.53,0,0,0,2.5,4.72c2.7,2.4,1.47,7,2,10.63.23,1.67.64,3.32.81,5a34.87,34.87,0,0,1,0,5.31L57.7,108a13.15,13.15,0,0,1-2.91,2.64,1.13,1.13,0,0,0-.47.65c0,.27.24.58.49.47a12.7,12.7,0,0,0,6.86-.44c.36-.14.77-.34.86-.71a1.41,1.41,0,0,0,0-.54c-.11-.55-.23-1.11-.34-1.66h0a19.2,19.2,0,0,1,.78-5c.47-2,1.4-4.15,1.17-6.23-.2-1.73-.77-3.41-.94-5.15-.29-2.92.58-5.87.52-8.79A.79.79,0,0,1,65.22,83v0c.59,1.88,1.18,3.75,1.76,5.63a25.8,25.8,0,0,1,.87,4c.17,1.34.45,3.14.51,4.29.24,4.56,2.75,7.75,3.06,12.27a2.64,2.64,0,0,1-.13.46,1.64,1.64,0,0,0-.17.86c.11.55.79.74,1.35.81a21.22,21.22,0,0,0,4.91,0,1.18,1.18,0,0,0,.53-.17A.74.74,0,0,0,78.05,110.25Z"/>
      <ellipse class="a" cx="66.6" cy="112.56" rx="66.6" ry="1.59"/>
      <ellipse class="a" cx="61.58" cy="10.02" rx="9.8" ry="10.02"/>
    </g>
    <g>
      <path class="a" d="M57.4,139.08V140h-.28v-.63H54.68V140H54.4v-.89h.14c.19,0,.32-.15.39-.43a6.31,6.31,0,0,0,.13-1.2l0-.91H57v2.54Zm-2.17-.55a.86.86,0,0,1-.27.55h1.73V136.8H55.35l0,.68A7.09,7.09,0,0,1,55.23,138.53Z"/>
      <path class="a" d="M59.7,138.77a.48.48,0,0,1-.2.42,1,1,0,0,1-.61.15h-1v-2.1h.93a1,1,0,0,1,.57.14.45.45,0,0,1,.2.4.48.48,0,0,1-.09.29.61.61,0,0,1-.26.18A.49.49,0,0,1,59.7,138.77Zm-1.49-.6h.63a.67.67,0,0,0,.38-.09.32.32,0,0,0,.13-.27.3.3,0,0,0-.13-.26.67.67,0,0,0-.38-.09h-.63Zm1.08.86a.31.31,0,0,0,.13-.28.34.34,0,0,0-.12-.28.66.66,0,0,0-.39-.09h-.7v.74h.67A.76.76,0,0,0,59.29,139Z"/>
      <path class="a" d="M62.21,138.38H60.45a.74.74,0,0,0,.25.53.95.95,0,0,0,.94.13.83.83,0,0,0,.28-.21l.16.19a.9.9,0,0,1-.35.25,1.14,1.14,0,0,1-.46.09,1.21,1.21,0,0,1-.58-.14,1.09,1.09,0,0,1-.39-.38,1.12,1.12,0,0,1-.14-.55,1.1,1.1,0,0,1,.14-.55.9.9,0,0,1,.37-.38,1,1,0,0,1,.52-.14,1,1,0,0,1,.53.14,1,1,0,0,1,.36.37,1.16,1.16,0,0,1,.13.56Zm-1.53-.72a.76.76,0,0,0-.23.5h1.49a.81.81,0,0,0-.23-.5.76.76,0,0,0-1,0Z"/>
      <path class="a" d="M65.26,138.42a.45.45,0,0,1,.12.32.44.44,0,0,1-.13.32.79.79,0,0,1-.34.23,1.41,1.41,0,0,1-.47.07,1.63,1.63,0,0,1-.45-.06,1.2,1.2,0,0,1-.39-.2l.1-.21a1.25,1.25,0,0,0,.72.23,1,1,0,0,0,.48-.11.32.32,0,0,0,.19-.3.29.29,0,0,0-.15-.26.84.84,0,0,0-.42-.09h-.36v-.21h.34a.69.69,0,0,0,.38-.09.27.27,0,0,0,.15-.24.32.32,0,0,0-.16-.27.89.89,0,0,0-.43-.09,1.39,1.39,0,0,0-.67.17l-.08-.22a1.68,1.68,0,0,1,.78-.2,1.5,1.5,0,0,1,.44.07.83.83,0,0,1,.3.2.46.46,0,0,1,.11.3.43.43,0,0,1-.11.28.64.64,0,0,1-.3.18A.77.77,0,0,1,65.26,138.42Z"/>
      <path class="a" d="M67.86,138.38H66.1a.78.78,0,0,0,.25.53.89.89,0,0,0,.58.2.84.84,0,0,0,.65-.28l.16.19a1.07,1.07,0,0,1-.35.25,1.25,1.25,0,0,1-1-.05,1,1,0,0,1-.39-.38,1.12,1.12,0,0,1-.14-.55,1.09,1.09,0,0,1,.13-.55,1,1,0,0,1,.37-.38,1,1,0,0,1,.53-.14,1,1,0,0,1,.52.14.94.94,0,0,1,.37.37,1.28,1.28,0,0,1,.13.56Zm-1.52-.72a.77.77,0,0,0-.24.5h1.5a.77.77,0,0,0-.24-.5.73.73,0,0,0-.51-.2A.69.69,0,0,0,66.34,137.66Z"/>
      <path class="a" d="M70.85,137.24v2.1h-.26v-1.66l-.85,1.4h-.13l-.85-1.41v1.67H68.5v-2.1h.28l.9,1.51.9-1.51Z"/>
      <path class="a" d="M73.38,137.24v2.1h-.29v-1.85h-1l0,.52a4.25,4.25,0,0,1-.16,1,.44.44,0,0,1-.42.35l-.21,0,0-.25.1,0a.27.27,0,0,0,.25-.15,1,1,0,0,0,.11-.38c0-.15,0-.35,0-.59l0-.75Z"/>
      <path class="a" d="M74.18,137.24h.29v1.67l1.4-1.67h.25v2.1h-.28v-1.67l-1.4,1.67h-.26Z"/>
    </g>
  </g>
</svg>
