<svg xmlns="http://www.w3.org/2000/svg" width="126.17" height="119.76" viewBox="0 0 126.17 119.76">
  <defs>
    <style>
      .a {
        fill: #fff;
      }
    </style>
  </defs>
  <title>park-2</title>
  <g>
    <path class="a" d="M122.74,79.44c6.08-18.24,4.31-36-7.11-51.44-7.5-10.17-15.5-19.69-27.57-23.43C74.14.25,62.85-1.22,48.45,1.08S19.76,13.62,11.77,25.81C6.13,34.4,2.24,46.85.38,57c-1.65,9,2.34,24.91,6.3,33.12,7.17,14.87,22.31,28.58,20,6.07a6.84,6.84,0,0,1-2.62-9c.8,3.37,1.64,6.85,3.72,9.62s5.76,4.65,9.06,3.57l.3-6.7c5.28,4.38,8,13.07,14.89,13.24A7.2,7.2,0,0,0,56.63,94l8.78-.56c.56-2.25-2.31-3.64-4.51-4.36C51.88,86.17,44,78.43,43,69c-1-9.17,4.51-18.07,11.85-23.66,5.53-4.22,12.45-7,19.38-6.37A21.91,21.91,0,0,1,92.84,54.63a21.92,21.92,0,0,1-8.12,22.94c-2.44,1.76-5.39,3.15-6.78,5.81a3,3,0,0,0-.41,1.89c.39,2.09,3.43,2,5.42,1.26a57.82,57.82,0,0,0,16.28-9.28C99.79,83.4,95.56,89,90.91,93s-10.08,7.46-13.38,12.67a25.39,25.39,0,0,0,13.72-.59c.36,3.64-3.48,6.22-7,7.35s-7.53,2-9.42,5.11a48.83,48.83,0,0,0,48.92-50.35"/>
    <path class="a" d="M58.4,66.06a4.87,4.87,0,0,1,0,2.34,3.07,3.07,0,0,1-1.83,1.66c-3,1.11-6.39-1.34-7.24-4.4s.26-6.34,1.86-9.09C54.78,50.31,62.49,43.93,70,44,63.14,51.11,56.87,54.33,58.4,66.06Z"/>
    <path class="a" d="M33.3,111.21A16,16,0,0,0,50,119.52a2.73,2.73,0,0,0,1.72-.83c1.1-1.43-.88-3.17-2.54-3.87L30.52,107a15.49,15.49,0,0,0,5.61,6.84"/>
  </g>
</svg>
