<svg xmlns="http://www.w3.org/2000/svg" width="135.14" height="148.16" viewBox="0 0 135.14 148.16">
  <defs>
    <style>
      .a {
        fill: #fff;
      }

      .b, .c {
        fill: none;
        stroke-miterlimit: 10;
      }

      .b {
        stroke: #000;
        stroke-width: 0.61px;
      }

      .c {
        stroke: #fff;
        stroke-width: 0.5px;
      }
    </style>
  </defs>
  <title>park-2</title>
  <g>
    <g>
      <path class="a" d="M40.79,9c3-.36,6.24-.27,8.65,1.53,3.39,2.54,3.84,7.43,3.42,11.65s-1.37,8.65.26,12.56C55.84,41.3,64.05,43.07,70,46.89S80,57.1,83.79,63.22l18.8,30.55c2.45,4,5,8.57,3.74,13.07s-6.25,7.64-7,12.37c-.87,5.19,3.65,9.75,4.42,15a4.56,4.56,0,0,1-.45,3.15,5.34,5.34,0,0,1-3.38,1.91c-8.76,2.13-18.61.25-26.43,4.74a29,29,0,0,1-4.67,2.61c-3,1-9.69,2.73-11.79.42,1-4.31,8.56-9.58,12.79-10.89s8.79-1.81,12.59-4.09a4.14,4.14,0,0,0,1.72-1.67,3.92,3.92,0,0,0,0-2.72,12,12,0,0,0-10.54-8.22l-.59,6.86a2.44,2.44,0,0,1-.47,1.5,2.21,2.21,0,0,1-1.48.56c-5.19.5-10.37-2.44-15.5-1.46-3.09.59-5.74,2.54-8.68,3.67s-6.8,1.18-8.71-1.32a19.7,19.7,0,0,1,22.14-9.89c1,.28,2.19.6,3-.06,1.23-1,.25-3-.76-4.19l-2.89-3.47a9.85,9.85,0,0,0-3.33-2.94,3.34,3.34,0,0,0-4,.82c-.73,1.06-.53,2.54-1.18,3.65s-2.09,1.63-3.33,2.17a16,16,0,0,0-9.32,13.23,6.84,6.84,0,0,1-.7,3.37,5.49,5.49,0,0,1-2,1.58l-8.36,4.68c-2.48-1.62-1.86-5.41-.65-8.12a41.85,41.85,0,0,1,6.66-10.48c2.33-2.68,5.1-5.24,6-8.68.38-1.53.36-3.16.89-4.65,1.35-3.77,6-6,6.26-10a26.53,26.53,0,0,1-8-9.45c-3,2.1-7.24-.06-9.55-2.9S25,77.42,22,75.36c-4.38-3-11.26-1.07-13.39,3.76-.54,1.23-.8,2.57-1.39,3.77A7.77,7.77,0,0,1,0,87.13,69.51,69.51,0,0,1,3.46,75,11.57,11.57,0,0,1,6,70.66a12.43,12.43,0,0,1,3.39-2.1l8.32-4a3.33,3.33,0,0,1,1.87-.49,3.74,3.74,0,0,1,2,1.52,20.45,20.45,0,0,0,7.73,5.53,34.37,34.37,0,0,0-1-11.38c1.87-1.18,3.53-3.11,3.4-5.32S28.78,50.34,27,51.7c-.75.58-1.12,1.57-1.93,2.07-2.41,1.49-4.86-2.61-7.7-2.58a7.52,7.52,0,0,1-2.11.09A2.31,2.31,0,0,1,14,48.67a15,15,0,0,1,1.09-3c2-5.29-1.59-11.6.76-16.75.71-1.55,1.9-2.83,2.64-4.36s1-3.55-.23-4.78a12.84,12.84,0,0,0-2.63-1.58,5.06,5.06,0,0,1-.51-7.72c2-1.72,5.14-1.52,7.34-3A5.76,5.76,0,0,0,24.07,0c3.15.08,5.2,4.44,3.26,6.92-2.56,3.26-5.12,7.36,1.45,5.44C32.84,11.18,36.47,9.54,40.79,9Z"/>
      <path class="a" d="M65.64,44a6,6,0,0,0,4-.58c1.62-1,2.13-3.14,2.37-5a39.1,39.1,0,0,0-.73-13.72,8.33,8.33,0,0,1-.37-3.35c.37-2.1,2.49-3.55,4.62-3.77A12.2,12.2,0,0,1,81.66,19C98.48,26.73,108.51,44.38,114.32,62s8.58,36.22,16.51,53c-3-.77-5.2-3.34-7.07-5.84C116.69,99.64,111,89.29,105.3,79a43.57,43.57,0,0,0-1.81,6,58.34,58.34,0,0,1-10.69-22,5.59,5.59,0,0,0-1.12,2.86,23.38,23.38,0,0,1-10.39-9.65c.11,2.55-.08,5.67-2.36,6.83s-5-.57-6.58-2.59-2.76-4.53-5-5.71c-.3,2.29-3.28,3.37-5.45,2.58s-3.64-2.77-5-4.65-2.87-4.1-3.33-6.52C51.67,36.17,61.46,43.51,65.64,44Z"/>
      <path class="b" d="M33.59,36.84a3.48,3.48,0,0,1-6.34.14,14.76,14.76,0,0,1,7.25-.57"/>
      <path class="b" d="M38.7,29.63c1.24.76,3-.21,3.46-1.57a6.22,6.22,0,0,0-.38-4.23,12.45,12.45,0,0,1-1.16-4.16,5.13,5.13,0,0,1,4.7-5c.5.73-.6,1.46-1.06,2.22-.87,1.44.7,3,1.69,4.4A11.34,11.34,0,0,1,47.79,27a9,9,0,0,1-.67,5.14,3.86,3.86,0,0,1-4.36,2.1"/>
      <path class="b" d="M46,35.63,54.71,43a15.21,15.21,0,0,1-12.27-3.76,3.09,3.09,0,0,1-1.1-1.65,1.23,1.23,0,0,1,1-1.48,1.68,1.68,0,0,1,1,.38,10.65,10.65,0,0,1,2.77,2.79"/>
      <path class="b" d="M46.35,97.2A7.75,7.75,0,0,0,47.67,91c-.32-2.14-1.15-4.18-1.68-6.29a23,23,0,0,1,.86-13.81"/>
      <path class="b" d="M57.19,50.56c.11,2.59,2.16,4.66,4.32,6.09A23.27,23.27,0,0,0,73,60.45"/>
      <path class="b" d="M68.32,50.53A27.35,27.35,0,0,0,83,66.22c.38.16,1,.11,1-.29"/>
    </g>
    <path class="c" d="M128.61,60.32c3.47,5.65,7.08,11.91,6.13,18.48a61,61,0,0,1-18.69-24.12L115.74,62c.19-4.64-17.45-13.2-20-14C86.74,45.48,84,43.57,77,36.45c-5.24-5.3-23.07-18.17-16.77-27.1,9.07-12.85,32,5.1,39,11.59C111.26,32.13,120.06,46.4,128.61,60.32Z"/>
  </g>
</svg>
