<svg xmlns="http://www.w3.org/2000/svg" width="137.68" height="158.39" viewBox="0 0 137.68 158.39">
  <defs>
    <style>
      .a {
        fill: #fff;
      }

      .b, .c {
        fill: none;
        stroke-miterlimit: 10;
      }

      .b {
        stroke: #000;
        stroke-width: 0.75px;
      }

      .c {
        stroke: #fff;
        stroke-width: 0.5px;
      }
    </style>
  </defs>
  <title>park-2</title>
  <g>
    <g>
      <g>
        <path class="a" d="M83.27,52.64c.91-.69,1.82-1.39,2.72-2.1"/>
        <path class="a" d="M87.42,52.77c-2-2-3.22-3.38-1.43-2.23,2.24,1.43-2.37-8.83-2.93-11.61-1.78-8.69,11.38-15.4,15.72-15.14,7.1.42,15.67,9.36,17.72,18.57.9,4.06-3.22,14.63-8.78,19.67-3.08,2.8-6.21.5-10.43-2.11-1.46-.9-.63,10.26-2,11.27A13,13,0,0,0,92.94,74c-4.12,5.33-7.33,3.81-11,9.43-1.45,2.19-1.87,4.88-2.25,7.47-1.28,8.63-8.1,19.2-5.6,27.56,1.14,3.82,3,7.42,3.68,11.35.85,5.14-.39,10.94,2.59,15.21,1.16,1.66,2.86,2.89,4.13,4.48s2.06.45,1.08,2.23c-6.15-3.63-13.64-1.52-20.65-.18-1.17.22-2.63.41-3.32-.55s.09-2.5,1.17-3.13,2.4-.8,3.47-1.47c2-1.26,2.6-4,2.14-6.35s-1.74-4.4-2.75-6.56a30.32,30.32,0,0,1-2.86-11.91,34.06,34.06,0,0,0-.37-6.55,27,27,0,0,0-2.93-6.55,62.25,62.25,0,0,1-7.25-30.7c.07-2.43.33-5,1.8-6.93,1.28-1.67,3.26-2.59,5.15-3.5A145.15,145.15,0,0,0,83.27,52.64"/>
        <path class="a" d="M86,50.54c-12.38-.91-24.06-.08-34.29,7-4.79,3.29-10.22,7-13.47,11.85-2.91,4.3-6.36,8.81-8.62,13.48a47.29,47.29,0,0,1-6.34,9.85c-1.71,2.17-3,5.75-4.3,8.16-3.13,5.63-3,12.94.83,18.12s6.81,8.78,12,12.68,5,1.33,8.71,6.43c-8.64-5.94-14.78-2.79-25.53-5.2-4-.9-7.33-6.39-11.59-7.71C2.9,125,.76,126.83.34,127c-.81.35.06,3.2.23,4.06Q2.38,140.76,5,150.28c.24.9.73,2,1.66,2,1.08,0,10.39-1.53,10.91-2.48s-2.64-3.08-4.13-5.27c-1.87-2.74-2.21-3.69-1.06-3.4,2.09.52,9.59,6.48,11.37,7.67,10.87,7.26,21,11.84,33.66,8.51,1.74-.46,3.61-1.14,4.55-2.68,1.06-1.75.57-4,0-6C58.77,138.12,52,124,55.85,126.3c11,6.56,22.45,24.31,32.69,25.07,1.67.13,14.88.62,12.12-5.39-7.58-16.49-17.06-30.06-31.47-41.09a5.33,5.33,0,0,1-1.69-1.75,4.48,4.48,0,0,1-.35-1.85,19.57,19.57,0,0,1,7.61-15.83c3.47-2.62,7.69-4,11.58-5.91s7.71-4.73,9.08-8.85,0-8.31-2.3-11.65a66.71,66.71,0,0,0-5.7-6.28"/>
        <path class="a" d="M90.71,76.88c.23,2.29,4.88,8.94,6.88,11.45a19.62,19.62,0,0,1,3.19,7.21A118,118,0,0,1,105,123.43,123.3,123.3,0,0,1,87.3,97.76c-1.35-2.63-2.64-5.45-2.52-8.41a28.05,28.05,0,0,0-1.72-8.59Z"/>
        <path class="a" d="M122.14,127.05c.42.74-.65,1.44-1.49,1.56-3.91.56-7.78-.91-11.6-1.92-1.71-.46-3.66-.79-5.17.15-1.13.7-1.76,2-2.63,3s-2.36,1.79-3.51,1.11c.14-1.29,1.06-2.33,1.73-3.44a9.72,9.72,0,0,0,.18-9.53,6.29,6.29,0,0,1-.83-1.76,1.54,1.54,0,0,1,.66-1.7,2.12,2.12,0,0,1,1-.13c5.22.07,6,3.76,9.85,6.93a27.88,27.88,0,0,0,5.57,3.59C116.8,125.33,121.78,126.41,122.14,127.05Z"/>
      </g>
      <path class="b" d="M93.56,51.68c-2.61,1-5.32-1.4-6.54-3.92a2.52,2.52,0,0,1-.3-2.1c.48-1,2.1-1,3-.25"/>
      <path class="b" d="M99,50c1.57,2.55,3.92,3.68,6.4,1.45"/>
      <path class="b" d="M92.68,51.73c.6,1,.34,2.19.4,3.32s.83,2.49,1.94,2.27"/>
      <path class="b" d="M73,108.36c0,2.29,1.12,4.42,1.78,6.62,1.74,5.79.42,12,.12,18s.89,12.91,5.9,16.28"/>
      <path class="b" d="M90.7,55.67a8.47,8.47,0,0,0,1.59,5.6,37.18,37.18,0,0,1,3.13,5,5.9,5.9,0,0,1-.2,5.68"/>
      <path class="b" d="M62,100.89c-1.67,6.1-.68,12.62.91,18.75s3.79,12.13,4.55,18.42l0-1.19"/>
      <path class="b" d="M62.87,94.56c.93-6.76,3.88-13.26,3.66-20.08,0-.86-.42-2-1.28-1.91a1.64,1.64,0,0,1,1.26-.2"/>
    </g>
    <path class="c" d="M56.34,55.69c-5.4-9.06-1.35-22.38,8.18-26.9,2.85-1.35,6.1-2,8.43-4.15,3.16-2.87,3.77-7.53,5.58-11.41C83,3.59,95-.54,105.6.37c10.32.89,20.49,5.88,26.5,14.32s7.27,20.38,2.07,29.34c-2.69,4.65-7,8.55-8.14,13.81-.62,2.85-.23,5.81-.41,8.72a22.12,22.12,0,0,1-30.78,19"/>
  </g>
</svg>
