<svg xmlns="http://www.w3.org/2000/svg" width="160.31" height="171.29" viewBox="0 0 160.31 171.29">
  <defs>
    <style>
      .a {
        fill: #fff;
      }

      .b, .c {
        fill: none;
        stroke-miterlimit: 10;
      }

      .b {
        stroke: #000;
        stroke-width: 0.79px;
      }

      .c {
        stroke: #fff;
        stroke-width: 0.5px;
      }
    </style>
  </defs>
  <title>park-2</title>
  <g>
    <g>
      <path class="a" d="M160.28,127.78a8.28,8.28,0,0,0-1.49-3.38C150,111,140.55,110.48,131.06,97.54c-1.25-4.66-3.89-3.53-6.84-7.33-7.34-9.49-14.74-19-23.68-27-2.65-2.36-5.67-5.15-5.42-8.69a15.28,15.28,0,0,1,1.27-4.11c2.26-6,2.14-14.19-2.49-18.6-4.18-4-11.83-4.83-16.85-2S70,39,71.32,44.59c1.18,5.17,5.37,10.22,3.42,15.15-1,2.68-4.45,5.15-6.56,7.1a22.8,22.8,0,0,0-6.27,22.72c.94,3.18,2.58,6.13,3.44,9.33,1.83,6.81,0,14.32,2.53,20.91,3.14,8.29,12.7,14.18,12.33,23-.08,2.06-.65,4.39.66,6a6.48,6.48,0,0,0,2.64,1.6c15.62,6.46,29.13,18.87,45.93,20.71,3.25.35,6.76.23,9.47-1.6,3.54-2.4,4.77-7.19,4.23-11.44S140.6,150,138.86,146s-3.28-8.11-2.83-12.37a3.24,3.24,0,0,1,.57-1.71,3.19,3.19,0,0,1,2.58-.87c2.79,0,5.46,1.09,8.12,1.94s5.53,1.51,8.23.79S160.63,130.55,160.28,127.78ZM113.84,148.2a3.26,3.26,0,0,1-2-.76c-4-2.47-9.34-1.52-13.42-3.82a19.26,19.26,0,0,1-3.91-3.25c-3.67-3.67-7.47-7.55-9-12.52-1.37-4.42-.89-9.56-3.65-13.28a20.39,20.39,0,0,1-2.51-3.32,9.56,9.56,0,0,1-.56-4.06c0-2.45-1.18-9.5.45-11.41,1.5-1.75,4.74,1.54,6.53,2.4,4.51,2.17,10.22,3.47,12.91,8.12,2.93,5.07.78,12.13,4.28,16.82,2,2.65,5.45,4,6.91,7a15.93,15.93,0,0,1,1.08,4.12,32.89,32.89,0,0,0,3.32,9.41,6.33,6.33,0,0,1,.94,2.52A1.89,1.89,0,0,1,113.84,148.2Z"/>
      <path class="b" d="M76.5,43.72a3.92,3.92,0,0,0-2.29-.31c-1.31,2.45.19,6.65,2.9,7.28l.62,2.22a8.47,8.47,0,0,0,1.13,2.72c1.83,2.51,5.7,2.26,8.26,4"/>
      <path class="b" d="M88.57,43.7a5.91,5.91,0,0,0-6.52-2.65A10.68,10.68,0,0,0,84.6,44a3.62,3.62,0,0,0,3.68.46"/>
      <path class="b" d="M86.83,59.28a4.16,4.16,0,0,0,5.86-1.8"/>
      <path class="b" d="M79,96.85A14.55,14.55,0,0,1,83,85"/>
      <path class="b" d="M91,140.44c-1.37,1.71-1.5,4.11-1.2,6.28a48.07,48.07,0,0,1,1,6.5c-.9.28-1.77-.52-2.24-1.34s-.84-1.79-1.67-2.23-1.93-.2-2.91-.29-2.09-1-1.65-1.89"/>
      <path class="a" d="M90.07,97.57c-1.59,2.51-.62,5.92-.5,8.89.14,3.46.53,7.35-1.74,10-.81.94-1.9,1.61-2.73,2.54-.61.69-1,1.94-.16,2.38a1.48,1.48,0,0,0,.69.15c2.57.09,5.2-1.4,7.64-.56,1.54.54,2.64,1.92,4.1,2.65s3.79.33,3.94-1.3a5.45,5.45,0,0,1-3-4.24,16,16,0,0,1,.33-5.37,17.31,17.31,0,0,1,2.21-6.86S92.93,93,90.07,97.57Z"/>
    </g>
    <path class="c" d="M91.84,31.44c-2.12-8.55,2.11-17.54,8-24.08C103.24,3.6,107.68.2,112.73.25s9.65,3.75,12.54,8a30.13,30.13,0,0,1,5.13,17.14c-.07,5.81-1.83,11.56-1.33,17.35.2,2.33.77,4.64.65,7a23.83,23.83,0,0,1-2.14,7.65l-6.13,15.16a14,14,0,0,1-2.18,4c-2.83,3.25-8.17,3.14-11.87.93s-6.15-6-8.46-9.6"/>
    <path class="c" d="M115.91,39.69c.18-3-1.93-5.78-4.59-7.15a17.5,17.5,0,0,0-8.78-1.46,1.11,1.11,0,0,0-1,.36,1.07,1.07,0,0,0,0,.89,8.9,8.9,0,0,0,5.78,5.11,19,19,0,0,0,7.91.46c.3,0,.68-.15.68-.45s-.62,0-.34.08"/>
    <path class="c" d="M118,30.53a12.12,12.12,0,0,0-15-6.6"/>
    <path class="c" d="M124,64.9A24.05,24.05,0,0,1,110.89,58"/>
    <path class="c" d="M.06,129.7,32.41,121c2-.54,4.52-2.14,3.6-4-.59-1.18-2.4-1.51-2.71-2.8s1.19-2.33,2.47-2.81A57.73,57.73,0,0,1,69,109.08"/>
    <path class="c" d="M52.29,113.15c-3.2-.06-6.66,0-9.23,1.87A2.35,2.35,0,0,0,42,116.45c-.22,1.48,1.73,2.19,3.21,2.33s3.44.82,3.26,2.29c-.09.8-.84,1.35-1.54,1.74a13.83,13.83,0,0,1-5.08,1.59"/>
  </g>
</svg>
