<svg xmlns="http://www.w3.org/2000/svg" width="133.02" height="131.32" viewBox="0 0 133.02 131.32">
  <defs>
    <style>
      .a {
        fill: #fff;
      }
    </style>
  </defs>
  <title>park-2</title>
  <g>
    <path class="a" d="M120.8,28.86a69.52,69.52,0,0,1,11,52.44l-8-17.57L123,75.34c-3.66-4.76-11-4.91-15.32-9.11-2.13-2.08-3.26-4.94-4.53-7.63-6-12.6-16.59-19.16-24.76-29.77-2.38-3.1-3.5-6.29-5-9.82-1.59-3.75-6.49-9-7.06-12.71-2-12.87,23.11-2.47,28.39.14A69.38,69.38,0,0,1,120.8,28.86Z"/>
    <path class="a" d="M116.92,49.7C111,29.62,94.67,10.31,73.89,7.77,31.37,2.59,8.79,28.9,2.28,44.85a2,2,0,0,0,.84,1.2c3.31,2.07,9.15-6.23,11.62-7.81a2.34,2.34,0,0,1,1.17-.44c.91,0,1.51,1,1.71,1.88.73,3.18-1.05,6.34-2.77,9.12L4.61,65.4C3.53,67.15,2.3,69,.34,69.67-.49,70,0,87.15,3.81,95c3.22,6.68,7.74,12.87,13.81,17.14s13.77,6.47,21.05,5c-2.75-4.54-7.22-7.72-11.35-11.07s-8.17-7.31-9.51-12.45S19,82.06,24.22,80.92c3.83,8.16,7.73,16.42,13.47,23.36S51.33,116.84,60.28,118c-1.31-7.3-8.58-12.39-10-19.67-1.66-8.44,7-17.12,15.46-15.45a4.35,4.35,0,0,1,2.61,1.3,4.85,4.85,0,0,1,.75,3.36c-.67,15.1-11.6,28.74-10.44,43.82,14.14-7.62,13.67-30,27.06-38.82,2.27-1.5,6-2.14,7.15.32a5.47,5.47,0,0,1-.21,3.87q-3.29,10.47-7.41,20.63c7,.76,13.46-3.87,18.2-9.08A62.48,62.48,0,0,0,116.92,49.7Z"/>
    <path class="a" d="M6,29.68c-.31,1.39-.36,3.16.87,3.88,1.39.82,3-.44,4.22-1.54a39,39,0,0,1,12.07-7.66c2.18-.87,5-2.58,4.11-4.76a41.88,41.88,0,0,0-12,4.19c.49-5.4,5.54-8.81,8-13.19C14.83,10.28,7.54,22.6,6,29.68Z"/>
  </g>
</svg>
