<svg width="109px" height="105px" viewBox="0 0 109 105" version="1.1" xmlns="http://www.w3.org/2000/svg" xmlns:xlink="http://www.w3.org/1999/xlink">
    <g id="Page-1" stroke="none" stroke-width="1" fill="none" fill-rule="evenodd">
        <rect>
            <animate id="animate_1" begin="0;animate_1.end" dur="1800ms" attributeName="visibility" from="hide" to="hide"/>
        </rect>
        <g id="park-2-23" transform="translate(1.000000, 0.000000)" style="opacity: 0">
            <g id="Group">
                <path d="M13.07,1.58 C13.8666461,0.900156169 14.8490511,0.475144064 15.89,0.36 C18.39,0.27 19.89,2.97 20.89,5.29 C25.34,16.29 29.29,28.18 26.68,39.71 C25.14,46.52 25.14,46.52 24.07,56.99 C23.29,64.67 27.5,67.89 26.49,75.55 C25.77,81.05 17.56,93.36 15.14,98.35 C14.56,99.53 13.63,100.91 12.34,100.69 C11.24,100.51 10.71,99.28 10.34,98.23 C7.55631898,89.422229 5.54866255,80.3877751 4.34,71.23 C4.27767648,69.9604612 3.89959222,68.7265317 3.24,67.64 C2.48,66.64 1.24,66.02 0.61,64.9 C-0.17,63.46 0.41,61.69 0.99,60.16 L3.75,53 C4.75184424,50.7948484 5.32535803,48.4193475 5.44,46 C5.34,41.35 3.14,36.94 3,32.19 C2.92710555,29.0294318 3.20209255,25.8704347 3.82,22.77 C5.24,15.08 6.36,6.57 13.07,1.58 Z" id="Path" fill="#FFFFFF" fill-rule="nonzero" opacity="0.6"></path>
                <path d="M7.75,44.64 C7.23428968,44.1690688 6.80157179,43.614649 6.47,43 C5.32762858,41.0605461 4.68184756,38.8690126 4.59,36.62 C4.58608826,36.469304 4.64776516,36.3243268 4.75904793,36.2226374 C4.87033069,36.1209479 5.02026597,36.0725554 5.17,36.09 C6.32,36.26 7.26,37.38 8.17,38.26 C10.59,40.7 14,41.84 16.87,43.73 C17.4810397,44.1473461 18.0269532,44.6528216 18.49,45.23" id="Path" stroke="#000000" stroke-width="0.79"></path>
                <path d="M7.88,44.75 C8.88,45.25 8.88,46.63 9.23,47.67 C9.90024981,49.2066099 11.3352601,50.2724 13,50.47 C14.6283792,50.6558309 16.2767411,50.5542891 17.87,50.17 C18.5278091,50.1176647 19.1531997,49.8626171 19.66,49.44 L10.1,45.83 C9.26679369,45.5628744 8.48305313,45.1608696 7.78,44.64" id="Path" stroke="#000000" stroke-width="0.79" fill="#000000" fill-rule="nonzero"></path>
            </g>
            <g id="Group" transform="translate(27.000000, 51.000000)">
                <path d="M17,16 C16,15.29 13.35,13 13.93,12 C14.2,11.53 15.29,11.84 15.74,11.52 C16.7515116,10.7385524 17.3839235,9.56459221 17.48,8.29 C17.5960054,7.01666152 17.4321794,5.73335745 17,4.53 C16.667371,3.30642119 15.939623,2.22710404 14.93,1.46 C12.87,0.14 9.93,1.52 8.86,3.73 C7.79,5.94 8.24,8.57 9.12,10.86 C8.3,13.27 5.78,14.24 4.35,16.35 C3.16,18.12 2.87,21.42 2.61,23.54 C2.19,26.91 3.38,30.45 4.75,33.54 C4.18283166,33.8093371 3.58979323,34.0204186 2.98,34.17 C1.63,34.77 1.17,36.42 0.87,37.87 C0.73,38.55 0.72,39.47 1.38,39.68 C2.26,39.97 2.74,38.56 3.61,38.23 C3.93722072,38.1397218 4.28277928,38.1397218 4.61,38.23 C7.81,38.76 9.11,40.87 13.36,41.83 C14.5460216,41.9536591 15.7375528,42.017074 16.93,42.02 C18.0925681,41.9964604 19.2346139,41.7092393 20.27,41.18 C21.12,40.75 21.14,39.07 20.63,38.27 C22.4,38.27 24.55,38.01 25.24,36.38 C25.6099504,35.2301319 25.3179652,33.9699853 24.48,33.1 C23.6529604,32.2575948 22.7376944,31.5066072 21.75,30.86 C20.8397388,30.3239774 20.2356265,29.3900125 20.12,28.34 C20.1910701,27.9307331 20.2178912,27.5150064 20.2,27.1 C20.0521874,26.6573424 19.8060286,26.2539156 19.48,25.92 C17.82,23.74 18,16.68 17,16 Z" id="Path" fill="#FFFFFF" fill-rule="nonzero"></path>
                <path d="M11,9.61 C10.5284613,9.52662712 10.1179661,9.23891276 9.87872842,8.82410547 C9.63949072,8.40929818 9.5960245,7.90990199 9.76,7.46 C10.43,7.28 11.03,7.93 11.29,8.56 C11.45845,9.23196687 11.8037379,9.84657924 12.29,10.34 C13.05,10.88 14.22,10.56 14.91,11.18" id="Path" stroke="#000000" stroke-width="0.35"></path>
                <path d="M13.39,4.84 C13.7024359,5.63363089 14.5795881,6.04589244 15.39,5.78 C15.2200716,5.28571092 14.8334116,4.89628314 14.3403471,4.72283357 C13.8472826,4.54938401 13.301968,4.61096301 12.86,4.89" id="Path" stroke="#000000" stroke-width="0.35"></path>
                <path d="M9.25,27.37 C11.04,29.88 14.25,31.03 16.25,33.43 C16.62,33.88 15.76,33.61 16.13,34.06 C15.13,32.82 13.29,32.62 11.68,32.67 C10.07,32.72 8.36,32.94 6.92,32.22" id="Path" stroke="#000000" stroke-width="0.43"></path>
                <path d="M19.9,28.46 C19.2106802,30.2200299 18.9634614,32.1222412 19.18,34" id="Path" stroke="#000000" stroke-width="0.43"></path>
                <g transform="translate(8.000000, 15.000000)" fill="#000000" fill-rule="nonzero" id="Path">
                    <path d="M2.26,5.06 C1.91624592,4.69900878 1.60191067,4.31110571 1.32,3.9 C1.0342642,3.34132306 0.903068911,2.71641916 0.94,2.09 C0.91444448,1.562538 1.06578359,1.04164989 1.37,0.61 C1.82540671,0.0876851866 2.58374258,-0.045648593 3.19,0.29 C3.58598853,0.578507891 3.90529022,0.959609913 4.12,1.4 C4.17752289,1.4932342 4.22130642,1.59427311 4.25,1.7 C4.27034415,1.96534728 4.19200147,2.22886357 4.03,2.44 C3.38038289,3.56573926 2.94948084,4.80415853 2.76,6.09 C2.69726894,5.70527742 2.52347978,5.34727174 2.26,5.06 L2.26,5.06 Z"></path>
                    <path d="M5.49,4 C5.841409,3.77250693 6.13294218,3.46382474 6.34,3.1 C6.46725735,2.72388301 6.50492415,2.32324516 6.45,1.93 C6.53413612,1.44200684 6.37365584,0.943773558 6.02052157,0.59662461 C5.6673873,0.249475662 5.16648375,0.097535018 4.68,0.19 C4.51470343,0.159777561 4.34529657,0.159777561 4.18,0.19 C4.0525641,0.231089571 3.93388004,0.295518059 3.83,0.38 C3.38655979,0.759280806 3.09238065,1.2838412 3,1.86 C2.88023718,2.42158462 2.83984361,2.99719298 2.88,3.57 C2.88,3.99 2.88,6.11 3.37,6.14 C3.63,6.14 4.17,5.29 4.37,5.14 C4.7184321,4.73631251 5.09254219,4.35552188 5.49,4 Z"></path>
                    <path d="M5,5.7 C5.25,5.7 5.51,5.7 5.76,5.64 C6.20518751,5.50795663 6.59055527,5.22511791 6.85,4.84 C7.10981982,4.46293852 7.40084219,4.10835955 7.72,3.78 C8.05492275,3.44538796 8.53975684,3.30902837 9,3.42 C8.69851303,3.2897498 8.43893864,3.0786293 8.25,2.81 C8.07,2.56 7.92,2.25 7.63,2.17 C7.53361375,2.18041283 7.43638625,2.18041283 7.34,2.17 C7.16,2.11 7.07,1.92 6.97,1.76 C6.72,1.35 6.2,1.03 5.79,1.26 C5.38,1.49 5.38,2.05 5.2,2.48 C4.93,3.14 4.2,3.48 3.94,4.19 C3.8457485,4.51440443 3.81185337,4.85335575 3.84,5.19 C3.79962848,5.55221187 3.79962848,5.91778813 3.84,6.28 C4.26,6.22 4.56,5.74 5,5.7 Z"></path>
                    <path d="M9.28,14 C9.61,12.42 9.28,10.59 10.28,9.32 C9.27430877,10.0478121 8.43561179,10.9819706 7.82,12.06 C7.21432908,13.1489011 6.98911404,14.4086977 7.18,15.64 C6.42,13.17 4.18,11.32 3.61,8.78 C3.36723421,7.98165036 3.55656681,7.11450707 4.11,6.49 C4.27126026,6.37695678 4.41310436,6.23848991 4.53,6.08 C4.62,5.91 4.59,5.64 4.41,5.58 C4.29749755,5.56059208 4.18250245,5.56059208 4.07,5.58 C3.82559861,5.53860454 3.60111446,5.41934734 3.43,5.24 C3.25363843,5.06008949 2.97758728,5.02300799 2.76,5.15 C2.59,5.29 2.62,5.55 2.66,5.77 L3.05,8 C3.1238727,8.4838461 3.24443558,8.95939969 3.41,9.42 C3.61469285,9.88109012 3.86599999,10.3200399 4.16,10.73 C5.44,12.73 6.42,14.92 7.76,16.82 C8.44692546,15.9889298 8.96342313,15.0306907 9.28,14 Z"></path>
                    <path d="M7.6,16.43 C8.53036133,18.2507103 9.67152529,19.9557435 11,21.51 C12.07,22.73 13.25,23.86 14.24,25.15 C15.2891061,26.4031459 15.980124,27.916475 16.24,29.53 C16.2112753,30.3304352 16.4051274,31.1231519 16.8,31.82 L15.8,31.1 C16.0042066,29.7952165 15.7722155,28.4595102 15.14,27.3 C14.5078876,26.1520325 13.7535033,25.0757776 12.89,24.09 L8.89,19.21 C8.04,18.21 7.15,17.01 7.23,15.67"></path>
                </g>
            </g>
            <g id="Group" transform="translate(71.000000, 0.000000)">
                <path d="M7.66,5.59 C-0.08,14.78 -1.05,28.39 1.23,40.19 C2.02,44.31 1.11,47.45 1.4,51.64 C1.7,56 0.75,60.33 0.35,64.64 C-0.70568597,76.2429164 2.07675925,87.87157 8.27,97.74 C8.87584298,98.9367217 9.8701322,99.8922266 11.09,100.45 C13.64,101.28 16.93,98.71 18.33,96.45 C20.73,92.55 19.26,87.01 23.08,84.45 C27.26,81.7 25.81,81 26.49,79.2 C27.49,76.54 28.66,76.37 27.92,72.94 C27.7949833,71.8034274 27.7949833,70.6565726 27.92,69.52 C28.44,67.72 31.18,66.89 32.48,65.52 C34.08,63.86 32.71,62.19 31.7,60.12 C29.31,55.2 26.15,50.12 26.58,44.61 C26.79,41.89 30.33,38.69 30.46,36.01 C30.903299,26.1557491 28.9580612,16.3403602 24.79,7.4 C23.38,4.4 22.23,1.03 18.79,0.2 C14.26,-0.78 10.37,2.38 7.66,5.59 Z" id="Path" fill="#FFFFFF" fill-rule="nonzero" opacity="0.6"></path>
                <path d="M21.44,46.45 C21.1988066,47.0068743 21.1258081,47.6221478 21.23,48.22 C21.1435039,50.573495 19.6233642,52.6334231 17.4,53.41 C15.1806331,54.1165465 12.7635436,53.8207999 10.78,52.6 C10.5487549,52.4787122 10.3392419,52.3198878 10.16,52.13 C9.60723732,51.2694985 9.79273791,50.1306111 10.59,49.49 C11.4020594,48.9103258 12.3358134,48.5238269 13.32,48.36 C17.11,47.36 20.09,44.91 23.64,43.69 C24.51,45.45 22.22,45.22 21.44,46.45 Z" id="Path" fill="#000000" fill-rule="nonzero"></path>
                <path d="M26.69,40.47 C27.0484363,40.0699611 27.3389467,39.6139273 27.55,39.12 C27.6236259,38.9157148 27.5868571,38.6879129 27.4526984,38.5171655 C27.3185398,38.3464182 27.1059047,38.2567969 26.89,38.28 C24.83,38.49 22.89,39.28 20.81,39.65 C18.61,40.09 16.34,40.12 14.16,40.65 C11.98,41.18 9.8,42.3 8.78,44.3" id="Path" stroke="#000000" stroke-width="0.79"></path>
            </g>
            <animate attributeType="CSS" attributeName="opacity" from="0" to="1" dur="100ms" begin="animate_1.begin" fill="freeze"/>
            <animate attributeType="CSS" attributeName="opacity" from="1" to="0" dur="100ms" begin="animate_1.begin+600ms" fill="freeze"/>
        </g>
        <g id="park-2-24" transform="translate(3.000000, 4.000000)" style="opacity: 0">
            <g id="Group" transform="translate(25.000000, 47.000000)">
                <path d="M17,15.92 C16,15.2 13.35,12.92 13.93,11.92 C14.2,11.44 15.29,11.75 15.74,11.43 C16.7515116,10.6485524 17.3839235,9.47459221 17.48,8.2 C17.5895093,6.93990745 17.4257822,5.67102267 17,4.48 C16.664013,3.26070139 15.9367176,2.1855691 14.93,1.42 C12.87,0.09 9.93,1.42 8.86,3.68 C7.79,5.94 8.24,8.52 9.12,10.81 C8.3,13.22 5.78,14.19 4.35,16.31 C3.16,18.08 2.87,21.37 2.61,23.49 C2.19,26.87 3.38,30.4 4.75,33.49 C4.18283166,33.7593371 3.58979323,33.9704186 2.98,34.12 C1.63,34.72 1.17,36.38 0.87,37.82 C0.73,38.5 0.72,39.42 1.38,39.63 C2.26,39.92 2.74,38.52 3.61,38.18 C3.93722072,38.0897218 4.28277928,38.0897218 4.61,38.18 C7.81,38.71 9.11,40.82 13.36,41.78 C14.5456256,41.9086251 15.7374195,41.9720539 16.93,41.9700483 C18.0932279,41.9514204 19.236379,41.6639213 20.27,41.13 C21.12,40.7 21.14,39.02 20.63,38.22 C22.4,38.22 24.55,37.96 25.24,36.33 C25.6174679,35.1559901 25.3045305,33.8694698 24.43,33 C23.6053542,32.1579012 22.6897429,31.4099843 21.7,30.77 C20.7915756,30.2272916 20.1886833,29.2915139 20.07,28.24 C20.1410489,27.8340971 20.1678724,27.4216864 20.15,27.01 C20.0025986,26.5642103 19.7564839,26.1574373 19.43,25.82 C17.82,23.69 18,16.63 17,15.92 Z" id="Path" fill="#FFFFFF" fill-rule="nonzero"></path>
                <path d="M11,9.56 C10.5309517,9.47603835 10.1226557,9.18983297 9.88375816,8.777542 C9.64486059,8.36525103 9.59959266,7.86869297 9.76,7.42 C10.43,7.23 11.03,7.88 11.29,8.51 C11.45845,9.18196687 11.8037379,9.79657924 12.29,10.29 C13.05,10.83 14.22,10.51 14.91,11.13" id="Path" stroke="#000000" stroke-width="0.35"></path>
                <path d="M13.39,4.79 C13.7024359,5.58363089 14.5795881,5.99589244 15.39,5.73 C15.2210953,5.2348759 14.8336344,4.84509091 14.3395293,4.67322826 C13.8454242,4.5013656 13.2997072,4.56656697 12.86,4.85" id="Path" stroke="#000000" stroke-width="0.35"></path>
                <path d="M9.25,27.32 C11.04,29.84 14.25,30.98 16.25,33.38 C16.62,33.83 15.76,33.56 16.13,34.01 C15.13,32.77 13.29,32.57 11.68,32.63 C10.07,32.69 8.36,32.89 6.92,32.17" id="Path" stroke="#000000" stroke-width="0.43"></path>
                <path d="M19.9,28.42 C19.2176326,30.1643516 18.9705071,32.0486832 19.18,33.91" id="Path" stroke="#000000" stroke-width="0.43"></path>
                <g transform="translate(8.000000, 15.000000)" fill="#000000" fill-rule="nonzero" id="Path">
                    <path d="M2.26,5 C1.9163794,4.64245476 1.60203514,4.25788466 1.32,3.85 C1.02908559,3.27879178 0.897798713,2.63963199 0.94,2 C0.915972971,1.47271903 1.06717113,0.952316076 1.37,0.52 C1.82736765,0.00117020512 2.583088,-0.131703703 3.19,0.2 C3.58598853,0.488507891 3.90529022,0.869609913 4.12,1.31 C4.17752289,1.4032342 4.22130642,1.50427311 4.25,1.61 C4.27034415,1.87534728 4.19200147,2.13886357 4.03,2.35 C3.38038289,3.47573926 2.94948084,4.71415853 2.76,6 C2.69178624,5.62591255 2.5183417,5.27902348 2.26,5 Z"></path>
                    <path d="M5.49,4 C5.841409,3.77250693 6.13294218,3.46382474 6.34,3.1 C6.46678466,2.7272364 6.50445832,2.32995044 6.45,1.94 C6.5329528,1.45142889 6.37252594,0.953093543 6.02012452,0.604674058 C5.6677231,0.256254572 5.16759695,0.101500791 4.68,0.19 C4.51470343,0.159777561 4.34529657,0.159777561 4.18,0.19 C4.0525641,0.231089571 3.93388004,0.295518059 3.83,0.38 C3.39853055,0.748214558 3.10571188,1.25270937 3,1.81 C2.88023718,2.37158462 2.83984361,2.94719298 2.88,3.52 C2.88,3.94 2.88,6.06 3.37,6.09 C3.63,6.09 4.17,5.24 4.37,5.09 C4.72004257,4.70347793 5.09411869,4.33942171 5.49,4 Z"></path>
                    <path d="M5,5.66 C5.25,5.66 5.51,5.66 5.76,5.59 C6.20370386,5.4605294 6.58886809,5.18137367 6.85,4.8 C7.10974186,4.41976167 7.40075094,4.06185397 7.72,3.73 C8.05693741,3.39897057 8.5415039,3.26647192 9,3.38 C8.70017087,3.24233648 8.44160064,3.02858509 8.25,2.76 C8.07,2.52 7.92,2.2 7.63,2.13 C7.53,2.13 7.43,2.13 7.34,2.13 C7.25,2.13 7.07,1.87 6.97,1.71 C6.72,1.31 6.2,0.98 5.79,1.21 C5.38,1.44 5.38,2.01 5.2,2.43 C4.93,3.09 4.2,3.48 3.94,4.15 C3.84484134,4.47422819 3.81092927,4.81334887 3.84,5.15 C3.79987578,5.50888198 3.79987578,5.87111802 3.84,6.23 C4.26,6.18 4.56,5.69 5,5.66 Z"></path>
                    <path d="M9.28,14 C9.61,12.42 9.28,10.6 10.28,9.32 C9.26984317,10.0272256 8.42117042,10.9406565 7.79,12 C7.18432908,13.0889011 6.95911404,14.3486977 7.15,15.58 C6.39,13.11 4.15,11.26 3.58,8.73 C3.33549489,7.92854372 3.52482758,7.05761334 4.08,6.43 C4.24126026,6.31695678 4.38310436,6.17848991 4.5,6.02 C4.55137218,5.93803911 4.56759971,5.83885287 4.54502555,5.74479387 C4.52245139,5.65073487 4.46297501,5.56971756 4.38,5.52 C4.26749755,5.50059208 4.15250245,5.50059208 4.04,5.52 C3.79559861,5.47860454 3.57111446,5.35934734 3.4,5.18 C3.21,5.04 2.92,4.93 2.73,5.09 C2.54,5.25 2.59,5.49 2.63,5.71 L3.05,8 C3.1238727,8.4838461 3.24443558,8.95939969 3.41,9.42 C3.61682091,9.88317001 3.86799227,10.3252316 4.16,10.74 C5.44,12.74 6.42,14.92 7.76,16.82 C8.45161856,15.9920983 8.96864994,15.0328691 9.28,14 L9.28,14 Z"></path>
                    <path d="M7.6,16.38 C8.53036133,18.2007103 9.67152529,19.9057435 11,21.46 C12.07,22.69 13.25,23.82 14.24,25.1 C15.28742,26.3542086 15.9782167,27.8670532 16.24,29.48 C16.2112753,30.2804352 16.4051274,31.0731519 16.8,31.77 L15.8,31.06 C16.0064711,29.7519651 15.7744151,28.4123696 15.14,27.25 C14.510258,26.1036509 13.7556715,25.0304612 12.89,24.05 L8.89,19.17 C8.04,18.17 7.15,16.96 7.23,15.62"></path>
                </g>
            </g>
            <g id="Group" transform="translate(58.000000, 0.000000)">
                <path d="M32.09,34.31 C31.54,38.08 30.53,41.81 30.64,45.61 C30.75,49.41 31.94,52.91 32.36,56.61 C33.36,65.2 30.15,73.61 27.02,81.7 L22.83,92.47 C22.09,94.35 21.21,96.4 19.38,97.26 C16.38,98.68 13.09,96.06 10.97,93.51 C3.39,84.4 -2,72.34 0.76,60.84 C1.61,57.32 3.19,53.95 3.38,50.33 C3.54,47.15 2.6,44.03 2.1,40.88 C1.01367756,33.2493471 2.10562761,25.4670364 5.25,18.43 C7.79,12.53 17.65,-6.76 25.25,2.95 C31.75,11.26 33.56,24.17 32.09,34.31 Z" id="Path" fill="#FFFFFF" fill-rule="nonzero" opacity="0.6"></path>
                <path d="M21,1.62 C22.6513296,4.36002315 23.7614099,7.39152689 24.27,10.55 C26.47,23.34 20.41,36.25 21.33,49.18 C21.54,52.18 22.12,55.18 22.5,58.13 C23.4202054,65.3363411 23.1397388,72.6453673 21.67,79.76 C20.67,84.42 19.22,89.09 19.67,93.82 C19.7956237,94.3911588 19.7468512,94.9868801 19.53,95.53 C19.25,96.03 18.43,96.27 18.1,95.79" id="Path" stroke="#000000" stroke-width="0.79"></path>
                <path d="M6.87,46.22 C6.54143607,46.0379209 6.34262699,45.6870677 6.3552819,45.3116387 C6.36793681,44.9362097 6.5899208,44.5995406 6.93,44.44 L11.84,42.64 C13.25,42.12 18.42,41.64 19.44,42.75 C20.07,43.44 20.58,45.67 21.05,46.45 C21.3,46.87 21.53,47.45 21.16,47.79 C20.9537964,47.9401845 20.7050975,48.0207489 20.45,48.02 C17.1879236,48.3276377 13.8987407,48.1727734 10.68,47.56 C9.367124,47.2461346 8.09030544,46.7970698 6.87,46.22 L6.87,46.22 Z" id="Path" fill="#000000" fill-rule="nonzero"></path>
                <path d="M31.33,42.07 C31.4350875,41.0131219 31.298301,39.9461872 30.93,38.95 C30.6199952,38.3211581 30.0368089,37.8708497 29.35,37.73 C28.0371715,37.2811275 26.6731637,36.998919 25.29,36.89" id="Path" stroke="#000000" stroke-width="0.79"></path>
            </g>
            <g id="Group">
                <path d="M2.58,12.54 C-0.28,18.46 0.18,24.37 0.7,30.93 C1.34,38.93 3.8,43.28 2.62,55.04 C2.13,59.8 3.38,64.61 4.62,69.25 C7.62,80.67 13.97,89.37 22.47,97.57 C26.18,101.15 34.89,100.74 39.7,97.83 C45.24,94.47 45.24,94.47 52,88.83 C56.6286825,85.239731 60.1049939,80.372895 62,74.83 C63,71.98 64.42,60.7 64.92,48.57 C65.21,41.67 65.58,31.88 64.74,25.15 C63.44,14.66 57.87,7.88 52.15,5.21 C42.15,0.55 30.99,0.07 20.15,1.85 C14.83,2.62 5.43,6.62 2.58,12.54 Z" id="Path" fill="#FFFFFF" fill-rule="nonzero" opacity="0.6"></path>
                <path d="M18.37,82 C19.13,83.35 20.25,82.41 21.64,81.71 C23.4124675,82.7855843 25.457502,83.3272233 27.53,83.27 C28.72,83.27 29.89,82.99 31.08,82.89 C33.9466642,82.780828 36.8151209,83.0532137 39.61,83.7" id="Path" stroke="#000000" stroke-width="0.89"></path>
                <path d="M19.73,50.76 C20.0239155,47.318344 18.945579,43.9000174 16.73,41.25 C14.65,39.06 11.66,36.65 7.73,37.93 C6.23,38.42 4.64,39.54 3.52,38.43" id="Path" stroke="#000000" stroke-width="0.89"></path>
                <path d="M31.38,47.16 C31.09,44 33.05,41 35.67,39.27 C38.4090482,37.6715582 41.500744,36.7749664 44.67,36.66 C47.8,36.4 58.57,39.47 60.67,38.43" id="Path" stroke="#000000" stroke-width="0.89"></path>
                <path d="M6.85,43.59 C5.48,43.59 3.29,43.3 3.91,44.52 C4.08,44.84 4.39,46.58 4.61,46.93 C4.86313928,47.4422032 5.08358062,47.9699264 5.27,48.51 C6.10603364,50.0003989 7.51501844,51.0842334 9.17,51.51 C18.89,54.58 16.97,49 16.89,48.1 C16.44,43.48 11.59,43.57 6.85,43.59 Z" id="Path" fill="#000000" fill-rule="nonzero"></path>
                <path d="M54.31,45.08 C54.8417339,45.0113889 55.3686507,45.2377125 55.6849835,45.670589 C56.0013163,46.1034654 56.056889,46.6742328 55.83,47.16 C54.48,50.16 53.7,49.97 50.01,51.72 C47.76,52.79 43.43,53.11 40.26,53.13 C36.09,53.13 32.55,51.48 35.17,47.54 C36.89,44.96 41.51,44.1899447 44.31,44.1899447 C48.17,44.18 51.08,45.53 54.31,45.08 Z" id="Path" fill="#000000" fill-rule="nonzero"></path>
                <path d="M27.15,73.67 C27.7229511,72.7149618 28.6898094,72.063065 29.79,71.89 C30.2016119,71.8596475 30.6079642,71.7790487 31,71.65 C32.24,71.1 32.12,69.32 31.79,68" id="Path" stroke="#000000" stroke-width="0.89"></path>
                <path d="M20.19,62.11 L18.89,68.24 C18.7165647,68.8540206 18.6622544,69.4955619 18.73,70.13 C19,71.78 20.73,72.72 22.23,73.42" id="Path" stroke="#000000" stroke-width="0.89"></path>
            </g>
            <animate attributeType="CSS" attributeName="opacity" from="0" to="1" dur="100ms" begin="animate_1.begin+600ms" fill="freeze"/>
            <animate attributeType="CSS" attributeName="opacity" from="1" to="0" dur="100ms" begin="animate_1.begin+1200ms" fill="freeze"/>
        </g>
        <g id="park-2-25" style="opacity: 0">
            <g id="Group" transform="translate(28.000000, 51.000000)">
                <path d="M17,15.87 C16,15.16 13.35,12.87 13.93,11.87 C14.2,11.39 15.29,11.7 15.74,11.39 C16.75301,10.6054385 17.3854429,9.42780474 17.48,8.15 C17.5902757,6.89317095 17.4265076,5.62738 17,4.44 C16.667371,3.21642119 15.939623,2.13710404 14.93,1.37 C12.87,0.05 9.93,1.42 8.86,3.63 C7.79,5.84 8.24,8.48 9.12,10.76 C8.3,13.17 5.78,14.15 4.35,16.26 C3.16,18.03 2.87,21.32 2.61,23.44 C2.19,26.82 3.38,30.36 4.75,33.44 C4.18107825,33.7050814 3.58846348,33.9160121 2.98,34.07 C1.63,34.66 1.17,36.32 0.87,37.77 C0.73,38.44 0.72,39.36 1.38,39.58 C2.26,39.86 2.74,38.46 3.61,38.13 C3.93722072,38.0397218 4.28277928,38.0397218 4.61,38.13 C7.81,38.67 9.11,40.78 13.36,41.73 C14.5456256,41.8586251 15.7374195,41.9220539 16.93,41.9200483 C18.091832,41.8999104 19.2339131,41.6160999 20.27,41.09 C21.12,40.65 21.14,38.97 20.63,38.17 C22.4,38.17 24.55,37.91 25.24,36.28 C25.601802,35.1211341 25.2896769,33.8572202 24.43,33 C23.6081872,32.1518991 22.6922597,31.4003688 21.7,30.76 C20.7893538,30.2195932 20.1856691,29.2825857 20.07,28.23 C20.1413639,27.8241348 20.1681896,27.4116898 20.15,27 C20.0001498,26.5553427 19.7543444,26.149081 19.43,25.81 C17.82,23.64 18,16.58 17,15.87 Z" id="Path" fill="#FFFFFF" fill-rule="nonzero"></path>
                <path d="M11,9.51 C10.5291536,9.4292942 10.1184613,9.14366094 9.87895751,8.73032369 C9.63945368,8.31698644 9.59587377,7.81863387 9.76,7.37 C10.43,7.18 11.03,7.83 11.29,8.47 C11.4605448,9.13821096 11.8056641,9.74907216 12.29,10.24 C13.05,10.79 14.22,10.46 14.91,11.09" id="Path" stroke="#000000" stroke-width="0.35"></path>
                <path d="M13.39,4.74 C13.7024359,5.53363089 14.5795881,5.94589244 15.39,5.68 C15.2210953,5.1848759 14.8336344,4.79509091 14.3395293,4.62322826 C13.8454242,4.4513656 13.2997072,4.51656697 12.86,4.8" id="Path" stroke="#000000" stroke-width="0.35"></path>
                <path d="M9.25,27.27 C11.04,29.79 14.25,30.94 16.25,33.33 C16.62,33.78 15.76,33.51 16.13,33.96 C15.13,32.72 13.29,32.52 11.68,32.58 C10.07,32.64 8.36,32.84 6.92,32.12" id="Path" stroke="#000000" stroke-width="0.43"></path>
                <path d="M19.9,28.37 C19.2184153,30.1145527 18.9713152,31.9986907 19.18,33.86" id="Path" stroke="#000000" stroke-width="0.43"></path>
                <g transform="translate(8.000000, 15.000000)" fill="#000000" fill-rule="nonzero" id="Path">
                    <path d="M2.26,5 C1.9140137,4.64455909 1.59950223,4.25978441 1.32,3.85 C1.02908559,3.27879178 0.897798713,2.63963199 0.94,2 C0.917473315,1.4728989 1.06853427,0.952968167 1.37,0.52 C1.82927925,0.00458910533 2.58245725,-0.127837796 3.19,0.2 C3.58958463,0.488830787 3.90952764,0.87413849 4.12,1.32 C4.17739681,1.40972717 4.22120433,1.50745163 4.25,1.61 C4.2722923,1.87555145 4.19374475,2.13975686 4.03,2.35 C3.38298869,3.4769298 2.95226285,4.71484265 2.76,6 C2.69507676,5.62482301 2.52118764,5.27704479 2.26,5 L2.26,5 Z"></path>
                    <path d="M5.49,3.91 C5.841409,3.68250693 6.13294218,3.37382474 6.34,3.01 C6.46678466,2.6372364 6.50445832,2.23995044 6.45,1.85 C6.468108,1.36344876 6.30810703,0.887001424 6,0.51 C5.61868132,0.222074678 5.14688121,0.0801799096 4.67,0.11 C4.50427771,0.084908527 4.33572229,0.084908527 4.17,0.11 C4.0425641,0.151089571 3.92388004,0.215518059 3.82,0.3 C3.38823778,0.678971097 3.09892331,1.19409198 3,1.76 C2.88023718,2.32158462 2.83984361,2.89719298 2.88,3.47 C2.88,3.89 2.88,6.02 3.37,6.05 C3.63,6.05 4.17,5.19 4.37,5.05 C4.7184321,4.64631251 5.09254219,4.26552188 5.49,3.91 Z"></path>
                    <path d="M5,5.61 C5.25,5.61 5.51,5.61 5.76,5.54 C6.20370386,5.4105294 6.58886809,5.13137367 6.85,4.75 C7.1122072,4.37160741 7.40306082,4.01389089 7.72,3.68 C8.05693741,3.34897057 8.5415039,3.21647192 9,3.33 C8.69809171,3.1956701 8.43871758,2.98125415 8.25,2.71 C8.07,2.47 7.92,2.15 7.63,2.08 C7.53341477,2.08561139 7.43658523,2.08561139 7.34,2.08 C7.16,2.01 7.07,1.82 6.97,1.66 C6.72,1.26 6.2,0.93 5.79,1.16 C5.38,1.39 5.38,1.96 5.2,2.39 C4.93,3.05 4.2,3.39 3.94,4.1 C3.84484134,4.42422819 3.81092927,4.76334887 3.84,5.1 C3.80027833,5.46224768 3.80027833,5.82775232 3.84,6.19 C4.26,6.13 4.56,5.64 5,5.61 Z"></path>
                    <path d="M9.28,13.93 C9.61,12.34 9.28,10.52 10.28,9.24 C9.26698208,9.97670371 8.41889571,10.9167513 7.79,12 C7.18356949,13.0922671 6.95837609,14.3554614 7.15,15.59 C6.39,13.11 4.15,11.26 3.58,8.73 C3.33749339,7.92846285 3.52661213,7.05851661 4.08,6.43 C4.24286494,6.31093569 4.38480023,6.16562099 4.5,6 C4.55137218,5.91803911 4.56759971,5.81885287 4.54502555,5.72479387 C4.52245139,5.63073487 4.46297501,5.54971756 4.38,5.5 C4.26716304,5.48499919 4.15283696,5.48499919 4.04,5.5 C3.79,5.5 3.6,5.3 3.4,5.16 C3.2,5.02 2.92,4.9 2.73,5.06 C2.54,5.22 2.59,5.46 2.63,5.68 L3.05,7.91 C3.12385447,8.39711037 3.24441003,8.87598388 3.41,9.34 C3.61689062,9.79997345 3.86807566,10.23871 4.16,10.65 C5.44,12.65 6.42,14.83 7.76,16.73 C8.447477,15.9067968 8.96418656,14.9549634 9.28,13.93 Z"></path>
                    <path d="M7.6,16.34 C8.53031697,18.1576452 9.67151405,19.8593714 11,21.41 C12.07,22.64 13.25,23.77 14.24,25.05 C15.2853336,26.3055216 15.975858,27.8177699 16.24,29.43 C16.2096867,30.230597 16.4036434,31.0237415 16.8,31.72 L15.8,31.01 C16.0042066,29.7052165 15.7722155,28.3695102 15.14,27.21 C14.5260495,26.0628954 13.7883184,24.9864786 12.94,24 L8.94,19.12 C8.09,18.12 7.2,16.91 7.28,15.58"></path>
                </g>
            </g>
            <g id="Group" transform="translate(46.000000, 0.000000)">
                <path d="M0.75,55.33 C2.25,44.57 -0.95,33.72 1.54,23.21 C4.11,12.37 14.79,4.65 26.05,1.94 C38.5,-1.06 53.91,2.29 59.59,13.31 C64.47,22.78 60.68,34.02 60.78,44.58 C60.85,51.5 62.65,58.38 61.97,65.27 C61.25,72.53 57.82,79.27 54.45,85.79 C51.08,92.31 47.21,99.25 40.22,101.93 C30.06,105.83 18.83,98.56 12.5,90.03 C2.21,76.16 -0.51,64.42 0.75,55.33 Z" id="Path" fill="#FFFFFF" fill-rule="nonzero" opacity="0.6"></path>
                <path d="M6.43,45.7 C9.98,44.7 13,42.17 16.57,41.21 C22.57,39.57 29.57,43.21 31.81,49.11" id="Path" stroke="#000000" stroke-width="0.8"></path>
                <path d="M59.22,38.29 C56.22,35.94 49.57,38.29 46.87,41.03 C44.17,43.77 43.08,47.8 42.68,51.68" id="Path" stroke="#000000" stroke-width="0.8"></path>
                <path d="M43.72,65.71 C43.9667226,67.1431496 43.9053612,68.6124131 43.54,70.02 C43.1459456,71.4397889 41.8728364,72.437193 40.4,72.48 C39.4298186,72.2675185 38.5182701,71.8441776 37.73,71.24 C36.9190739,70.6418509 35.8411645,70.5491275 34.94,71 C34.6,71.24 34.34,71.62 33.94,71.74 C33.33,71.91 32.72,71.33 32.6,70.74 C32.5308129,70.1010505 32.6344183,69.4552432 32.9,68.87" id="Path" stroke="#000000" stroke-width="0.8"></path>
                <path d="M19.71,47.22 C15.85,48.02 12.14,49.79 8.2,49.8 C7.51,50.8 8.9,52 10.07,52.36 C13.7,53.5 24.13,56.08 27.12,52.88 C31.94,47.71 22.83,46.58 19.71,47.22 Z" id="Path" fill="#000000" fill-rule="nonzero"></path>
                <path d="M45.35,50.71 C45.0010043,50.760714 44.6454885,50.6825006 44.35,50.49 C43.85,50.09 44.04,49.27 44.35,48.7 C45.6349808,46.5836864 47.7061139,45.062698 50.11,44.47 C52.4737339,43.9136033 54.9121347,43.7447389 57.33,43.97 C58.3706456,45.0321307 58.5171243,46.6810623 57.68,47.91 C56.8373195,49.0667463 55.6343748,49.910918 54.26,50.31 C52.3367394,50.9907966 50.2966792,51.2798051 48.26,51.16" id="Path" fill="#000000" fill-rule="nonzero"></path>
                <path d="M28.5,83.07 C31.41,84.26 34.6,81.73 37.71,82.07 C38.4092626,82.2254863 39.123664,82.3026283 39.84,82.3 C41.46,82.14 42.84,80.42 44.43,80.9 C44.8283394,81.1016476 45.2474845,81.2592462 45.68,81.37 C46.12,81.37 46.68,81 46.47,80.58" id="Path" stroke="#000000" stroke-width="0.8"></path>
            </g>
            <g id="Group" transform="translate(0.000000, 2.000000)">
                <path d="M1.56,32.75 C1.22517749,34.6999747 1.0346605,36.6719927 0.99,38.65 C0.99,40.26 1.68,41.78 1.99,43.36 C2.83,47.85 0.59,52.36 0.69,56.93 C0.85,63.79 4.17,66.71 5.52,73.44 C6.07,76.22 7.93,79.09 8.43,81.87 C9.0865323,84.8034768 10.0937768,87.6472638 11.43,90.34 L14.43,97.06 C15.18,98.74 16.32,100.69 18.16,100.700044 C20,100.71 21,99 21.8,97.47 C24.68,91.8 24.8,83.72 25.94,77.47 C26.5883363,74.4592583 26.790498,71.3695531 26.54,68.3 C25.82,61.51 23.73,56.9 25.35,50.3 C25.89,48.11 26.02,46.11 26.76,43.98 C27.7703197,40.6239471 28.2064555,37.1213366 28.05,33.62 C27.9877332,24.2539035 26.6418724,14.9405465 24.05,5.94 C23.54,4.18 22.91,2.32 21.45,1.21 C14.92,-3.74 9.45,8.42 7.25,12.84 C4.22,18.89 3.34,26.24 1.56,32.75 Z" id="Path" fill="#FFFFFF" fill-rule="nonzero" opacity="0.6"></path>
                <path d="M16.81,95.07 C15.42,89.93 16.53,84.49 16.48,79.16 C16.39,68.83 11.91,58.7 13.25,48.46 C14.25,41.1 11.92,31.55 11.6,24.14 C11.28,16.73 12,9 15.85,2.63 C16.3173307,1.56211547 17.2570214,0.774107159 18.39,0.5" id="Path" stroke="#000000" stroke-width="0.79"></path>
                <path d="M13.56,46.52 C17.12,47.6 20.86,45.81 24.15,44.07 C24.67,43.8 25.26,43.18 24.87,42.74 C22.9593482,42.8757111 21.0409722,42.6240093 19.23,42 C17.7225374,41.2856256 16.1294756,40.7680485 14.49,40.46 C14.01,40.46 13.34,40.64 13.49,41.11 C13.83,42.82 13.32,44.74 13.56,46.52 Z" id="Path" fill="#000000" fill-rule="nonzero"></path>
                <path d="M1,42 C0.860717988,40.8516216 1.22541474,39.6991799 2,38.84 C2.19602534,38.6703798 2.41481136,38.5290103 2.65,38.42 L5.12,37.08" id="Path" stroke="#000000" stroke-width="0.79"></path>
            </g>
            <animate attributeType="CSS" attributeName="opacity" from="0" to="1" dur="100ms" begin="animate_1.begin+1200ms" fill="freeze"/>
            <animate attributeType="CSS" attributeName="opacity" from="1" to="0" dur="100ms" begin="animate_1.begin+1800ms" fill="freeze"/>
        </g>
    </g>
</svg>
