<svg xmlns="http://www.w3.org/2000/svg" width="152.55" height="55.9" viewBox="0 0 152.55 55.9">
  <defs>
    <style>
      .a {
        fill: #fff;
      }
    </style>
  </defs>
  <title>Asset 64</title>
  <g>
    <g>
      <path d="M81.11,0h4.57V13l9.5-13H99.5V19.9H95V7L85.46,19.9H81.11Z"/>
      <path d="M106.52,19.27a6.22,6.22,0,0,1-2.71-2.4,6.67,6.67,0,0,1-1-3.59,8.71,8.71,0,0,1,1.2-4.55,8.5,8.5,0,0,1,3.32-3.19,10,10,0,0,1,4.81-1.16,8.32,8.32,0,0,1,4.22,1,6.38,6.38,0,0,1,2.66,2.85l-3.75,1.88A3.51,3.51,0,0,0,111.89,8a4.33,4.33,0,0,0-4,2.42,5.58,5.58,0,0,0-.58,2.59,3.37,3.37,0,0,0,.93,2.49,3.61,3.61,0,0,0,2.62.92,4.18,4.18,0,0,0,3.75-2.05l3.27,2.05a7.48,7.48,0,0,1-3,2.7,10,10,0,0,1-8.37.11Z"/>
      <path d="M128,14.1h-2.3v5.8h-4.44V4.61h4.44v5.94h2.39l4.15-5.94H137l-5.35,7.33,5.72,8h-5.23Z"/>
      <path d="M150.64,6.07a6.48,6.48,0,0,1,1.91,5.1V19.9H148.4V18c-.84,1.43-2.39,2.14-4.67,2.14a7.18,7.18,0,0,1-3-.6,4.58,4.58,0,0,1-2-1.65,4.33,4.33,0,0,1-.68-2.39,4,4,0,0,1,1.6-3.35,8.19,8.19,0,0,1,5-1.22h3.52a2.84,2.84,0,0,0-.88-2.24,3.89,3.89,0,0,0-2.64-.78,7.65,7.65,0,0,0-2.41.39,6.4,6.4,0,0,0-2,1l-1.59-3.09a9.43,9.43,0,0,1,3-1.37,13.46,13.46,0,0,1,3.59-.48A8,8,0,0,1,150.64,6.07Zm-3.78,10.55a2.89,2.89,0,0,0,1.25-1.55V13.5h-3c-1.82,0-2.73.6-2.73,1.79a1.58,1.58,0,0,0,.67,1.35,2.93,2.93,0,0,0,1.83.5A3.87,3.87,0,0,0,146.86,16.62Z"/>
      <path d="M104,32.1h-2.13v5.8H97.45V32.1H95.32l-3.24,5.8H86.85l4.8-7.9-4.46-7.39h4.69l3.38,5.94h2.19V22.61h4.38v5.94H104l3.41-5.94h4.69L107.63,30l4.83,7.9H107.2Z"/>
      <path d="M129.6,31.45H117.89q.23,3.12,4,3.12a6.75,6.75,0,0,0,2.24-.37,5.48,5.48,0,0,0,1.86-1.05l1.85,2.93a9.12,9.12,0,0,1-2.93,1.54,11.7,11.7,0,0,1-3.47.51,9.62,9.62,0,0,1-4.14-.84,6.27,6.27,0,0,1-2.73-2.4,6.87,6.87,0,0,1-1-3.61,9.2,9.2,0,0,1,1.15-4.57,8.36,8.36,0,0,1,3.2-3.18,9.33,9.33,0,0,1,4.66-1.15,8.51,8.51,0,0,1,3.86.82A6,6,0,0,1,129,25.56a6.93,6.93,0,0,1,.9,3.56A12.11,12.11,0,0,1,129.6,31.45Zm-9.86-4.91a4.49,4.49,0,0,0-1.53,2.32h7.59a3,3,0,0,0-.93-2.32,3.54,3.54,0,0,0-2.49-.84A4.17,4.17,0,0,0,119.74,26.54Z"/>
      <path d="M80.77,40.61h4.4v6h6.65v-6h4.44V55.9H91.82V50.19H85.17V55.9h-4.4Z"/>
      <path d="M102,40.61h4.43l-1.9,9.29,9.24-9.29H118l-3,15.29h-4.47l1.94-9.32-9.24,9.32H99Z"/>
      <path d="M134.29,40.61V55.9h-3.95V51.52h-3.27l-2.9,4.38h-4.71l3.49-5a5.24,5.24,0,0,1-2.43-1.81,4.81,4.81,0,0,1-.84-2.86,4.9,4.9,0,0,1,1.95-4.16A8.71,8.71,0,0,1,127,40.61Zm-9.36,4.12a1.86,1.86,0,0,0-.73,1.65,2,2,0,0,0,.7,1.66,3.5,3.5,0,0,0,2.12.52h3.32V44.22h-3.27A3.71,3.71,0,0,0,124.93,44.73Z"/>
    </g>
    <g>
      <path class="a" d="M.34,0H4.92V13L14.41,0h4.32V19.9H14.19V7L4.69,19.9H.34Z"/>
      <path class="a" d="M25.76,19.27A6.25,6.25,0,0,1,23,16.87a6.75,6.75,0,0,1-.95-3.59,8.8,8.8,0,0,1,1.19-4.55,8.59,8.59,0,0,1,3.33-3.19,9.91,9.91,0,0,1,4.8-1.16,8.32,8.32,0,0,1,4.22,1,6.33,6.33,0,0,1,2.66,2.85l-3.75,1.88A3.49,3.49,0,0,0,31.13,8a4.33,4.33,0,0,0-4,2.42,5.58,5.58,0,0,0-.58,2.59,3.33,3.33,0,0,0,.94,2.49,3.56,3.56,0,0,0,2.61.92,4.21,4.21,0,0,0,3.76-2.05l3.26,2.05a7.39,7.39,0,0,1-3,2.7,9.38,9.38,0,0,1-4.25,1A9.3,9.3,0,0,1,25.76,19.27Z"/>
      <path class="a" d="M47.25,14.1H44.94v5.8H40.51V4.61h4.43v5.94h2.39l4.15-5.94H56.2l-5.34,7.33,5.71,8H51.34Z"/>
      <path class="a" d="M69.88,6.07a6.51,6.51,0,0,1,1.9,5.1V19.9H67.63V18Q66.37,20.14,63,20.13a7.2,7.2,0,0,1-3.06-.6,4.55,4.55,0,0,1-2-1.65,4.26,4.26,0,0,1-.69-2.39,4,4,0,0,1,1.61-3.35,8.14,8.14,0,0,1,5-1.22h3.52a2.84,2.84,0,0,0-.88-2.24,3.87,3.87,0,0,0-2.64-.78,7.54,7.54,0,0,0-2.4.39,6.34,6.34,0,0,0-2,1L57.82,6.23a9.63,9.63,0,0,1,3-1.37,13.53,13.53,0,0,1,3.6-.48A8,8,0,0,1,69.88,6.07ZM66.09,16.62a2.85,2.85,0,0,0,1.25-1.55V13.5h-3c-1.82,0-2.73.6-2.73,1.79a1.61,1.61,0,0,0,.67,1.35,3,3,0,0,0,1.84.5A3.84,3.84,0,0,0,66.09,16.62Z"/>
      <path class="a" d="M23.2,32.1H21.06v5.8H16.69V32.1H14.56l-3.25,5.8H6.08L10.89,30,6.42,22.61h4.7l3.38,5.94h2.19V22.61h4.37v5.94h2.17l3.41-5.94h4.69L26.86,30l4.84,7.9H26.44Z"/>
      <path class="a" d="M48.84,31.45H37.13c.15,2.08,1.46,3.12,3.95,3.12a6.69,6.69,0,0,0,2.23-.37,5.48,5.48,0,0,0,1.86-1.05L47,36.08a9,9,0,0,1-2.93,1.54,11.65,11.65,0,0,1-3.47.51,9.55,9.55,0,0,1-4.13-.84,6.17,6.17,0,0,1-2.73-2.4,6.78,6.78,0,0,1-.95-3.61A9.1,9.1,0,0,1,34,26.71a8.26,8.26,0,0,1,3.19-3.18,9.35,9.35,0,0,1,4.67-1.15,8.47,8.47,0,0,1,3.85.82,6,6,0,0,1,2.53,2.36,6.92,6.92,0,0,1,.89,3.56A12,12,0,0,1,48.84,31.45ZM39,26.54a4.49,4.49,0,0,0-1.53,2.32H45a3,3,0,0,0-.92-2.32,3.57,3.57,0,0,0-2.49-.84A4.2,4.2,0,0,0,39,26.54Z"/>
      <path class="a" d="M0,40.61H4.41v6h6.65v-6h4.43V55.9H11.06V50.19H4.41V55.9H0Z"/>
      <path class="a" d="M21.26,40.61H25.7L23.79,49.9,33,40.61h4.18l-3,15.29H29.71l1.93-9.32L22.4,55.9H18.19Z"/>
      <path class="a" d="M53.53,40.61V55.9h-4V51.52H46.31l-2.9,4.38H38.69l3.5-5a5.14,5.14,0,0,1-2.43-1.81,4.81,4.81,0,0,1-.84-2.86,4.91,4.91,0,0,1,1.94-4.16,8.73,8.73,0,0,1,5.36-1.46Zm-9.37,4.12a1.88,1.88,0,0,0-.72,1.65A2,2,0,0,0,44.13,48a3.52,3.52,0,0,0,2.12.52h3.33V44.22H46.31A3.75,3.75,0,0,0,44.16,44.73Z"/>
    </g>
  </g>
</svg>
