<?xml version="1.0" encoding="UTF-8"?>
<svg width="167px" height="128px" viewBox="0 0 167 128" version="1.1" xmlns="http://www.w3.org/2000/svg" xmlns:xlink="http://www.w3.org/1999/xlink">
    <title>Group</title>
    <g id="Page-1" stroke="none" stroke-width="1" fill="none" fill-rule="evenodd">
        <g id="Group" fill="#FFFFFF" fill-rule="nonzero">
            <polygon id="Path" points="27.1 0.2 0.2 127.3 9.4 127.3 34.4 8.8 44.2 8.8 19.2 127.3 28.4 127.3 55.2 0.2"></polygon>
            <path d="M123.3,16.9 C124.6,11.1 123.9,6.8 121.5,4 C119.4,1.6 116.2,0.3 112,0.3 L108.8,0.3 L107.2,0.3 C103.6,0.3 99.7,0.3 99.7,0.3 L72.8,127.4 L82,127.4 L88.5,96.6 L92.5,96.6 C101.5,96.6 107.6,90.8 109.9,80.5 L123.3,16.9 Z M101.1,79.8 C99.5,86.9 96.3,87.9 93.7,87.9 L90.3,87.9 L107,8.8 L110.9,8.8 C112.3,8.8 113.5,9.1 114,9.8 C115,10.8 115,13 114.5,16.2 L101.1,79.8 Z" id="Shape"></path>
            <path d="M81.8,0.2 C78.5,0.2 74.3,0.2 73.1,0.2 C72.9,0.2 72.7,0.2 72.7,0.2 L34.5,127.3 L43.7,127.3 L49.4,108.6 L59.5,108.6 L57.3,127.3 L66.5,127.3 L82.2,0.2 C82.2,0.2 82.1,0.2 81.8,0.2 Z M60.6,100.1 L52.1,100.1 L72.7,22.7 L60.6,100.1 Z" id="Shape"></path>
            <polygon id="Path" points="156.4 0.2 132.4 59.7 145 0.2 135.8 0.2 108.9 127.3 118.1 127.3 132.2 60.7 132.2 127.3 141.5 127.3 141.5 59.9 166.4 0.2"></polygon>
        </g>
    </g>
</svg>