<svg xmlns="http://www.w3.org/2000/svg" width="165.16" height="142.73" viewBox="0 0 165.16 142.73">
  <defs>
    <style>
      .a {
        fill: #fff;
      }

      .b, .c, .d {
        fill: none;
      }

      .b, .c {
        stroke: #000;
        stroke-miterlimit: 10;
      }

      .b {
        stroke-width: 0.42px;
      }

      .c {
        stroke-width: 0.49px;
      }

      .d {
        stroke: #fff;
        stroke-linecap: round;
        stroke-linejoin: round;
        stroke-width: 0.27px;
      }
    </style>
  </defs>
  <title>Asset 30</title>
  <g>
    <g>
      <ellipse class="a" cx="136.66" cy="29.46" rx="28.5" ry="16.39"/>
      <g>
        <path d="M121.6,20.62a.57.57,0,0,1-.16-.39.53.53,0,0,1,.16-.38.54.54,0,0,1,.41-.16.57.57,0,0,1,.4.15.49.49,0,0,1,.16.38.53.53,0,0,1-.16.39.54.54,0,0,1-.4.16A.58.58,0,0,1,121.6,20.62Zm0,1h.83v4.6h-.83Z"/>
        <path d="M124.25,26.16a2.51,2.51,0,0,1-.82-.38l.35-.66a2.41,2.41,0,0,0,.74.34,2.94,2.94,0,0,0,.88.14c.73,0,1.09-.21,1.09-.63a.4.4,0,0,0-.15-.33,1,1,0,0,0-.37-.18c-.14,0-.35-.08-.63-.13a6.19,6.19,0,0,1-.91-.19,1.49,1.49,0,0,1-.6-.39,1,1,0,0,1-.25-.75,1.19,1.19,0,0,1,.52-1,2.35,2.35,0,0,1,1.4-.37,3.62,3.62,0,0,1,.92.11,2.56,2.56,0,0,1,.76.3l-.36.66a2.43,2.43,0,0,0-1.33-.36,1.63,1.63,0,0,0-.81.17.54.54,0,0,0-.28.46.47.47,0,0,0,.16.36,1,1,0,0,0,.39.19c.15,0,.37.09.65.14a6.42,6.42,0,0,1,.89.2,1.45,1.45,0,0,1,.59.37,1.05,1.05,0,0,1,.24.73,1.15,1.15,0,0,1-.53,1,2.58,2.58,0,0,1-1.46.37A3.58,3.58,0,0,1,124.25,26.16Z"/>
        <path d="M133.29,26a1.08,1.08,0,0,1-.45.24,1.71,1.71,0,0,1-.55.09,1.46,1.46,0,0,1-1.08-.38,1.4,1.4,0,0,1-.38-1.07V22.35H130v-.69h.79v-1h.83v1H133v.69h-1.32v2.49a.77.77,0,0,0,.19.57.66.66,0,0,0,.53.2,1,1,0,0,0,.65-.22Z"/>
        <path d="M138.16,22.12a2,2,0,0,1,.51,1.49v2.65h-.83V23.71a1.44,1.44,0,0,0-.32-1,1.24,1.24,0,0,0-.92-.34,1.4,1.4,0,0,0-1.07.4,1.54,1.54,0,0,0-.39,1.13v2.37h-.84V19.82h.84v2.49a1.68,1.68,0,0,1,.68-.51,2.35,2.35,0,0,1,.94-.18A1.91,1.91,0,0,1,138.16,22.12Z"/>
        <path d="M140.23,20.62a.53.53,0,0,1-.16-.39.49.49,0,0,1,.16-.38.54.54,0,0,1,.41-.16.57.57,0,0,1,.4.15.49.49,0,0,1,.16.38.53.53,0,0,1-.16.39.54.54,0,0,1-.4.16A.58.58,0,0,1,140.23,20.62Zm0,1h.83v4.6h-.83Z"/>
        <path d="M142.88,26.16a2.51,2.51,0,0,1-.82-.38l.35-.66a2.41,2.41,0,0,0,.74.34,2.93,2.93,0,0,0,.87.14c.73,0,1.1-.21,1.1-.63a.4.4,0,0,0-.15-.33,1,1,0,0,0-.37-.18l-.63-.13a6.19,6.19,0,0,1-.91-.19,1.49,1.49,0,0,1-.6-.39,1,1,0,0,1-.25-.75,1.19,1.19,0,0,1,.52-1,2.35,2.35,0,0,1,1.4-.37,3.62,3.62,0,0,1,.92.11,2.56,2.56,0,0,1,.76.3l-.36.66a2.43,2.43,0,0,0-1.33-.36,1.63,1.63,0,0,0-.81.17A.54.54,0,0,0,143,23a.47.47,0,0,0,.16.36.89.89,0,0,0,.39.19l.64.14a6.61,6.61,0,0,1,.9.2,1.45,1.45,0,0,1,.59.37A1.05,1.05,0,0,1,146,25a1.15,1.15,0,0,1-.53,1,2.58,2.58,0,0,1-1.46.37A3.58,3.58,0,0,1,142.88,26.16Z"/>
        <path d="M152.47,22.08a1.82,1.82,0,0,1,.51,1.4v2.78h-.79v-.6a1.43,1.43,0,0,1-.59.49,2.36,2.36,0,0,1-.92.17,1.91,1.91,0,0,1-1.24-.38,1.19,1.19,0,0,1-.46-1,1.21,1.21,0,0,1,.44-1,2.22,2.22,0,0,1,1.41-.37h1.32v-.16a1.1,1.1,0,0,0-.31-.83,1.34,1.34,0,0,0-.93-.28,2.38,2.38,0,0,0-.79.13,1.89,1.89,0,0,0-.66.36l-.35-.62a2.54,2.54,0,0,1,.85-.44,3.6,3.6,0,0,1,1-.15A2.06,2.06,0,0,1,152.47,22.08Zm-.83,3.38a1.2,1.2,0,0,0,.51-.6v-.65h-1.29c-.7,0-1.06.24-1.06.72a.63.63,0,0,0,.27.54,1.19,1.19,0,0,0,.75.2A1.54,1.54,0,0,0,151.64,25.46Z"/>
        <path d="M123.73,31.9a2.14,2.14,0,0,1,.83.83,2.65,2.65,0,0,1,0,2.45,2,2,0,0,1-.83.83,2.38,2.38,0,0,1-1.2.3,2,2,0,0,1-.9-.19,1.81,1.81,0,0,1-.7-.56v2.38h-.84V31.65h.8v.73a1.82,1.82,0,0,1,.71-.58,2.18,2.18,0,0,1,.93-.19A2.48,2.48,0,0,1,123.73,31.9Zm-.47,3.47a1.46,1.46,0,0,0,.56-.57,1.89,1.89,0,0,0,0-1.69,1.46,1.46,0,0,0-.56-.57,1.5,1.5,0,0,0-.79-.2,1.6,1.6,0,0,0-.79.2,1.53,1.53,0,0,0-.56.57,1.77,1.77,0,0,0-.2.84,1.67,1.67,0,0,0,.2.85,1.38,1.38,0,0,0,.55.57,1.57,1.57,0,0,0,.8.21A1.51,1.51,0,0,0,123.26,35.37Z"/>
        <path d="M126,30.61a.51.51,0,0,1-.16-.38.53.53,0,0,1,.16-.39.54.54,0,0,1,.41-.16.57.57,0,0,1,.4.15.49.49,0,0,1,.16.38.5.5,0,0,1-.16.39.54.54,0,0,1-.4.17A.58.58,0,0,1,126,30.61Zm0,1h.83v4.61H126Z"/>
        <path d="M132.85,31.65v4a2.39,2.39,0,0,1-.6,1.79,2.51,2.51,0,0,1-1.79.57,4.53,4.53,0,0,1-1.24-.17,2.43,2.43,0,0,1-1-.51l.4-.65a2.13,2.13,0,0,0,.8.44,2.9,2.9,0,0,0,1,.16,1.63,1.63,0,0,0,1.2-.38,1.55,1.55,0,0,0,.38-1.16v-.37a1.76,1.76,0,0,1-.72.54,2.42,2.42,0,0,1-.94.18,2.49,2.49,0,0,1-1.19-.29,2,2,0,0,1-.84-.79,2.23,2.23,0,0,1-.3-1.16,2.25,2.25,0,0,1,.3-1.16,2,2,0,0,1,.84-.78,2.49,2.49,0,0,1,1.19-.28,2.4,2.4,0,0,1,1,.19,1.89,1.89,0,0,1,.74.56v-.71Zm-1.59,3.49a1.39,1.39,0,0,0,.57-.53,1.56,1.56,0,0,0,.2-.78,1.44,1.44,0,0,0-.44-1.08,1.8,1.8,0,0,0-2.29,0,1.44,1.44,0,0,0-.44,1.08,1.56,1.56,0,0,0,.2.78,1.39,1.39,0,0,0,.57.53,1.76,1.76,0,0,0,1.63,0Z"/>
        <path d="M138.58,34.23h-3.73a1.45,1.45,0,0,0,.53,1,1.74,1.74,0,0,0,1.14.37,1.69,1.69,0,0,0,1.32-.56l.47.54a2,2,0,0,1-.78.56,2.68,2.68,0,0,1-1,.19,2.74,2.74,0,0,1-1.3-.3,2.2,2.2,0,0,1-.87-.84A2.46,2.46,0,0,1,134,34a2.43,2.43,0,0,1,.3-1.2,2.16,2.16,0,0,1,.83-.84,2.33,2.33,0,0,1,1.18-.3,2.3,2.3,0,0,1,1.18.3,2,2,0,0,1,.81.84A2.6,2.6,0,0,1,138.6,34C138.6,34,138.59,34.13,138.58,34.23Zm-3.26-1.55a1.42,1.42,0,0,0-.47,1h3a1.49,1.49,0,0,0-.47-1,1.43,1.43,0,0,0-1-.37A1.41,1.41,0,0,0,135.32,32.68Z"/>
        <path d="M140.5,36a2.15,2.15,0,0,1-.86-.83,2.54,2.54,0,0,1,0-2.43,2.15,2.15,0,0,1,.86-.83,2.67,2.67,0,0,1,2.46,0,2.26,2.26,0,0,1,.85.83,2.54,2.54,0,0,1,0,2.43A2.26,2.26,0,0,1,143,36a2.6,2.6,0,0,1-2.46,0Zm2-.63a1.4,1.4,0,0,0,.56-.57,1.89,1.89,0,0,0,0-1.69,1.4,1.4,0,0,0-.56-.57,1.5,1.5,0,0,0-.79-.2,1.53,1.53,0,0,0-.8.2,1.38,1.38,0,0,0-.55.57,1.81,1.81,0,0,0,0,1.69,1.38,1.38,0,0,0,.55.57,1.54,1.54,0,0,0,.8.21A1.51,1.51,0,0,0,142.52,35.37Z"/>
        <path d="M149.13,32.12a2,2,0,0,1,.51,1.49v2.65h-.83V33.7a1.46,1.46,0,0,0-.32-1,1.23,1.23,0,0,0-.92-.33,1.45,1.45,0,0,0-1.07.39,1.54,1.54,0,0,0-.39,1.13v2.38h-.84V31.65h.8v.7a1.64,1.64,0,0,1,.69-.55,2.3,2.3,0,0,1,1-.19A1.91,1.91,0,0,1,149.13,32.12Z"/>
        <path d="M152.09,33.72a1.77,1.77,0,0,1,.29-.44,4.79,4.79,0,0,1,.45-.44,4,4,0,0,0,.51-.52.89.89,0,0,0,.16-.54.82.82,0,0,0-.33-.68,1.45,1.45,0,0,0-.91-.26,1.86,1.86,0,0,0-1.56.69l-.63-.45a2.36,2.36,0,0,1,.93-.72,3.2,3.2,0,0,1,1.32-.26,2.43,2.43,0,0,1,1.5.42,1.3,1.3,0,0,1,.56,1.13,1.54,1.54,0,0,1-.12.63,1.71,1.71,0,0,1-.28.46c-.11.12-.26.26-.44.43a3.27,3.27,0,0,0-.53.57,1,1,0,0,0-.17.6H152A1.49,1.49,0,0,1,152.09,33.72ZM152,36.15a.58.58,0,0,1-.16-.4.55.55,0,0,1,.16-.39.54.54,0,0,1,.41-.16.54.54,0,0,1,.4.16.54.54,0,0,1,.15.39.54.54,0,0,1-.16.4.53.53,0,0,1-.39.16A.54.54,0,0,1,152,36.15Z"/>
      </g>
      <polygon class="a" points="116.3 33.06 104.88 40.65 118.48 38.01 116.3 33.06"/>
    </g>
    <g>
      <path class="a" d="M145.26,118.29a14.35,14.35,0,0,0-3.74-2.89l-4.23-2.55a56.07,56.07,0,0,0-8.79-2.54,2.89,2.89,0,0,1-2-1.31c-3.63-5.53-4.69-17.39-7.55-23.32-3.56-7.38-6.59-2.55-9.59-17.68A38.76,38.76,0,0,0,97.84,47.23c-3.1-2.88-9.59-6.15-13.27-8.26a20.45,20.45,0,0,1-2.82-2.62c-1.69-2-1-4.31,1.43-5.26a15.3,15.3,0,0,0,4.06-2.28C91.18,25.65,94,19,94.1,13.93c0-1.78-3.27-10.38-14.19-12.57-3.63-.73-9.65.83-12.68,3.2-3.45,2.68-3.25,6.13-4.93,8.6-.53.78-3.45,3-3.92,3.81s-.41,1.11-.2,2.13c.31,1.5.58,1.73-.48,3.2-.48.65-.24.81.24,1.84.26.57-.31,1-.08,1.62a4.69,4.69,0,0,1,.46,2.13,26,26,0,0,0-.27,2.74,2.26,2.26,0,0,0,.29,1.26,2.22,2.22,0,0,0,1,.7,16.27,16.27,0,0,0,4.72,1A3.2,3.2,0,0,1,67,36.1v0a5.82,5.82,0,0,0,.59,1.44C67.86,39.48,56.47,41,53,43.37c-4.49,3.05-4.38,5.94-5.8,11.17-.82,3-2,7-2.72,5.93-.37-.52-3.13-5.92-4.81-8.67-1.89-3.12-3.5-9.51-5.73-13.67a12.36,12.36,0,0,0-3.73-3.82C25.83,31.8,18,29.6,13,29.71c0,1.4,1.89,4.41,2.88,5.4,2.69,2.68,6.72,4.15,10.38,5.56.91.36,2.69,4,2.83,5,1.48,10,2.75,17.05,6,26.62.9,2.62,2,5.36,4,7.26-7.83-5.73-16.26-10.38-25.76-11.72a2.85,2.85,0,0,0-1.69.12,2.94,2.94,0,0,0-1,1c-1.48,2.12-5.21,4.58-6.19,7L5,77a1.9,1.9,0,0,0,.17,1.66c1.36,3.15,2.29,6.11,3.65,9.26,4.25,9.85,17.41,30.26,17.32,31.94s-13.44,10.21-10.86,11c8,2.53,15.31-1.66,20.06-5.17a87.18,87.18,0,0,0-2.11,10.08,3,3,0,0,0,.06,1.6,2.67,2.67,0,0,0,1.38,1.22c3.57,1.79,10.67,5.08,14.47,3.86,7.26-2.33,21.52-5.66,35.87-22.14,8.68-10,21-11.83,20.58-12.56s-5.2-2.63-6.12-2.47c-5.29.91-7.82-.77-10.44-.47a3,3,0,0,0-2,.82c3.85-5.1,3.94-7.53,5.28-12.56,2.59-9.69,3-26,2.59-25,1.4,1.65,3.44,7.1,4.73,8.82,3.22,4.28,2,8.84,4.27,13.7,3.87,8.29,8.24,16.49,15,22.64a14,14,0,0,1,1.79,1.9c2.63,3.41,8.25,5.22,9.36,5.42,5,.88,9.18-.53,14.29-.36a1.43,1.43,0,0,0,1.15-.29C146,119.5,145.65,118.77,145.26,118.29Zm-103-37a3.55,3.55,0,0,0,1.91-.79c2.49-1.75,5.54-2.52,7-5.21,0,0,1.36,3.37-1.37,7.89-1.09,1.79-1.42,3.33-3.16,2.15-2.89-2-3.42-2.71-5.58-4.36A2.68,2.68,0,0,0,42.24,81.3Z"/>
      <path class="b" d="M65.34,16.12a2.24,2.24,0,0,1,.57-1.79A1.75,1.75,0,0,1,67.27,14c1.57.08,3.72-.55,5.09.52a.57.57,0,0,1,0,.74c-1.42,1.56-4,3.27-5.72,2.39-.84-.43-1.92-1.1-2.51-.14"/>
      <path class="c" d="M67.89,32.24c2.17-1,5.31-.3,6.64-.51,2.74-.44,4.92-4.08,5.67-4.21,2.27-.38,6.17-1.27,6.17-4.31,0-1.84-2.9-2-3.53-1.7"/>
      <path class="c" d="M85.46,108c-.92.84-2.56,4.48-8.9,5.88-8.26,1.82-18.34,15.45-21.75,14.54"/>
    </g>
    <g>
      <path class="a" d="M17.26,13.14a.48.48,0,0,0,.64-.1c.17-.18.14-.23.25-.45a3.61,3.61,0,0,0,.1-2.61,24.37,24.37,0,0,0-1-2.48,13.59,13.59,0,0,1-.83-2.65,7.9,7.9,0,0,0-.84-2.77A5.8,5.8,0,0,0,13.1.24a1.39,1.39,0,0,0-1-.2,1.17,1.17,0,0,0-.48.35,10,10,0,0,0-2,3.44,22.23,22.23,0,0,0-.38,14.43c0-.1-.15,0-.13.12.3,1.82,1.89,3.13,3.48,4.07.62.37,1.27.72,1.93,1a3,3,0,0,0,1.05.32,2.55,2.55,0,0,0,1.35-.42,6.51,6.51,0,0,0,3-4.31,6.79,6.79,0,0,0-1.14-5.15,4.19,4.19,0,0,0-2.53-1.8c-.07,0-.1-.07-.09,0a.46.46,0,0,0,.11.16C16.57,12.58,17,12.86,17.26,13.14Z"/>
      <path class="a" d="M23,5.35A12.27,12.27,0,0,1,25.21,3.9a.58.58,0,0,1,.28-.07.47.47,0,0,1,.29.28,4.23,4.23,0,0,1-.26,3.63,24.53,24.53,0,0,0-1.63,3.39,7.2,7.2,0,0,1-.42,1.29A4.28,4.28,0,0,1,21,14.12c.73.28,1.63-.14,2.29.27a1.71,1.71,0,0,1,.41,2.06,11.22,11.22,0,0,0-.87,2.1c-.08.49,0,1-.12,1.48-.33,1.29-1.93,1.83-2.56,3a2.36,2.36,0,0,1-.51.83,1.33,1.33,0,0,1-.61.26,5.8,5.8,0,0,1-6.27-8.63c.44-.72,1-1.35,1.43-2.09a14.28,14.28,0,0,1,1.09-2.09A17.42,17.42,0,0,1,18.7,8.61Z"/>
      <path class="a" d="M6.49,17.66c.27.3.74.19,1.1,0a.35.35,0,0,1,.2-.05c.11,0,.16.17.18.29.06.38.69,1.66.8,2,.31,1.07,1.67,3.29,2,2.9a21.39,21.39,0,0,0-.25-2.9,4.2,4.2,0,0,0-1.4-3,3.31,3.31,0,0,0-1.6-.41C7,16.52,5.92,17,6.49,17.66Z"/>
      <path class="d" d="M.14,17a1.3,1.3,0,0,1,1-1.06,3.5,3.5,0,0,1,1.51,0,9.48,9.48,0,0,1,4.17,1.4c-.54-.61-.8-1.54-1.34-2.14a1,1,0,0,0-.34-.28.47.47,0,0,0-.59.35"/>
    </g>
  </g>
</svg>
