<svg xmlns="http://www.w3.org/2000/svg" width="116.55" height="116.55" viewBox="0 0 116.55 116.55">
  <defs>
    <style>
      .a, .c, .e, .f, .g {
        fill: none;
        stroke-miterlimit: 10;
      }

      .a {
        stroke: #1d1d1d;
        stroke-width: 0.24px;
      }

      .b {
        fill: #1d1d1d;
      }

      .c, .e, .f, .g {
        stroke: #fff;
      }

      .c {
        stroke-width: 0.25px;
      }

      .d {
        fill: #fff;
      }

      .e {
        stroke-width: 0.25px;
      }

      .f {
        stroke-width: 0.16px;
      }

      .g {
        stroke-width: 0.15px;
      }
    </style>
  </defs>
  <title>Asset 40</title>
  <g>
    <g>
      <circle class="a" cx="58.28" cy="58.28" r="58.15"/>
      <ellipse class="a" cx="58.28" cy="58.16" rx="23.99" ry="25.85" transform="matrix(0.73, -0.69, 0.69, 0.73, -24.02, 55.81)"/>
      <ellipse class="a" cx="60.15" cy="57.78" rx="25.85" ry="5.06" transform="translate(-22.91 50.23) rotate(-38.65)"/>
      <line class="a" x1="32.13" y1="32.55" x2="83.82" y2="84.24"/>
      <circle class="b" cx="58.28" cy="58.16" r="7.64"/>
      <circle class="b" cx="39.84" cy="74.03" r="3.29"/>
      <circle class="b" cx="76.17" cy="42.01" r="3.29"/>
      <circle class="b" cx="52.77" cy="69.08" r="1.03"/>
      <line class="a" x1="104.94" y1="12.12" x2="11.61" y2="105.44"/>
      <line class="a" x1="104.94" y1="105.44" x2="11.61" y2="12.12"/>
      <line class="a" x1="58.28" y1="104.92" x2="58.28" y2="12.64"/>
      <line class="a" x1="12.13" y1="58.78" x2="104.42" y2="58.78"/>
      <polygon points="96.64 14.56 103.7 18.25 100.92 18.71 100.7 21.3 96.64 14.56"/>
      <polygon points="20.61 102.58 13.55 98.9 16.34 98.44 16.56 95.85 20.61 102.58"/>
    </g>
    <g>
      <path d="M12.86,47.16c-.4,2.79.08,5.76-1,8.36a16.78,16.78,0,0,1-3.39,4.55,2.39,2.39,0,0,0-.84,1.7,1.92,1.92,0,0,0,.4.91c.78,1.12,2.06,2.13,1.93,3.49a4.73,4.73,0,0,0-.19,1.57c.15.59.79,1,1,1.52.31.83-.36,1.75-.19,2.62.13.61.64,1.07.89,1.64.55,1.29-.33,2.89.31,4.13a2.41,2.41,0,0,0,1.76,1.19,5.55,5.55,0,0,0,2.18-.14,10.94,10.94,0,0,0,6-3.18c.83-.94,2.66-16.71,3-19.74.29-2.31,1.14-12.15-.86-13.9-1.74-1.53-5.11-2.76-7.41-1.8C14.32,41,13.16,45.07,12.86,47.16Z"/>
      <path class="c" d="M14.52,52.34a5.8,5.8,0,0,1-1-2.84c0-.22,0-.5.21-.59s.54.26.65.56a5.33,5.33,0,0,0,1.94,2.43c.88.61,1.94.93,2.85,1.5.43.26.83.59,1.26.85a5.52,5.52,0,0,0,1.07.51"/>
      <path class="d" d="M14.42,55.91a.81.81,0,0,1-.14.65,2.29,2.29,0,0,0-.33.59.5.5,0,0,0,.18.6.62.62,0,0,0,.3.06,7.08,7.08,0,0,0,1.83-.25,13,13,0,0,0,1.93-.67,2.48,2.48,0,0,0,1.4-1.19c0-.1.05-.23,0-.3a.28.28,0,0,0-.18,0c-.88,0-1.76,0-2.63,0a15.44,15.44,0,0,1-2.15-.43c-.18,0-.49-.07-.59.14S14.34,55.66,14.42,55.91Z"/>
      <path class="c" d="M14.59,52.78a1.73,1.73,0,0,1-.14,1.4,1.79,1.79,0,0,1-.84.52,1,1,0,0,0,.88.48"/>
      <path class="c" d="M11.78,69.67a3.54,3.54,0,0,0,1.2.47"/>
    </g>
    <g>
      <path d="M105.94,51.42a12.89,12.89,0,0,0-.11,3.16,6.78,6.78,0,0,0,1.35,2.71,24.93,24.93,0,0,0,2.75,3.15,2.55,2.55,0,0,1,1,1.46c.09.83-.65,1.5-1.31,2s-1.37,1.26-1.18,2.08c.11.5.56.92.53,1.44,0,.8-1.18,1.26-1.13,2.06,0,.5.56.88.56,1.39s-.45.8-.74,1.18a3.22,3.22,0,0,0-.42,2.42,12.48,12.48,0,0,1,.31,2.5,2.17,2.17,0,0,1-1.29,2,2.93,2.93,0,0,1-1.41,0A24.88,24.88,0,0,1,96,75.42a4.79,4.79,0,0,1-1.35-1.18A4,4,0,0,1,94.1,73a20.66,20.66,0,0,1-.52-4.9,46.65,46.65,0,0,0-1.74-10.63c-.85-3,.31-12.29,1.35-13.68a12.42,12.42,0,0,1,3.41-3.48,5.14,5.14,0,0,1,4.26-.5c1.18.4,1.65,1.47,2.26,2.5C104.75,45.06,106.15,48.15,105.94,51.42Z"/>
      <path class="d" d="M95.83,55A2.88,2.88,0,0,0,97.31,56c2.06.9,4.21,1.82,6.46,1.69a10.23,10.23,0,0,1-1-.87c0-.35.9-1.08,1-1.46.34-.81.16-1.08-.7-1.19a9.4,9.4,0,0,0-2.82.42A19.55,19.55,0,0,1,95.83,55Z"/>
      <path class="e" d="M104.1,52.07a2,2,0,0,0-1.33-1.52,4.43,4.43,0,0,0-2.08-.2,10.86,10.86,0,0,0-3.21.83c-1.22.52-2.42,1.29-3.75,1.21"/>
      <path class="e" d="M106.59,69a3.45,3.45,0,0,1-1.66,0"/>
    </g>
    <g>
      <path d="M48.77,102.87a12.3,12.3,0,0,1,3.64.2,9.82,9.82,0,0,1,3.35,1.73,21.86,21.86,0,0,1,3.77,3.55c.25.3.56.63.95.61a.91.91,0,0,0,.47-.18,7.31,7.31,0,0,0,1.56-1.88,2.06,2.06,0,0,1,2.1-1c.38.13.72.44,1.12.4s.56-.32.82-.53a2.51,2.51,0,0,1,2.1-.5,3.6,3.6,0,0,0,.91.19,3.49,3.49,0,0,0,1.43-.62c1.52-.8,3.37-.2,5.08-.4.64-.08,1.37-.37,1.54-1a2,2,0,0,0-.08-1c-.74-2.88-.87-4.37-2.67-6.74s-4.2-3.34-7.15-3.74C66,91.81,57.77,91.5,56,91.25c-13.35-1.91-16.71.34-17.29,2.32a11.86,11.86,0,0,0-.4,4.15C38.46,99.39,46.15,102.82,48.77,102.87Z"/>
      <path class="f" d="M51.09,101.16a.58.58,0,0,0,.74-.31,1.54,1.54,0,0,0,.07-.88A17.14,17.14,0,0,0,51,96.1,9,9,0,0,1,50.39,94a2.22,2.22,0,0,1,.71-2"/>
      <path class="d" d="M53.89,101.23l.37-.83a.31.31,0,0,1,.12-.17.33.33,0,0,1,.22,0,4.28,4.28,0,0,1,1.26.55,11.35,11.35,0,0,0-2.37-6.21C52.79,96.43,54.75,99.28,53.89,101.23Z"/>
      <path class="f" d="M67.54,104.16a1.4,1.4,0,0,0,.34-1"/>
    </g>
    <g>
      <path d="M49,10.65c1.31-.1,1.32.17,2.63,0A10.76,10.76,0,0,0,57.42,8,13.85,13.85,0,0,0,59.51,5.8c.38-.51.8-1.09,1.43-1.16,1.47-.15,2,2.53,3.51,2.38C65,7,65.45,6.5,66,6.53a1.72,1.72,0,0,1,.81.35c1,.72,2.08,1.77,3.25,1.4.54-.18,1-.66,1.59-.53s.83.86,1.29,1.28c1.18,1.09,3.48-.24,4.56,1A2.1,2.1,0,0,1,78,11c.45,2-1.52,6.09-2.7,7.74-3.92,5.49-13.5,6.89-17.79,5.7-2.48-.7-4.61.53-7.2.55-10.25.09-11.74-5.64-11.74-7.79C38.53,14.88,41.15,11.21,49,10.65Z"/>
      <path class="d" d="M67.59,11.87a31.09,31.09,0,0,0-.47,3.71,5.33,5.33,0,0,1,1.23-3.22A6.73,6.73,0,0,0,69.81,9.2a3.33,3.33,0,0,1-2.67-.54A5.14,5.14,0,0,1,67.59,11.87Z"/>
      <path class="g" d="M48.86,12.64a6.46,6.46,0,0,0-.65,3.94,13.28,13.28,0,0,0,1.2,3.87"/>
      <path class="d" d="M53,19.51c.06.23.15.49.38.56s.42.25.52,0a3.11,3.11,0,0,0,.16-1.05,14,14,0,0,1,.81-4.75c.51-1.42,1.22-1.94-.49-1.6C52.93,13,52.09,12,52.2,14A28.1,28.1,0,0,0,53,19.51Z"/>
    </g>
  </g>
</svg>
