<svg xmlns="http://www.w3.org/2000/svg" width="625.93" height="345.95" viewBox="0 0 625.93 345.95">
  <defs>
    <style>
      .a {
        fill: #1f1f1f;
      }

      .b {
        fill: #b5b5b5;
      }

      .c {
        fill: none;
        stroke: #fff;
        stroke-miterlimit: 10;
        stroke-width: 0.25px;
      }

      .d {
        fill: #fff;
      }

      .e {
        fill: #ebebeb;
      }
    </style>
  </defs>
  <title>Asset 39</title>
  <g>
    <rect y="8.13" width="625.93" height="337.83"/>
    <g>
      <circle class="a" cx="87.84" cy="126.58" r="48.28"/>
      <path class="b" d="M136.06,124.33l0-.68c0-.53-.08-1.06-.13-1.59l-.06-.71c-.07-.61-.15-1.23-.24-1.84,0-.11,0-.23,0-.35-.1-.71-.23-1.41-.37-2.12-.05-.22-.1-.43-.14-.65-.11-.5-.22-1-.35-1.48-.06-.25-.12-.5-.19-.74-.13-.5-.27-1-.42-1.49-.06-.2-.11-.4-.17-.6-.21-.65-.43-1.29-.66-1.93-.08-.23-.18-.47-.27-.71-.16-.42-.32-.83-.49-1.25s-.23-.56-.35-.83l-.51-1.13-.38-.81c-.28-.57-.57-1.13-.87-1.69-.15-.28-.32-.57-.48-.85s-.35-.62-.53-.93l-.57-.93-.51-.79-.63-1-.43-.6q-.69-1-1.44-1.92l-.37-.48-.87-1-.4-.47-.94-1-.18-.18a47.49,47.49,0,0,0-3.54-3.41l-.23-.2c-.42-.36-.83-.7-1.26-1h0a46.19,46.19,0,0,0-4.28-3.06l0,0a48.32,48.32,0,0,0-25.82-7.49c-16.09,1.33-34.32,24.89-34.32,51.56,0,20.33,8.64,37.21,26.44,44.32,1.21.1,5.85.61,7.55.68h.33a48.06,48.06,0,0,0,30.32-10.72,49.57,49.57,0,0,0,3.82-3.42,47.57,47.57,0,0,0,3.42-3.82,46.6,46.6,0,0,0,3.28-4.59,43,43,0,0,0,2.13-3.74,48,48,0,0,0,5.31-22C136.12,125.82,136.1,125.08,136.06,124.33Z"/>
    </g>
    <g>
      <circle class="b" cx="140.76" cy="234.83" r="61.76"/>
      <path class="a" d="M128.52,178.76A61.68,61.68,0,0,0,108.74,182a61.76,61.76,0,0,0,51.8,111.32,61.77,61.77,0,0,0-32-114.58Z"/>
    </g>
    <g>
      <circle class="b" cx="544.12" cy="200.84" r="57.44"/>
      <path class="a" d="M601.57,200.84a57.46,57.46,0,0,0-45.15-56.11l-.37.05c-12.12-2.13-26.38,21.48-31.87,52.73-5.23,29.86-.55,55.87,10.45,60a58.24,58.24,0,0,0,9.49.79A57.45,57.45,0,0,0,601.57,200.84Z"/>
    </g>
    <g>
      <circle class="a" cx="416.55" cy="105.84" r="46.28"/>
      <path class="b" d="M410.54,65.11c-7.52-.48-15.93.45-17.49,1.13a41.68,41.68,0,0,0-10.8,8.54,46.26,46.26,0,0,0,62.59,67.66,46.1,46.1,0,0,0,12-31.06C456.82,85.82,436.05,66.72,410.54,65.11Z"/>
    </g>
    <g>
      <line class="c" x1="72.34" y1="172.31" x2="67.69" y2="186.38"/>
      <line class="c" x1="106.25" y1="69.76" x2="101.82" y2="83.16"/>
      <g>
        <path class="c" d="M105,73.59a35.21,35.21,0,0,1-6.34-2.78"/>
        <path class="c" d="M118.3,73.74c-.7,2.12-6.66,2.05-13.31-.15"/>
        <path class="c" d="M94.2,65.77c-.7,2.12,4.13,5.61,10.79,7.82"/>
        <path class="c" d="M111.18,67.35c4.67,2.1,7.68,4.69,7.12,6.39"/>
        <polyline class="c" points="114.44 67.59 111.18 67.35 113.36 69.78"/>
      </g>
    </g>
    <g>
      <line class="c" x1="119.35" y1="292.77" x2="112.32" y2="311.97"/>
      <line class="c" x1="166.29" y1="164.64" x2="160.3" y2="180.99"/>
      <g>
        <path class="c" d="M164.91,168.42a35,35,0,0,1-6.24-3"/>
        <path class="c" d="M178.21,169c-.76,2.09-6.72,1.83-13.3-.58"/>
        <path class="c" d="M154.38,160.27c-.77,2.09,4,5.74,10.53,8.15"/>
        <path class="c" d="M171.3,162.39c4.6,2.24,7.53,4.93,6.91,6.61"/>
        <polyline class="c" points="174.55 162.73 171.3 162.39 173.41 164.88"/>
      </g>
    </g>
    <g>
      <line class="c" x1="519.07" y1="252.54" x2="511.38" y2="268.07"/>
      <line class="c" x1="577.65" y1="134.31" x2="567.9" y2="153.99"/>
      <g>
        <path class="c" d="M575.86,137.92a33.63,33.63,0,0,1-5.88-3.63"/>
        <path class="c" d="M589,140c-1,2-6.88,1.08-13.16-2"/>
        <path class="c" d="M566.27,128.68c-1,2,3.31,6.13,9.59,9.24"/>
        <path class="c" d="M582.87,132.62c4.32,2.73,6.94,5.72,6.15,7.33"/>
        <polyline class="c" points="586.06 133.31 582.87 132.62 584.69 135.32"/>
      </g>
    </g>
    <g>
      <line class="c" x1="397.35" y1="147.95" x2="391.87" y2="160.35"/>
      <line class="c" x1="439.92" y1="51.53" x2="432.93" y2="67.35"/>
      <g>
        <path class="c" d="M438.29,55.21a34.19,34.19,0,0,1-6-3.37"/>
        <path class="c" d="M451.53,56.65c-.9,2-6.83,1.39-13.24-1.44"/>
        <path class="c" d="M428.31,46.4c-.9,2,3.57,6,10,8.81"/>
        <path class="c" d="M445.06,49.61c4.44,2.53,7.19,5.4,6.47,7"/>
        <polyline class="c" points="448.28 50.15 445.06 49.6 447 52.23"/>
      </g>
    </g>
    <circle class="d" cx="298.5" cy="161.35" r="67.54"/>
    <path class="c" d="M54.25,139.73a103.64,103.64,0,0,0-10.41,6.74"/>
    <path class="c" d="M277.64,97.09C223.91,98.24,174.53,103.8,134,112.48"/>
    <path class="c" d="M370.69,99.6c-16.53-1.28-33.7-2.13-51.34-2.51"/>
    <path class="c" d="M548.75,143.4c-19.75-13-51.77-24.09-91.93-32.21"/>
    <path class="c" d="M190.16,244.33a897.73,897.73,0,0,0,108.34,6.32c92.59,0,174.39-13,223.59-33"/>
    <path class="c" d="M43.84,146.47C32.43,155,26.19,164.15,26.19,173.76c0,17.34,20.33,33.34,54.62,46.21"/>
    <polygon class="d" points="184.3 103.94 191.61 100.78 190.21 103.24 192.09 105.04 184.3 103.94"/>
    <polygon class="d" points="43.38 200.72 36.07 197.56 38.81 196.9 38.85 194.3 43.38 200.72"/>
    <polygon class="d" points="513.66 126.59 521.6 127.18 519.22 128.71 520.04 131.18 513.66 126.59"/>
    <polygon class="d" points="453.44 236.98 445.5 236.27 447.6 238.17 446.39 240.47 453.44 236.98"/>
    <g>
      <path class="e" d="M47.1,176.12c-.56.9-1.08,1.7-1.55,2.4l-1.22,1.83c-.34.53-.61,1-.8,1.33a2,2,0,0,0-.28.87.56.56,0,0,0,.1.35.42.42,0,0,0,.35.14,1.53,1.53,0,0,0,.78-.26,5.2,5.2,0,0,0,.84-.64c.28-.26.55-.55.82-.85l.73-.87.08,0c-.26.33-.53.66-.81,1a8.77,8.77,0,0,1-.84.87,4.26,4.26,0,0,1-.87.62,1.78,1.78,0,0,1-.86.24.72.72,0,0,1-.61-.24,1,1,0,0,1-.19-.63,1.17,1.17,0,0,1,.1-.47,2,2,0,0,1,.22-.42l0,0q-.24.26-.57.57c-.22.2-.46.4-.7.58A4.59,4.59,0,0,1,41,183a1.83,1.83,0,0,1-.76.18.82.82,0,0,1-.56-.18.65.65,0,0,1-.2-.52,1.9,1.9,0,0,1,.24-.82,9.47,9.47,0,0,1,.59-1q.36-.56.78-1.14c.28-.39.53-.77.77-1.13s.44-.71.6-1a1.86,1.86,0,0,0,.24-.8.37.37,0,0,0-.18-.35.87.87,0,0,0-.4-.09,2.52,2.52,0,0,0-1,.23,3.83,3.83,0,0,0-.93.61,3.39,3.39,0,0,0-.68.84,1.82,1.82,0,0,0-.26.92.84.84,0,0,0,.16.53.68.68,0,0,0,.57.21,1.16,1.16,0,0,0,.37-.07,1.74,1.74,0,0,0,.33-.18,3.08,3.08,0,0,0,.26-.24c.08-.09.14-.18.2-.26l.11,0a2.19,2.19,0,0,1-.54.58,1.7,1.7,0,0,1-.35.19,1.09,1.09,0,0,1-.39.08.84.84,0,0,1-.62-.22.82.82,0,0,1-.22-.63,1.94,1.94,0,0,1,.26-.94,3.44,3.44,0,0,1,.7-.88,3.62,3.62,0,0,1,1-.66,2.75,2.75,0,0,1,1.16-.25,1.06,1.06,0,0,1,.68.2.68.68,0,0,1,.27.59,1.82,1.82,0,0,1-.24.8,11.16,11.16,0,0,1-.58,1c-.24.37-.49.74-.76,1.12s-.53.76-.76,1.11-.43.69-.59,1a1.72,1.72,0,0,0-.23.77.38.38,0,0,0,.38.44,1.75,1.75,0,0,0,.8-.25,6.68,6.68,0,0,0,.86-.6c.28-.24.53-.48.77-.73a7.06,7.06,0,0,0,.54-.62c.32-.44.72-1,1.22-1.83l1.8-2.85Z"/>
      <path class="e" d="M47.26,179.64h.63l-1,1.5H48a.76.76,0,0,1,.08-.11,3.79,3.79,0,0,1,1-1,2.46,2.46,0,0,1,.7-.36,1.9,1.9,0,0,1,.61-.1.91.91,0,0,1,.41.08.77.77,0,0,1,.33.3,1.42,1.42,0,0,1,.08.18c0,.06,0,.11.05.16a.92.92,0,0,1,0,.16.7.7,0,0,0,.28.46.88.88,0,0,0,.49.14,1,1,0,0,0,.56-.16,3.19,3.19,0,0,0,.48-.38l.08.06a2.68,2.68,0,0,1-.53.41,1.25,1.25,0,0,1-.61.17.85.85,0,0,1-.3,0,1,1,0,0,1-.23-.11l-.16-.14-.09-.12h0a3.69,3.69,0,0,1-.35.77,4.1,4.1,0,0,1-.71.88,3,3,0,0,1-.92.61,2.07,2.07,0,0,1-.78.18.83.83,0,0,1-.64-.24.92.92,0,0,1-.23-.69,1.3,1.3,0,0,1,.14-.58,1.79,1.79,0,0,1,.2-.39H46.83l-1.16,1.82h-.62Zm3.48.56a.54.54,0,0,0-.12-.39.36.36,0,0,0-.29-.13,1.17,1.17,0,0,0-.57.18,2.6,2.6,0,0,0-.6.52,4.19,4.19,0,0,0-.8,1.19,2.34,2.34,0,0,0-.22.9.73.73,0,0,0,.1.42.32.32,0,0,0,.3.15,1.51,1.51,0,0,0,.26,0,1.61,1.61,0,0,0,.34-.15,2.17,2.17,0,0,0,.39-.29,3,3,0,0,0,.43-.48,4.18,4.18,0,0,0,.6-1.07A2.6,2.6,0,0,0,50.74,180.2Z"/>
      <path class="e" d="M53.51,179.64h.63l-1,1.5h1.5l1-1.5h.69l-1.26,1.72a7.13,7.13,0,0,0-.41.62,2.22,2.22,0,0,0-.26.52,1,1,0,0,0,0,.23.29.29,0,0,0,.08.24.29.29,0,0,0,.18.07.93.93,0,0,0,.24,0,1.44,1.44,0,0,0,.34-.16,3.34,3.34,0,0,0,.44-.33q.24-.21.57-.54a15.21,15.21,0,0,0,1.25-1.52l.1,0a14.33,14.33,0,0,1-1.29,1.58q-1.08,1.11-1.71,1.11a.74.74,0,0,1-.49-.16.53.53,0,0,1-.17-.41.94.94,0,0,1,0-.22,1.61,1.61,0,0,1,.09-.26,2.05,2.05,0,0,1,.13-.25,1.28,1.28,0,0,1,.16-.26l.23-.34H53.08l-1.16,1.82H51.3Z"/>
      <path class="e" d="M61.08,180.42a2.85,2.85,0,0,1-.47.51c-.18.15-.36.28-.52.39a3.46,3.46,0,0,1-.58.29c-.17.06-.33.1-.49.14a4.09,4.09,0,0,1-.17.45,1.86,1.86,0,0,1-.48.58,1.75,1.75,0,0,1-1.13.38.82.82,0,0,1-.6-.22.78.78,0,0,1-.22-.58,1.83,1.83,0,0,1,.09-.51,1.9,1.9,0,0,1,.33-.6L58,179.64h.66l-.94,1.27a6.62,6.62,0,0,0-.62,1,1.48,1.48,0,0,0-.17.68.53.53,0,0,0,.11.34.38.38,0,0,0,.32.15,1.47,1.47,0,0,0,.38-.07,1.1,1.1,0,0,0,.43-.33,1.53,1.53,0,0,0,.25-.44,3.93,3.93,0,0,0,.1-.44.36.36,0,0,1-.16-.18.64.64,0,0,1-.05-.28.55.55,0,0,1,.12-.4.4.4,0,0,1,.26-.11.35.35,0,0,1,.27.13.62.62,0,0,1,.11.39c0,.08,0,.14,0,.18s0,.08,0,.16a2.59,2.59,0,0,0,.47-.13,4.66,4.66,0,0,0,.5-.25,5.52,5.52,0,0,0,.54-.41,3.55,3.55,0,0,0,.47-.5Z"/>
    </g>
    <g>
      <path class="e" d="M127.62,304.07a.49.49,0,0,0,0,.12v.12a.65.65,0,0,0,.08.35.59.59,0,0,0,.19.22.65.65,0,0,0,.28.12,1.06,1.06,0,0,0,.31,0,1.28,1.28,0,0,0,.55-.14,1.67,1.67,0,0,0,.51-.37,2.1,2.1,0,0,0,.38-.54,1.65,1.65,0,0,0,.14-.65.64.64,0,0,0-.23-.57,1.21,1.21,0,0,0-.62-.14,2.75,2.75,0,0,0-1,.21,5.65,5.65,0,0,0-1.09.6,6.88,6.88,0,0,0-1.08.9,7.82,7.82,0,0,0-.92,1.13,6.38,6.38,0,0,0-.64,1.28,4,4,0,0,0-.24,1.36,2.15,2.15,0,0,0,.07.56,1.73,1.73,0,0,0,.22.5,1.12,1.12,0,0,0,.39.36,1.16,1.16,0,0,0,.58.14,2.07,2.07,0,0,0,.94-.23,2.89,2.89,0,0,0,1.31-1.39,2.16,2.16,0,0,0,.2-.88.76.76,0,0,0-.24-.61.89.89,0,0,0-.63-.21v-.12a1.42,1.42,0,0,1,.93.25,1,1,0,0,1,.31.85,1.92,1.92,0,0,1-.19.78,2.69,2.69,0,0,1-.54.8,3.1,3.1,0,0,1-.89.63,3,3,0,0,1-1.23.25,1.94,1.94,0,0,1-.88-.18,1.84,1.84,0,0,1-.57-.45,1.6,1.6,0,0,1-.31-.59,1.81,1.81,0,0,1-.1-.58,3.39,3.39,0,0,1,.27-1.29,6.62,6.62,0,0,1,.71-1.26,7.93,7.93,0,0,1,1-1.15,11,11,0,0,1,1.19-.93,6.45,6.45,0,0,1,1.23-.62,3.39,3.39,0,0,1,1.13-.23,1.46,1.46,0,0,1,.94.26.91.91,0,0,1,.31.76,1.24,1.24,0,0,1-.17.65,1.53,1.53,0,0,1-.44.51,2.24,2.24,0,0,1-1.34.47,1.15,1.15,0,0,1-.67-.19.72.72,0,0,1-.3-.63v-.13a.57.57,0,0,1,0-.14Z"/>
      <path class="e" d="M133.45,307c-.1.17-.23.35-.37.55s-.33.4-.51.59a8.37,8.37,0,0,1-.62.57,4.41,4.41,0,0,1-.67.49,3.22,3.22,0,0,1-.7.34,2,2,0,0,1-.7.13.88.88,0,0,1-.65-.22.81.81,0,0,1-.23-.61,2.05,2.05,0,0,1,.26-.93,4.12,4.12,0,0,1,.68-.89,3.68,3.68,0,0,1,.9-.68,2,2,0,0,1,.94-.27.63.63,0,0,1,.39.1.38.38,0,0,1,.14.31.63.63,0,0,1-.26.46,2.82,2.82,0,0,1-.64.41,4.79,4.79,0,0,1-.8.33,7.27,7.27,0,0,1-.76.22,2.34,2.34,0,0,0-.18.45,1.73,1.73,0,0,0-.07.5,1.64,1.64,0,0,0,0,.23,1,1,0,0,0,.08.21.44.44,0,0,0,.39.22,1.79,1.79,0,0,0,.78-.22,5.13,5.13,0,0,0,.9-.57,7,7,0,0,0,1.6-1.77Zm-1.62-.53a.29.29,0,0,0-.08-.21.24.24,0,0,0-.18-.07.8.8,0,0,0-.45.16,3,3,0,0,0-.49.41,4.33,4.33,0,0,0-.43.53,3.14,3.14,0,0,0-.3.5,3.81,3.81,0,0,0,.55-.16,3.55,3.55,0,0,0,.63-.28,2.45,2.45,0,0,0,.53-.4A.67.67,0,0,0,131.83,306.51Z"/>
      <path class="e" d="M133.75,306.19h.63l-1,1.5h1.5l1-1.5h.69l-1.26,1.72a7.13,7.13,0,0,0-.41.62,1.41,1.41,0,0,0-.3.75.33.33,0,0,0,.08.24.29.29,0,0,0,.18.07.79.79,0,0,0,.24,0,1.7,1.7,0,0,0,.35-.16,3.32,3.32,0,0,0,.43-.33,6.69,6.69,0,0,0,.57-.54,15.21,15.21,0,0,0,1.25-1.52l.1,0a14.33,14.33,0,0,1-1.29,1.58q-1.08,1.11-1.71,1.11a.74.74,0,0,1-.49-.16.55.55,0,0,1-.17-.41,1,1,0,0,1,0-.22,1,1,0,0,1,.08-.26c0-.07.08-.15.13-.25a2,2,0,0,1,.16-.26l.23-.34h-1.48l-1.16,1.82h-.62Z"/>
      <path class="e" d="M136,309.63c.15-.25.31-.52.5-.81s.39-.59.58-.9.39-.6.58-.9.37-.57.52-.83h.61l-1.32,1.86,0,0c.13-.15.28-.34.46-.57a7.1,7.1,0,0,1,.59-.64,3.49,3.49,0,0,1,.7-.53,1.45,1.45,0,0,1,.76-.22.61.61,0,0,1,.39.12.44.44,0,0,1,.16.37.75.75,0,0,1-.1.34,4.23,4.23,0,0,1-.24.4l-.27.4-.22.31,0,0a8.11,8.11,0,0,1,.5-.64,7.62,7.62,0,0,1,.63-.64,4.88,4.88,0,0,1,.69-.49,1.44,1.44,0,0,1,.69-.19.56.56,0,0,1,.43.14.5.5,0,0,1,.15.39.89.89,0,0,1-.12.4,3.23,3.23,0,0,1-.29.48c-.11.17-.24.34-.37.52l-.38.5-.29.44a.82.82,0,0,0-.11.35.25.25,0,0,0,.07.19.32.32,0,0,0,.19.07,1.2,1.2,0,0,0,.56-.19,4.16,4.16,0,0,0,.7-.53,9,9,0,0,0,.79-.82c.27-.31.55-.66.83-1l.08,0c-.27.37-.55.72-.82,1a8.34,8.34,0,0,1-.8.85,3.52,3.52,0,0,1-.74.56,1.27,1.27,0,0,1-.65.21.56.56,0,0,1-.46-.18.63.63,0,0,1-.15-.43,1.09,1.09,0,0,1,.11-.43,5.11,5.11,0,0,1,.29-.48c.12-.17.25-.34.38-.5l.37-.48a2.91,2.91,0,0,0,.29-.42.64.64,0,0,0,.12-.31.25.25,0,0,0-.08-.2.35.35,0,0,0-.18,0,1.08,1.08,0,0,0-.47.13,3.31,3.31,0,0,0-.57.38q-.29.25-.6.57c-.21.22-.41.45-.61.7s-.38.52-.55.79a8.45,8.45,0,0,0-.45.83h-.64c.19-.33.39-.67.6-1l.61-.93c.19-.28.34-.53.47-.74a1,1,0,0,0,.19-.46c0-.18-.09-.27-.28-.27a1.14,1.14,0,0,0-.56.18,4.39,4.39,0,0,0-.63.48,8.23,8.23,0,0,0-.63.67c-.21.25-.4.5-.59.76s-.34.49-.48.72-.25.43-.33.59Z"/>
      <path class="e" d="M147.34,306.19l-.52.73-.43.63-.37.55-.28.47a2.53,2.53,0,0,0-.25.5,1.25,1.25,0,0,0-.05.26.28.28,0,0,0,.06.18.25.25,0,0,0,.18.08,1.19,1.19,0,0,0,.62-.25,5.44,5.44,0,0,0,.91-.78,9,9,0,0,0,.63-.71,10.93,10.93,0,0,0,.65-.89l.09,0c-.22.32-.44.62-.66.89s-.43.51-.65.75a4.89,4.89,0,0,1-1,.82,1.41,1.41,0,0,1-.7.26.64.64,0,0,1-.44-.14.5.5,0,0,1-.15-.37,1.07,1.07,0,0,1,.12-.48c.08-.16.18-.34.29-.53l.13-.23h0a.48.48,0,0,1-.15.1l-.17.11c-.19.28-.37.51-.52.69a3,3,0,0,1-.44.44,1.66,1.66,0,0,1-1,.41.77.77,0,0,1-.58-.24.83.83,0,0,1-.22-.61.7.7,0,0,1,.14-.44.48.48,0,0,1,.37-.17.36.36,0,0,1,.26.09.3.3,0,0,1,.09.23.35.35,0,0,1-.08.22.25.25,0,0,1-.22.1.32.32,0,0,1-.14,0,.27.27,0,0,1-.1-.11.23.23,0,0,0-.1.12.69.69,0,0,0,0,.13.59.59,0,0,0,.16.41.58.58,0,0,0,.45.18,1.06,1.06,0,0,0,.46-.1,1.94,1.94,0,0,0,.43-.27l.26-.25a3,3,0,0,0,.24-.28l.21-.25.14-.19-.22.08-.29,0a.6.6,0,0,1-.4-.15.54.54,0,0,1-.17-.43,1.23,1.23,0,0,1,.15-.54,2.43,2.43,0,0,1,.44-.57,2.29,2.29,0,0,1,.6-.41,1.4,1.4,0,0,1,.51-.14.61.61,0,0,1,.47.19.85.85,0,0,1,.24.48h0l.33-.59Zm-1.31.53a.54.54,0,0,0-.11-.37.34.34,0,0,0-.27-.12.86.86,0,0,0-.38.12,1.42,1.42,0,0,0-.44.39,1.78,1.78,0,0,0-.28.49,1.41,1.41,0,0,0-.08.39c0,.34.13.51.4.51a.72.72,0,0,0,.39-.13,1.31,1.31,0,0,0,.38-.33,2,2,0,0,0,.28-.47A1.28,1.28,0,0,0,146,306.72Z"/>
      <path class="e" d="M150.19,308.68a3.57,3.57,0,0,1-1,.77,2.19,2.19,0,0,1-1,.26.78.78,0,0,1-.62-.26,1,1,0,0,1-.21-.63,1.52,1.52,0,0,1,.13-.61,3.36,3.36,0,0,1,.34-.61,4.92,4.92,0,0,1,.48-.56,6,6,0,0,1,.55-.47,2.29,2.29,0,0,1,.69-.36,2.26,2.26,0,0,1,.62-.1l.23,0a1,1,0,0,1,.23.11.73.73,0,0,1,.19.2,1,1,0,0,1,.11.31h0l.36-2.75a2.26,2.26,0,0,1,.1-.45,1.07,1.07,0,0,1,.21-.38A.71.71,0,0,1,152,303a1.64,1.64,0,0,1,.37-.05,1.42,1.42,0,0,1,.38.06l.42.14.43.14a1.52,1.52,0,0,0,.42.06.78.78,0,0,0,.28-.05.67.67,0,0,0,.24-.16,1.46,1.46,0,0,0,.16-.19,1.53,1.53,0,0,0,.15-.23l.08.05c-.09.14-.17.28-.25.39a2.42,2.42,0,0,1-.25.31,1,1,0,0,1-.71.3,1.64,1.64,0,0,1-.42-.06,4.71,4.71,0,0,1-.48-.14l-.49-.16a1.56,1.56,0,0,0-.33-.05.39.39,0,0,0-.35.19,1.33,1.33,0,0,0-.17.51l-.36,2.76s0,.12,0,.26a2.47,2.47,0,0,1-.14.51,2.81,2.81,0,0,1-.27.55,3,3,0,0,1-.35.48,4.64,4.64,0,0,0,2.39-1.54l.06.05A4.56,4.56,0,0,1,150.19,308.68Zm.34-1.93a.58.58,0,0,0-.12-.4.45.45,0,0,0-.33-.12,1.13,1.13,0,0,0-.51.17,3.26,3.26,0,0,0-.6.51,4.13,4.13,0,0,0-.81,1.17,2.7,2.7,0,0,0-.23.94.73.73,0,0,0,.1.42.34.34,0,0,0,.3.15,1.41,1.41,0,0,0,.66-.23,2.43,2.43,0,0,0,.76-.72,4.49,4.49,0,0,0,.59-1.08A2.4,2.4,0,0,0,150.53,306.75Z"/>
      <path class="e" d="M155.05,304.25c-.35.54-.72,1.07-1.1,1.59s-.74,1.05-1.09,1.6l0,0c.1-.14.22-.28.35-.44a5.93,5.93,0,0,1,.43-.44,2.45,2.45,0,0,1,.5-.34,1.2,1.2,0,0,1,.55-.13.89.89,0,0,1,.54.17.69.69,0,0,1,.22.59,1.57,1.57,0,0,1-.07.49,2,2,0,0,1-.19.44,1.7,1.7,0,0,1-.26.38,3.11,3.11,0,0,1-.29.33l0,0A3.77,3.77,0,0,0,156,308a4.8,4.8,0,0,0,1.17-1.08l.08,0a6.29,6.29,0,0,1-.84.86,3.87,3.87,0,0,1-.72.46,2.52,2.52,0,0,1-.61.22l-.53.12-.39.31a5.3,5.3,0,0,1-.45.34,2.76,2.76,0,0,1-.5.28,1.24,1.24,0,0,1-.53.12.6.6,0,0,1-.28-.08.25.25,0,0,1-.13-.24.42.42,0,0,1,.2-.35,1.77,1.77,0,0,1,.5-.23,6.19,6.19,0,0,1,.62-.13l.54-.06a2.37,2.37,0,0,0,.26-.37,3.25,3.25,0,0,0,.25-.45,4.24,4.24,0,0,0,.18-.5,1.67,1.67,0,0,0,.07-.47.71.71,0,0,0-.1-.46.33.33,0,0,0-.24-.1.91.91,0,0,0-.49.16,3.24,3.24,0,0,0-.51.43c-.17.18-.35.38-.52.59s-.32.44-.47.65-.28.41-.4.59-.22.33-.3.44l-.26.38-.38.57-.45.69-.46.74-.44.73-.37.63h-.62c.9-1.45,1.82-2.88,2.75-4.31s1.87-2.86,2.78-4.31Zm-2.25,5.34a.65.65,0,0,0,.33-.1,2.25,2.25,0,0,0,.36-.24c.12-.1.23-.19.32-.28l.2-.21,0,0-.43.06-.48.1a1.4,1.4,0,0,0-.41.16.33.33,0,0,0-.16.29.2.2,0,0,0,.09.18A.36.36,0,0,0,152.8,309.59Z"/>
      <path class="e" d="M160.67,307a2.52,2.52,0,0,1-.47.51,5.41,5.41,0,0,1-.52.39,3.12,3.12,0,0,1-.58.29c-.17.06-.33.1-.49.14a2.71,2.71,0,0,1-.17.45,1.76,1.76,0,0,1-.48.58,1.73,1.73,0,0,1-1.13.38.81.81,0,0,1-.6-.22.78.78,0,0,1-.22-.58,1.83,1.83,0,0,1,.09-.51,2.59,2.59,0,0,1,.33-.6l1.15-1.61h.66l-.94,1.27a7.61,7.61,0,0,0-.62,1,1.66,1.66,0,0,0-.17.68.6.6,0,0,0,.11.34.39.39,0,0,0,.32.15,1.47,1.47,0,0,0,.38-.07,1.1,1.1,0,0,0,.43-.33,1.53,1.53,0,0,0,.25-.44,2.33,2.33,0,0,0,.1-.44.36.36,0,0,1-.16-.18.78.78,0,0,1-.05-.28.55.55,0,0,1,.12-.4.42.42,0,0,1,.26-.11.32.32,0,0,1,.27.13.62.62,0,0,1,.11.39.82.82,0,0,1,0,.18,1.1,1.1,0,0,1,0,.16,1.85,1.85,0,0,0,.47-.13,3.89,3.89,0,0,0,.5-.25,5.52,5.52,0,0,0,.54-.41,3.55,3.55,0,0,0,.47-.5Z"/>
    </g>
    <g>
      <path class="e" d="M409,164a5.1,5.1,0,0,1-.75,1.2,4.12,4.12,0,0,1-2.15,1.33,5.66,5.66,0,0,1-1.31.16h-.35l-.23,0-.15,0H404a.33.33,0,0,1-.15,0s-.06,0-.06-.08,0-.09.08-.1H404a1.23,1.23,0,0,1,.27,0l.27,0a3,3,0,0,0,1-.84,7,7,0,0,0,.75-1.22c.22-.45.42-.92.61-1.41a13,13,0,0,1,.63-1.41,6.77,6.77,0,0,1,.8-1.2,2.75,2.75,0,0,1,1.1-.8l0,0a2.28,2.28,0,0,0-.92.38,6,6,0,0,0-1,.77,12.32,12.32,0,0,0-1,1c-.32.39-.63.78-.92,1.19l-.7,1c-.24.33-.48.65-.73,1s-.53.62-.81.92a8.17,8.17,0,0,1-.94.81l-.07-.1a5.55,5.55,0,0,0,.56-1.18c.14-.42.28-.85.4-1.28s.25-.87.38-1.29a6.19,6.19,0,0,1,.48-1.22,4.64,4.64,0,0,1,.74-1.07,3.51,3.51,0,0,1,1.11-.83l0,0a3.88,3.88,0,0,0-1.21.63,7,7,0,0,0-1,.94,8.7,8.7,0,0,0-.87,1.13c-.27.4-.53.81-.77,1.21s-.49.78-.71,1.16a8,8,0,0,1-.7,1,3.22,3.22,0,0,1-.77.68,1.73,1.73,0,0,1-.92.26l-.26,0a.9.9,0,0,1-.23-.08.43.43,0,0,1-.23-.42.34.34,0,0,1,.35-.35.26.26,0,0,1,.21.1.36.36,0,0,1,.08.23.59.59,0,0,1,0,.17.17.17,0,0,1-.11.11s0,.07.12.1a.78.78,0,0,0,.21,0,1.42,1.42,0,0,0,.82-.28,3.62,3.62,0,0,0,.74-.73,10.4,10.4,0,0,0,.73-1l.75-1.21c.3-.49.61-1,.92-1.37a7.38,7.38,0,0,1,1-1.15,5.67,5.67,0,0,1,1.16-.85,4.61,4.61,0,0,1,1.45-.51v.09a2.25,2.25,0,0,0-1,.6,4,4,0,0,0-.71,1,7.09,7.09,0,0,0-.51,1.22c-.14.44-.29.88-.44,1.33s-.31.89-.49,1.33a5.9,5.9,0,0,1-.68,1.2l0,0a9,9,0,0,0,.74-.76c.25-.29.5-.59.74-.91s.47-.63.69-1,.43-.61.63-.87a13.37,13.37,0,0,1,1.43-1.72,7.14,7.14,0,0,1,1.2-1,3.69,3.69,0,0,1,1-.47,3.34,3.34,0,0,1,.85-.12,1,1,0,0,1,.29,0c.09,0,.14.08.14.15a.1.1,0,0,1-.06.1l-.14,0a1.54,1.54,0,0,1-.3,0,1.53,1.53,0,0,0-.3,0,.7.7,0,0,0-.47.2,2.71,2.71,0,0,0-.47.52,5.4,5.4,0,0,0-.45.71c-.15.27-.29.53-.41.78s-.23.5-.32.72l-.21.52c-.11.28-.23.59-.37.91a6.82,6.82,0,0,1-.52.95,5.15,5.15,0,0,1-.76.88,4.17,4.17,0,0,1-1.08.69v0a4.74,4.74,0,0,0,2.57-.66,4.54,4.54,0,0,0,1.67-2Z"/>
      <path class="e" d="M411.65,163.26h.65c-.25.34-.49.68-.71,1s-.43.62-.61.9a6.82,6.82,0,0,0-.42.73,1.17,1.17,0,0,0-.16.5.24.24,0,0,0,.27.26,1.07,1.07,0,0,0,.53-.21,5.05,5.05,0,0,0,.71-.56,11,11,0,0,0,.78-.84c.26-.32.52-.66.76-1l.06,0c-.18.27-.4.56-.64.88a11.09,11.09,0,0,1-.76.89,5.92,5.92,0,0,1-.8.68,1.4,1.4,0,0,1-.75.28.55.55,0,0,1-.43-.15.47.47,0,0,1-.13-.34.86.86,0,0,1,0-.28c0-.09.06-.18.1-.27h0l-.33.32a3.54,3.54,0,0,1-.42.35,4.25,4.25,0,0,1-.46.27,1.18,1.18,0,0,1-.46.11.58.58,0,0,1-.52-.23,1,1,0,0,1-.15-.52,1.89,1.89,0,0,1,.26-.91,4.16,4.16,0,0,1,.66-.93,3.71,3.71,0,0,1,.87-.72,1.64,1.64,0,0,1,.89-.29,1,1,0,0,1,.35,0,.87.87,0,0,1,.25.15.86.86,0,0,1,.15.22,1.06,1.06,0,0,1,.09.25h0Zm-3.27,2.8a.58.58,0,0,0,.09.35.3.3,0,0,0,.27.13.84.84,0,0,0,.4-.13,3,3,0,0,0,.48-.33,5.66,5.66,0,0,0,.49-.49,4.92,4.92,0,0,0,.44-.58,4.58,4.58,0,0,0,.31-.63,1.78,1.78,0,0,0,.12-.61.43.43,0,0,0-.45-.47,1.14,1.14,0,0,0-.67.26,3.32,3.32,0,0,0-.7.66,4.13,4.13,0,0,0-.56.9A2.22,2.22,0,0,0,408.38,166.06Z"/>
      <path class="e" d="M415.8,161.32c-.36.54-.72,1.07-1.1,1.59s-.75,1.05-1.09,1.6l0,0a5.58,5.58,0,0,1,.35-.44,3.57,3.57,0,0,1,.43-.44,2.1,2.1,0,0,1,.5-.34,1.2,1.2,0,0,1,.55-.13.83.83,0,0,1,.54.17.72.72,0,0,1,.22.59,2,2,0,0,1-.07.49,2.17,2.17,0,0,1-.19.44,2.12,2.12,0,0,1-.26.38c-.1.12-.19.23-.29.33l0,0a3.77,3.77,0,0,0,1.3-.49A4.8,4.8,0,0,0,417.9,164l.08,0a6.29,6.29,0,0,1-.84.86,3.87,3.87,0,0,1-.72.46,2.68,2.68,0,0,1-.61.22l-.53.12a4.37,4.37,0,0,0-.39.31,5.3,5.3,0,0,1-.45.34,2.76,2.76,0,0,1-.5.28,1.28,1.28,0,0,1-.53.12.57.57,0,0,1-.28-.08.25.25,0,0,1-.13-.24.4.4,0,0,1,.2-.35,1.65,1.65,0,0,1,.5-.23,5.65,5.65,0,0,1,.62-.13l.54-.06a3.3,3.3,0,0,0,.26-.37,4.79,4.79,0,0,0,.25-.45,4.24,4.24,0,0,0,.18-.5,2.14,2.14,0,0,0,.07-.47.75.75,0,0,0-.1-.46.33.33,0,0,0-.24-.1.89.89,0,0,0-.49.16,3.24,3.24,0,0,0-.51.43,7.54,7.54,0,0,0-.52.59c-.17.22-.33.43-.47.65s-.28.41-.4.59l-.3.44-.26.38c-.12.16-.24.35-.38.57l-.45.69c-.16.24-.31.49-.46.74s-.3.49-.44.73-.27.44-.37.63h-.62c.9-1.45,1.81-2.88,2.75-4.31s1.86-2.86,2.78-4.31Zm-2.25,5.34a.77.77,0,0,0,.33-.1,3.75,3.75,0,0,0,.36-.24l.32-.28.2-.21,0,0-.43.06a3.86,3.86,0,0,0-.49.1,1.34,1.34,0,0,0-.4.16.33.33,0,0,0-.16.29.2.2,0,0,0,.09.18A.34.34,0,0,0,413.55,166.66Z"/>
      <path class="e" d="M416.08,166.7c.14-.25.31-.52.5-.81l.58-.9c.2-.3.39-.6.58-.9s.36-.57.52-.83h.61l-1.32,1.86,0,0c.12-.16.28-.34.46-.57a5.89,5.89,0,0,1,.59-.64,3.49,3.49,0,0,1,.7-.53,1.42,1.42,0,0,1,.76-.22.61.61,0,0,1,.39.12.47.47,0,0,1,.16.37,1,1,0,0,1-.1.34c-.07.13-.15.26-.24.4l-.27.4a2.7,2.7,0,0,0-.22.31l0,0a6.28,6.28,0,0,1,.5-.64,7.62,7.62,0,0,1,.63-.64,4,4,0,0,1,.69-.49,1.44,1.44,0,0,1,.69-.19.57.57,0,0,1,.43.14.5.5,0,0,1,.15.39.93.93,0,0,1-.12.4,4.38,4.38,0,0,1-.29.48l-.37.52c-.14.17-.26.34-.38.5s-.21.31-.29.44a.7.7,0,0,0-.11.35.25.25,0,0,0,.07.19.29.29,0,0,0,.19.07,1.24,1.24,0,0,0,.56-.19,4.78,4.78,0,0,0,.7-.53,10.56,10.56,0,0,0,.79-.82c.27-.31.55-.66.83-1l.08,0c-.28.37-.55.72-.82,1a11.26,11.26,0,0,1-.8.85,4.24,4.24,0,0,1-.74.56,1.3,1.3,0,0,1-.65.21.56.56,0,0,1-.46-.18.64.64,0,0,1-.15-.43.94.94,0,0,1,.11-.43,3.61,3.61,0,0,1,.29-.48,6,6,0,0,1,.38-.5l.37-.48c.12-.16.21-.3.29-.42a.64.64,0,0,0,.12-.31.23.23,0,0,0-.08-.2.27.27,0,0,0-.18,0,1,1,0,0,0-.47.13,3.31,3.31,0,0,0-.57.38,6.3,6.3,0,0,0-.6.57c-.21.22-.41.45-.61.7a8.57,8.57,0,0,0-.55.79,5.64,5.64,0,0,0-.45.83h-.64a11.5,11.5,0,0,1,.6-1l.61-.93L420,164a1.15,1.15,0,0,0,.19-.46.25.25,0,0,0-.28-.27,1.11,1.11,0,0,0-.56.18,3.29,3.29,0,0,0-.63.48,5.78,5.78,0,0,0-.63.67c-.21.25-.41.5-.59.76s-.34.49-.48.72-.25.43-.33.59Z"/>
    </g>
    <g>
      <path class="e" d="M530.92,263.2a3.62,3.62,0,0,0-1,.32,3.68,3.68,0,0,0-.82.58,2.69,2.69,0,0,1,.39.5,3.91,3.91,0,0,1,.26.59,4.29,4.29,0,0,1,.14.62,4.56,4.56,0,0,1,.05.62,3.7,3.7,0,0,1-.39,1.68,4.37,4.37,0,0,1-1,1.34,5.13,5.13,0,0,1-1.43.89,4.25,4.25,0,0,1-1.62.32H525l-.44,0-.36-.06-.33-.08-.27,0-.25,0a1.14,1.14,0,0,1-.28,0h-.35a1.18,1.18,0,0,1-.37,0,.17.17,0,0,1-.13-.17.15.15,0,0,1,.1-.16.7.7,0,0,1,.28-.05l.23,0,.26,0,.33.07.44.07a2,2,0,0,0,.93-.53,5.12,5.12,0,0,0,.81-1,13.33,13.33,0,0,0,.76-1.21c.24-.44.5-.88.76-1.31s.55-.86.84-1.26a6.08,6.08,0,0,1,1-1,2.42,2.42,0,0,0-.94-.49,3.39,3.39,0,0,0-.94-.15,4.74,4.74,0,0,0-1.58.28,4.68,4.68,0,0,0-1.36.78,4.15,4.15,0,0,0-1,1.18,3.14,3.14,0,0,0-.36,1.48,2.93,2.93,0,0,0,.06.61,1.33,1.33,0,0,0,.21.5,1.1,1.1,0,0,0,.39.35,1.34,1.34,0,0,0,.6.12,1.64,1.64,0,0,0,.82-.21,2,2,0,0,0,.64-.58,2.81,2.81,0,0,0,.42-.85,3.45,3.45,0,0,0,.15-1v-.34h.12V266a3.8,3.8,0,0,1-.17,1.15,3.15,3.15,0,0,1-.48.91,2.2,2.2,0,0,1-.73.6,2,2,0,0,1-.92.21,1.54,1.54,0,0,1-.67-.14,1.49,1.49,0,0,1-.47-.39,1.84,1.84,0,0,1-.28-.56,2.41,2.41,0,0,1-.09-.67,2.85,2.85,0,0,1,.35-1.29,4.66,4.66,0,0,1,1-1.23,5.06,5.06,0,0,1,1.46-.93,4.47,4.47,0,0,1,1.83-.37,3.28,3.28,0,0,1,1.09.18,3.19,3.19,0,0,1,.93.49,5.75,5.75,0,0,1,.89-.55,3.35,3.35,0,0,1,1-.32Zm-5.58,7.34a3.78,3.78,0,0,0,1.28-.21,3.86,3.86,0,0,0,1-.56,4,4,0,0,0,.81-.84,6.7,6.7,0,0,0,.57-1,5.58,5.58,0,0,0,.34-1.1,5.29,5.29,0,0,0,.12-1.1,3.21,3.21,0,0,0-.11-.8,1.77,1.77,0,0,0-.36-.68,6.79,6.79,0,0,0-.76,1c-.23.39-.46.79-.68,1.2s-.46.83-.7,1.23a9.52,9.52,0,0,1-.78,1.14,5.64,5.64,0,0,1-.94.95,3.64,3.64,0,0,1-1.17.62v0a4.2,4.2,0,0,0,.62.08C524.83,270.54,525.07,270.54,525.34,270.54Z"/>
      <path class="e" d="M534.49,267.91a6.17,6.17,0,0,1-.38.55,6.78,6.78,0,0,1-.51.6c-.19.2-.39.38-.61.57a6.38,6.38,0,0,1-.67.49,3.83,3.83,0,0,1-.71.34,2.18,2.18,0,0,1-.69.12.92.92,0,0,1-.65-.21.79.79,0,0,1-.23-.62,1.87,1.87,0,0,1,.26-.92,4.1,4.1,0,0,1,.68-.9,4,4,0,0,1,.9-.68,1.93,1.93,0,0,1,.94-.27.67.67,0,0,1,.39.11.36.36,0,0,1,.14.3.65.65,0,0,1-.26.47,3.53,3.53,0,0,1-.64.41,8.34,8.34,0,0,1-.8.33,7,7,0,0,1-.76.21,2.05,2.05,0,0,0-.25.95,1.94,1.94,0,0,0,0,.24.9.9,0,0,0,.08.21.54.54,0,0,0,.15.15.43.43,0,0,0,.24.06,1.83,1.83,0,0,0,.77-.21,5.51,5.51,0,0,0,.91-.58,7.45,7.45,0,0,0,.88-.82,5.8,5.8,0,0,0,.72-.95Zm-1.62-.53a.26.26,0,0,0-.26-.28.87.87,0,0,0-.46.17,2.91,2.91,0,0,0-.48.41,4.32,4.32,0,0,0-.44.52,3.11,3.11,0,0,0-.29.5,2.9,2.9,0,0,0,.55-.15,3.6,3.6,0,0,0,.63-.29,2.14,2.14,0,0,0,.53-.39A.71.71,0,0,0,532.87,267.38Z"/>
      <path class="e" d="M534.82,267.09l.65,0-.71,1-.39.55,0,0,.55-.58c.18-.18.35-.33.52-.47a2.17,2.17,0,0,1,1.36-.6.71.71,0,0,1,.45.13.43.43,0,0,1,.18.38.41.41,0,0,1-.07.25.46.46,0,0,1-.17.17.7.7,0,0,1-.23.11l-.25,0a2.55,2.55,0,0,0,.13-.29,1.11,1.11,0,0,0,0-.3.34.34,0,0,0-.09-.26.28.28,0,0,0-.22-.09,1.21,1.21,0,0,0-.45.13,4,4,0,0,0-.67.48,9.8,9.8,0,0,0-1.1,1.12,10,10,0,0,0-1.11,1.66h-.62Zm4.07.84a14.94,14.94,0,0,1-1,1.32,7.63,7.63,0,0,1-.84.81,2.68,2.68,0,0,1-.67.41,1.44,1.44,0,0,1-.54.11.63.63,0,0,1-.47-.14.54.54,0,0,1-.14-.4.71.71,0,0,1,.06-.28c0-.1.09-.21.16-.35l.16-.32a.41.41,0,0,0,.07-.23.13.13,0,0,0-.08-.13.4.4,0,0,0-.15,0l-.2,0a.75.75,0,0,1-.21,0c-.1,0-.15,0-.16,0a.15.15,0,0,1,0-.06c0-.06.06-.09.19-.09h.25l.18,0,.18,0a.5.5,0,0,1,.41.5,1.06,1.06,0,0,1,0,.31c0,.1-.07.2-.11.3l-.11.27a.77.77,0,0,0,0,.25.22.22,0,0,0,0,.16s.08,0,.17,0a1,1,0,0,0,.43-.13,2.75,2.75,0,0,0,.64-.43,7.29,7.29,0,0,0,.82-.79,12.57,12.57,0,0,0,1-1.24Z"/>
      <path class="e" d="M541.5,267.06h.65l-.71,1c-.23.33-.43.63-.61.91s-.32.52-.42.73a1.14,1.14,0,0,0-.16.49c0,.18.09.26.27.26a1.13,1.13,0,0,0,.53-.2,5.2,5.2,0,0,0,.71-.57,11,11,0,0,0,.78-.84c.26-.32.52-.66.76-1l.06,0c-.18.28-.4.57-.64.89a9.43,9.43,0,0,1-.76.88,5.38,5.38,0,0,1-.8.69,1.38,1.38,0,0,1-.75.27.58.58,0,0,1-.43-.14.49.49,0,0,1-.13-.35.84.84,0,0,1,0-.27c0-.09.06-.18.1-.28h0l-.33.33a3.47,3.47,0,0,1-.42.34,2.4,2.4,0,0,1-.46.27,1,1,0,0,1-.46.11.56.56,0,0,1-.52-.23.91.91,0,0,1-.15-.52,1.89,1.89,0,0,1,.26-.9,4.16,4.16,0,0,1,.66-.93,4,4,0,0,1,.87-.73,1.73,1.73,0,0,1,.89-.29,1,1,0,0,1,.35.06.7.7,0,0,1,.25.15.62.62,0,0,1,.15.21,1.25,1.25,0,0,1,.09.25h0Zm-3.27,2.8a.6.6,0,0,0,.09.36.32.32,0,0,0,.27.12.93.93,0,0,0,.4-.12,3.08,3.08,0,0,0,.48-.34,5.49,5.49,0,0,0,.49-.48,4.31,4.31,0,0,0,.44-.59,3.68,3.68,0,0,0,.31-.63,1.7,1.7,0,0,0,.12-.61.48.48,0,0,0-.13-.35.47.47,0,0,0-.32-.12,1.21,1.21,0,0,0-.67.26,3.66,3.66,0,0,0-.7.67,4.31,4.31,0,0,0-.56.89A2.25,2.25,0,0,0,538.23,269.86Z"/>
      <path class="e" d="M545,269.55a3.39,3.39,0,0,1-1,.77,2.07,2.07,0,0,1-1,.26.77.77,0,0,1-.62-.25,1,1,0,0,1-.21-.64,1.52,1.52,0,0,1,.13-.61,3,3,0,0,1,.34-.6,4.19,4.19,0,0,1,.48-.56,4.84,4.84,0,0,1,.55-.48,2.37,2.37,0,0,1,.69-.35A2.26,2.26,0,0,1,545,267a1,1,0,0,1,.23,0,.8.8,0,0,1,.23.11.91.91,0,0,1,.19.2.82.82,0,0,1,.11.3h0l.36-2.75a2.42,2.42,0,0,1,.1-.45,1,1,0,0,1,.21-.38.69.69,0,0,1,.33-.22,1.24,1.24,0,0,1,.37-.06,1.42,1.42,0,0,1,.38.06l.42.14c.15.06.3.1.43.14a1.52,1.52,0,0,0,.42.06.82.82,0,0,0,.28,0,.71.71,0,0,0,.24-.17l.16-.18.15-.24.08,0c-.09.15-.17.28-.25.39a1.54,1.54,0,0,1-.25.31,1,1,0,0,1-.35.24,1.13,1.13,0,0,1-.36.06,2.09,2.09,0,0,1-.42,0l-.48-.15-.49-.15a1.16,1.16,0,0,0-.33-.06.39.39,0,0,0-.35.19,1.33,1.33,0,0,0-.17.51l-.36,2.76s0,.12,0,.27a2.58,2.58,0,0,1-.14.5,4.83,4.83,0,0,1-.27.56,4.42,4.42,0,0,1-.35.47,4.56,4.56,0,0,0,2.39-1.54l.06.05A4.5,4.5,0,0,1,545,269.55Zm.34-1.93a.54.54,0,0,0-.12-.39.42.42,0,0,0-.33-.13,1,1,0,0,0-.51.18,2.6,2.6,0,0,0-.6.5A4.16,4.16,0,0,0,543,269a2.7,2.7,0,0,0-.23.93.73.73,0,0,0,.1.42.32.32,0,0,0,.3.15,1.38,1.38,0,0,0,.66-.22,2.36,2.36,0,0,0,.76-.73,4.49,4.49,0,0,0,.59-1.08A2.4,2.4,0,0,0,545.33,267.62Z"/>
      <path class="e" d="M549.85,265.12c-.36.54-.72,1.07-1.1,1.59s-.75,1.06-1.09,1.6l0,0c.1-.13.21-.27.35-.43a3.57,3.57,0,0,1,.43-.44,2.1,2.1,0,0,1,.5-.34,1.21,1.21,0,0,1,.55-.14.89.89,0,0,1,.54.17.73.73,0,0,1,.22.59,2,2,0,0,1-.07.5,2.44,2.44,0,0,1-.19.44,2.33,2.33,0,0,1-.26.38,3,3,0,0,1-.29.32l0,0a3.58,3.58,0,0,0,1.3-.49,4.8,4.8,0,0,0,1.17-1.08l.08,0a5.31,5.31,0,0,1-.84.86,3.5,3.5,0,0,1-.72.47,3.17,3.17,0,0,1-.61.21l-.53.12-.39.31a5.37,5.37,0,0,1-.45.35,3.53,3.53,0,0,1-.5.28,1.26,1.26,0,0,1-.53.11.55.55,0,0,1-.28-.07.26.26,0,0,1-.13-.25.43.43,0,0,1,.2-.35,2.09,2.09,0,0,1,.5-.22,4,4,0,0,1,.62-.13l.54-.07a4.28,4.28,0,0,0,.26-.36c.09-.15.17-.3.25-.46a4.09,4.09,0,0,0,.18-.49,2.14,2.14,0,0,0,.07-.48.74.74,0,0,0-.1-.45.34.34,0,0,0-.24-.11.91.91,0,0,0-.49.17,2.77,2.77,0,0,0-.51.43,6.08,6.08,0,0,0-.52.59c-.17.22-.33.43-.47.64l-.4.6c-.12.18-.22.33-.3.43l-.26.38L546,271l-.45.69-.46.75c-.16.25-.3.49-.44.72l-.37.63h-.62c.9-1.44,1.82-2.88,2.75-4.3s1.86-2.86,2.78-4.32Zm-2.25,5.34a.65.65,0,0,0,.33-.1,1.41,1.41,0,0,0,.36-.24,2.92,2.92,0,0,0,.32-.28l.2-.21,0,0-.43.07a3.86,3.86,0,0,0-.49.09,1.46,1.46,0,0,0-.4.17.31.31,0,0,0-.16.28.2.2,0,0,0,.09.18A.34.34,0,0,0,547.6,270.46Z"/>
      <path class="e" d="M555.47,267.84a2.6,2.6,0,0,1-.47.52,4.83,4.83,0,0,1-.52.38,2.83,2.83,0,0,1-.58.29,3.32,3.32,0,0,1-.49.14,3.49,3.49,0,0,1-.17.46,1.73,1.73,0,0,1-.48.57,1.7,1.7,0,0,1-1.13.38.78.78,0,0,1-.6-.22.76.76,0,0,1-.22-.58,1.71,1.71,0,0,1,.09-.5,1.94,1.94,0,0,1,.33-.61l1.15-1.61H553l-.94,1.27a6.62,6.62,0,0,0-.62,1,1.66,1.66,0,0,0-.17.68.58.58,0,0,0,.11.34.38.38,0,0,0,.32.15,1.14,1.14,0,0,0,.38-.07.94.94,0,0,0,.43-.33,1.31,1.31,0,0,0,.25-.44,3.13,3.13,0,0,0,.1-.44.33.33,0,0,1-.16-.17.65.65,0,0,1,0-.29.52.52,0,0,1,.12-.39.39.39,0,0,1,.26-.12.36.36,0,0,1,.27.14.61.61,0,0,1,.11.38.77.77,0,0,1,0,.18s0,.09,0,.16a2,2,0,0,0,.47-.13,3.33,3.33,0,0,0,.5-.25,3.5,3.5,0,0,0,.54-.41,2.72,2.72,0,0,0,.47-.5Z"/>
    </g>
    <path class="b" d="M574.82,55.8c.13,0,.41,0,.36-.22s-.48-.18-.6-.18-.42.05-.37.23.49.17.61.17Z"/>
    <path class="b" d="M501.5,95.72c.68,0,.2-.41-.23-.41-.68,0-.2.41.23.41Z"/>
    <path class="b" d="M485.3,64.79c.64,0-.1-.45-.41-.45-.65,0,.1.45.41.45Z"/>
    <path class="b" d="M529.27,77.84c.65,0-.07-.48-.38-.48-.65,0,.07.48.38.48Z"/>
    <path class="b" d="M533.35,37.1c.65,0-.08-.46-.39-.46-.65,0,.08.46.39.46Z"/>
    <path class="b" d="M519.5,49.32c.64,0-.07-.47-.39-.47-.64,0,.08.47.39.47Z"/>
    <path class="b" d="M519.19,55.81c.14,0,.56,0,.6-.2s-.25-.21-.37-.21-.55,0-.6.19.25.22.37.22Z"/>
    <path class="b" d="M388.15,42c.11,0,.51,0,.51-.18s-.38-.22-.49-.22-.51,0-.51.17.37.23.49.23Z"/>
    <path class="b" d="M348.46,46.05c.18,0,.31-.07.23-.24s-.51-.2-.66-.2-.31.07-.23.24.51.2.66.2Z"/>
    <path class="b" d="M339.39,46c.68,0,.22-.42-.22-.42-.68,0-.21.42.22.42Z"/>
    <path class="b" d="M332.06,37.07c.68,0,.21-.41-.22-.41-.68,0-.21.41.22.41Z"/>
    <path class="b" d="M293.05,42c.64,0-.08-.47-.39-.47-.65,0,.08.47.39.47Z"/>
    <path class="b" d="M350.17,28.15c.23,0,.18-.15.08-.27a1,1,0,0,0-.67-.21c-.23,0-.18.14-.09.27a1,1,0,0,0,.68.21Z"/>
    <path class="b" d="M350,90c.68,0,.22-.41-.22-.41-.67,0-.21.41.22.41Z"/>
    <path class="b" d="M271,60.7c.68,0,.21-.42-.22-.42-.68,0-.21.42.22.42Z"/>
    <path class="b" d="M178.21,58.27c.18,0,.31-.05.23-.23s-.5-.22-.65-.22-.31.06-.24.23.51.22.66.22Z"/>
    <path class="b" d="M148.89,35.46c.18,0,.31-.07.23-.24s-.51-.2-.66-.2-.31.07-.23.24.51.2.66.2Z"/>
    <path class="b" d="M234.31,33c.68,0,.22-.41-.21-.41-.68,0-.22.41.21.41Z"/>
    <path class="b" d="M227.58,64c.43,0,.9-.42.22-.42-.43,0-.91.42-.22.42Z"/>
    <path class="b" d="M217.29,45.25c.65,0-.08-.47-.39-.47-.65,0,.08.47.39.47Z"/>
    <path class="b" d="M201.73,45.22c.68,0,.22-.41-.22-.41-.68,0-.22.41.22.41Z"/>
    <path class="b" d="M209.24,54.22c.23,0,.18-.15.09-.27a1,1,0,0,0-.67-.22c-.23,0-.18.15-.09.27a1,1,0,0,0,.67.22Z"/>
    <path class="b" d="M173.82,85.14c.43,0,.89-.42.21-.42-.43,0-.9.42-.21.42Z"/>
    <path class="b" d="M167.29,29.74c.13,0,.55,0,.6-.18s-.24-.22-.36-.22-.56,0-.61.17.24.23.37.23Z"/>
    <path class="b" d="M45.11,28.11c.43,0,.9-.41.22-.41-.43,0-.9.41-.22.41Z"/>
    <path class="b" d="M42.07,12.64c.68,0,.21-.41-.22-.41-.68,0-.21.41.22.41Z"/>
    <path class="b" d="M73.74,12.63c.59,0,.58-.4,0-.4s-.57.4,0,.4Z"/>
    <path class="b" d="M104.79,21.6c.68,0,.22-.42-.22-.42-.67,0-.21.42.22.42Z"/>
    <path class="b" d="M193.36,15.9c.43,0,.91-.42.22-.42-.43,0-.9.42-.22.42Z"/>
    <path class="b" d="M280,15.92c.65,0-.1-.46-.41-.46-.64,0,.11.46.41.46Z"/>
    <path class="b" d="M464,7.76c.68,0,.24-.43-.2-.43-.67,0-.23.43.2.43Z"/>
    <path class="b" d="M464,26.49c.67,0,.23-.42-.21-.42-.67,0-.23.42.21.42Z"/>
    <path class="b" d="M426.66.43c.19,0,.31-.08.23-.24s-.51-.19-.67-.19-.3.07-.22.24.51.19.66.19Z"/>
    <path class="b" d="M598.21,6.12c.44,0,.9-.41.22-.41-.44,0-.9.41-.22.41Z"/>
    <path class="b" d="M600.87,63.15c.68,0,.23-.42-.21-.42-.68,0-.23.42.21.42Z"/>
    <path class="b" d="M597.5,79.43c.58,0,.61-.4,0-.4s-.61.4,0,.4Z"/>
    <path class="b" d="M624.59,82.71c.65,0-.1-.45-.41-.45-.64,0,.1.45.41.45Z"/>
    <path class="b" d="M558.51,110.39c.68,0,.22-.42-.21-.42-.68,0-.22.42.21.42Z"/>
    <path class="b" d="M584.68,28.94c.18,0,.31-.05.24-.23s-.51-.21-.66-.21-.31.06-.23.23.5.21.65.21Z"/>
    <path class="b" d="M546.29,28.12c.68,0,.23-.42-.21-.42-.68,0-.22.42.21.42Z"/>
    <path class="b" d="M552,44.41c.68,0,.24-.42-.2-.42-.68,0-.24.42.2.42Z"/>
    <path class="b" d="M28.82,103.06c.44,0,.9-.42.21-.42-.43,0-.89.42-.21.42Z"/>
    <path class="b" d="M22.6,117.75c.65,0-.07-.48-.38-.48-.65,0,.07.48.38.48Z"/>
    <path class="b" d="M12.84,66.42c.65,0-.1-.45-.41-.45-.64,0,.1.45.41.45Z"/>
    <path class="b" d="M53.26,66.4c.42,0,.9-.41.22-.41-.43,0-.91.41-.22.41Z"/>
    <path class="b" d="M193.37,187.77c.43,0,.89-.41.21-.41-.43,0-.9.41-.21.41Z"/>
    <path class="b" d="M186.26,134c.13,0,.42,0,.37-.23s-.49-.18-.61-.18-.41,0-.36.22.48.19.6.19Z"/>
    <path class="b" d="M205.1,134c.18,0,.3-.07.22-.24s-.51-.19-.66-.19-.31.07-.22.24.5.19.66.19Z"/>
    <path class="b" d="M204.76,156.81c.14,0,.55,0,.6-.18s-.24-.22-.36-.22-.56,0-.61.18.25.22.37.22Z"/>
    <path class="b" d="M143,144.59c.59,0,.62-.4,0-.4s-.62.4,0,.4Z"/>
    <path class="b" d="M246.64,109.58c.18,0,.3-.06.22-.23s-.5-.2-.65-.2-.31.06-.23.23.5.2.66.2Z"/>
    <path class="b" d="M255.38,72.91c.58,0,.61-.4,0-.4s-.61.4,0,.4Z"/>
    <path class="b" d="M218.63,156.82c.43,0,.88-.42.2-.42-.44,0-.88.42-.2.42Z"/>
    <path class="b" d="M253.23,298.6c.22,0,.18-.14.09-.27a1,1,0,0,0-.67-.23c-.23,0-.19.14-.09.27a1,1,0,0,0,.67.23Z"/>
    <path class="b" d="M264.54,274.14c.65,0-.09-.46-.4-.46-.64,0,.1.46.4.46Z"/>
    <path class="b" d="M320.65,240.72c.68,0,.23-.42-.2-.42-.68,0-.24.42.2.42Z"/>
    <path class="b" d="M239.2,244c.68,0,.22-.42-.22-.42-.68,0-.21.42.22.42Z"/>
    <path class="b" d="M346.81,261.12c.64,0-.07-.48-.39-.48-.64,0,.07.48.39.48Z"/>
    <path class="b" d="M388.86,216.28c.43,0,.91-.41.23-.41-.43,0-.91.41-.23.41Z"/>
    <path class="b" d="M371.16,187.78c.68,0,.22-.42-.21-.42-.68,0-.23.42.21.42Z"/>
    <path class="b" d="M393.16,160.89c.13,0,.42,0,.37-.21s-.48-.2-.6-.2-.42,0-.37.21.48.2.6.2Z"/>
    <path class="b" d="M369.32,146.23c.44,0,.88-.42.2-.42-.43,0-.88.42-.2.42Z"/>
    <path class="b" d="M428.07,172.29c.58,0,.61-.4,0-.4s-.61.4,0,.4Z"/>
    <path class="b" d="M450.89,177.18c.59,0,.58-.4,0-.4s-.57.4,0,.4Z"/>
    <path class="b" d="M440.39,186.15c.68,0,.23-.42-.2-.42-.68,0-.23.42.2.42Z"/>
    <path class="b" d="M442,169c.67,0,.22-.42-.21-.42-.68,0-.23.42.21.42Z"/>
    <path class="b" d="M472.87,142.15c.58,0,.61-.4,0-.4s-.61.4,0,.4Z"/>
    <path class="b" d="M428.88,127.49c.58,0,.61-.4,0-.4s-.62.4,0,.4Z"/>
    <path class="b" d="M479.39,136.45c.58,0,.6-.4,0-.4s-.61.4,0,.4Z"/>
    <path class="b" d="M500.46,97.35c.42,0,.91-.41.22-.41-.42,0-.91.41-.22.41Z"/>
    <path class="b" d="M565,187.77c.68,0,.22-.41-.21-.41-.68,0-.23.41.21.41Z"/>
    <path class="b" d="M582.15,163.33c.13,0,.41,0,.36-.22s-.48-.18-.6-.18-.42,0-.37.22.49.18.61.18Z"/>
    <path class="b" d="M572.54,171.52c.23,0,.19-.13.09-.26A.93.93,0,0,0,572,171c-.23,0-.19.14-.1.27a1,1,0,0,0,.67.23Z"/>
    <path class="b" d="M603.21,152.74c.59,0,.58-.4,0-.4s-.58.4,0,.4Z"/>
    <path class="b" d="M82.08,181.27c.18,0,.32,0,.24-.22s-.5-.23-.65-.23-.31.05-.24.23.5.22.65.22Z"/>
    <path class="b" d="M78.91,134.05c.22,0,.18-.14.09-.27a1,1,0,0,0-.67-.23c-.23,0-.19.14-.09.27a1,1,0,0,0,.67.23Z"/>
    <path class="b" d="M33.7,129.12c.14,0,.55,0,.6-.19s-.24-.22-.37-.22-.55,0-.6.19.25.22.37.22Z"/>
    <path class="b" d="M49.89,94.1c.16,0,.57,0,.66-.19s0-.23-.22-.23-.58,0-.66.18,0,.24.22.24Z"/>
    <path class="b" d="M55.92,105.5c.68,0,.21-.41-.22-.41-.68,0-.21.41.22.41Z"/>
    <path class="b" d="M33.6,65.59c.16,0,.57,0,.66-.18s0-.24-.22-.24-.58,0-.67.18,0,.24.23.24Z"/>
    <path class="b" d="M14.16,37.89c.42,0,.9-.41.22-.41-.43,0-.91.41-.22.41Z"/>
    <path class="b" d="M85.83,51.73c.14,0,.56,0,.6-.18s-.24-.22-.36-.22-.56,0-.61.18.25.22.37.22Z"/>
    <path class="b" d="M4.59,85.14c.68,0,.24-.42-.2-.42-.67,0-.24.42.2.42Z"/>
    <path class="b" d="M73.85,252.94c.12,0,.41,0,.37-.22s-.48-.19-.6-.19-.42,0-.37.21.48.2.6.2Z"/>
    <path class="b" d="M102.23,233.38c.11,0,.51,0,.51-.17s-.38-.23-.49-.23-.51,0-.51.18.38.22.49.22Z"/>
    <path class="b" d="M109.46,216.28c.43,0,.91-.41.23-.41-.43,0-.91.41-.23.41Z"/>
    <path class="b" d="M138.08,231.75c.59,0,.6-.4,0-.4s-.59.4,0,.4Z"/>
    <path class="b" d="M138.07,223.61c.59,0,.62-.4,0-.4s-.62.4,0,.4Z"/>
    <path class="b" d="M55,272.48c.59,0,.6-.4,0-.4s-.6.4,0,.4Z"/>
    <path class="b" d="M27.31,235c.59,0,.58-.4,0-.4s-.58.4,0,.4Z"/>
    <path class="b" d="M71.17,310.77c.43,0,.91-.41.23-.41-.43,0-.91.41-.23.41Z"/>
    <path class="b" d="M200.91,239.1c.67,0,.23-.43-.21-.43-.67,0-.23.43.21.43Z"/>
    <path class="b" d="M275.94,253.78c.65,0-.08-.47-.39-.47-.65,0,.08.47.39.47Z"/>
    <path class="b" d="M276,279c.64,0-.1-.46-.41-.46-.64,0,.1.46.41.46Z"/>
    <path class="b" d="M226,217.08c.23,0,.18-.14.09-.27a.94.94,0,0,0-.67-.22c-.23,0-.18.14-.09.26a1,1,0,0,0,.67.23Z"/>
    <path class="b" d="M217.94,331.55c.64,0-.09-.46-.4-.46-.65,0,.09.46.4.46Z"/>
    <path class="b" d="M167.44,266.67c.58,0,.61-.4,0-.4s-.61.4,0,.4Z"/>
    <path class="b" d="M194.58,272c.59,0,.58-.4,0-.4s-.58.4,0,.4Z"/>
    <path class="b" d="M133.69,329.54c.58,0,.61-.4,0-.4s-.61.4,0,.4Z"/>
    <path class="b" d="M332.43,323.61c.64,0-.09-.46-.4-.46-.65,0,.09.46.4.46Z"/>
    <path class="b" d="M343.37,230.28c.43,0,.9-.42.22-.42-.43,0-.9.42-.22.42Z"/>
    <path class="b" d="M451.47,268c.13,0,.41,0,.36-.22s-.48-.18-.6-.18-.41,0-.36.22.48.18.6.18Z"/>
    <path class="b" d="M442.64,298.44c.42,0,.9-.41.22-.41-.43,0-.91.41-.22.41Z"/>
    <path class="b" d="M446.05,197.18c.58,0,.61-.4,0-.4s-.61.4,0,.4Z"/>
    <path class="b" d="M575,297.11c.14,0,.56,0,.61-.18s-.24-.22-.36-.22-.56,0-.61.17.24.23.36.23Z"/>
    <path class="b" d="M596.4,266c.13,0,.42,0,.37-.22s-.49-.19-.61-.19-.41,0-.36.22.48.19.6.19Z"/>
    <path class="b" d="M556.87,295.83c.23,0,.18-.15.08-.27a.94.94,0,0,0-.67-.22c-.23,0-.18.15-.09.27a1,1,0,0,0,.68.22Z"/>
    <path class="b" d="M543.54,289.86c.64,0-.09-.46-.4-.46-.65,0,.09.46.4.46Z"/>
    <path class="b" d="M599.6,337.48c.59,0,.57-.4,0-.4s-.57.4,0,.4Z"/>
    <path class="b" d="M603,299.76c.67,0,.22-.41-.22-.41-.68,0-.22.41.22.41Z"/>
  </g>
</svg>
